G04 Generated by Ultiboard 14.2 *
%FSLAX24Y24*%
%MOIN*%

%ADD10C,0.0001*%
%ADD11C,0.0098*%
%ADD12C,0.0001*%
%ADD13C,0.0050*%
%ADD14R,0.0098X0.0197*%
%ADD15R,0.0197X0.0098*%
%ADD16R,0.0118X0.0315*%
%ADD17R,0.0315X0.0118*%
%ADD18R,0.0667X0.0967*%
%ADD19C,0.0233*%
%ADD20C,0.1630*%
%ADD21C,0.4252*%
%ADD22C,0.0953*%
%ADD23R,0.0833X0.0833*%
%ADD24C,0.0633*%
%ADD25R,0.0208X0.0208*%
%ADD26C,0.0392*%
%ADD27C,0.0197*%
%ADD28R,0.0374X0.0846*%
%ADD29R,0.1280X0.0846*%


G04 ColorRGB 9900CC for the following layer *
%LNSolder Mask Bottom*%
%LPD*%
G54D10*
G54D11*
G36*
X66793Y15218D02*
X66793Y15218D01*
X66654Y15357D01*
X65061Y15357D01*
X65061Y13625D01*
X66793Y13625D01*
X66793Y15218D01*
D02*
G37*
X66654Y15357D01*
X65061Y15357D01*
X65061Y13625D01*
X66793Y13625D01*
X66793Y15218D01*
G36*
X63468Y21224D02*
X63468Y21224D01*
X63328Y21363D01*
X61735Y21363D01*
X61735Y19631D01*
X63468Y19631D01*
X63468Y21224D01*
D02*
G37*
X63328Y21363D01*
X61735Y21363D01*
X61735Y19631D01*
X63468Y19631D01*
X63468Y21224D01*
G36*
X6066Y14280D02*
X6066Y14280D01*
X5927Y14419D01*
X4334Y14419D01*
X4334Y12687D01*
X6066Y12687D01*
X6066Y14280D01*
D02*
G37*
X5927Y14419D01*
X4334Y14419D01*
X4334Y12687D01*
X6066Y12687D01*
X6066Y14280D01*
G36*
X10080Y31631D02*
X10080Y31631D01*
X10219Y31770D01*
X10219Y33363D01*
X8487Y33363D01*
X8487Y31631D01*
X10080Y31631D01*
D02*
G37*
X10219Y31770D01*
X10219Y33363D01*
X8487Y33363D01*
X8487Y31631D01*
X10080Y31631D01*
G36*
X63672Y34224D02*
X63672Y34224D01*
X63533Y34363D01*
X61940Y34363D01*
X61940Y32631D01*
X63672Y32631D01*
X63672Y34224D01*
D02*
G37*
X63533Y34363D01*
X61940Y34363D01*
X61940Y32631D01*
X63672Y32631D01*
X63672Y34224D01*
G36*
X12880Y7607D02*
X12880Y7607D01*
X13019Y7746D01*
X13019Y9339D01*
X11287Y9339D01*
X11287Y7607D01*
X12880Y7607D01*
D02*
G37*
X13019Y7746D01*
X13019Y9339D01*
X11287Y9339D01*
X11287Y7607D01*
X12880Y7607D01*
G36*
X9880Y25134D02*
X9880Y25134D01*
X10019Y25273D01*
X10019Y26866D01*
X8287Y26866D01*
X8287Y25134D01*
X9880Y25134D01*
D02*
G37*
X10019Y25273D01*
X10019Y26866D01*
X8287Y26866D01*
X8287Y25134D01*
X9880Y25134D01*
G36*
X63462Y28018D02*
X63462Y28018D01*
X63322Y28157D01*
X61729Y28157D01*
X61729Y26425D01*
X63462Y26425D01*
X63462Y28018D01*
D02*
G37*
X63322Y28157D01*
X61729Y28157D01*
X61729Y26425D01*
X63462Y26425D01*
X63462Y28018D01*
G36*
X61193Y9424D02*
X61193Y9424D01*
X61054Y9563D01*
X59461Y9563D01*
X59461Y7831D01*
X61193Y7831D01*
X61193Y9424D01*
D02*
G37*
X61054Y9563D01*
X59461Y9563D01*
X59461Y7831D01*
X61193Y7831D01*
X61193Y9424D01*
G36*
X9880Y18534D02*
X9880Y18534D01*
X10019Y18673D01*
X10019Y20266D01*
X8287Y20266D01*
X8287Y18534D01*
X9880Y18534D01*
D02*
G37*
X10019Y18673D01*
X10019Y20266D01*
X8287Y20266D01*
X8287Y18534D01*
X9880Y18534D01*
G54D12*
G36*
X66793Y15218D01*
X66654Y15357D01*
X65061Y15357D01*
X65061Y13625D01*
X66793Y13625D01*
X66793Y15218D01*
D02*
G37*
X66654Y15357D01*
X65061Y15357D01*
X65061Y13625D01*
X66793Y13625D01*
X66793Y15218D01*
G36*
X63468Y21224D01*
X63328Y21363D01*
X61735Y21363D01*
X61735Y19631D01*
X63468Y19631D01*
X63468Y21224D01*
D02*
G37*
X63328Y21363D01*
X61735Y21363D01*
X61735Y19631D01*
X63468Y19631D01*
X63468Y21224D01*
G36*
X6066Y14280D01*
X5927Y14419D01*
X4334Y14419D01*
X4334Y12687D01*
X6066Y12687D01*
X6066Y14280D01*
D02*
G37*
X5927Y14419D01*
X4334Y14419D01*
X4334Y12687D01*
X6066Y12687D01*
X6066Y14280D01*
G36*
X10080Y31631D01*
X10219Y31770D01*
X10219Y33363D01*
X8487Y33363D01*
X8487Y31631D01*
X10080Y31631D01*
D02*
G37*
X10219Y31770D01*
X10219Y33363D01*
X8487Y33363D01*
X8487Y31631D01*
X10080Y31631D01*
G36*
X63672Y34224D01*
X63533Y34363D01*
X61940Y34363D01*
X61940Y32631D01*
X63672Y32631D01*
X63672Y34224D01*
D02*
G37*
X63533Y34363D01*
X61940Y34363D01*
X61940Y32631D01*
X63672Y32631D01*
X63672Y34224D01*
G36*
X12880Y7607D01*
X13019Y7746D01*
X13019Y9339D01*
X11287Y9339D01*
X11287Y7607D01*
X12880Y7607D01*
D02*
G37*
X13019Y7746D01*
X13019Y9339D01*
X11287Y9339D01*
X11287Y7607D01*
X12880Y7607D01*
G36*
X9880Y25134D01*
X10019Y25273D01*
X10019Y26866D01*
X8287Y26866D01*
X8287Y25134D01*
X9880Y25134D01*
D02*
G37*
X10019Y25273D01*
X10019Y26866D01*
X8287Y26866D01*
X8287Y25134D01*
X9880Y25134D01*
G36*
X63462Y28018D01*
X63322Y28157D01*
X61729Y28157D01*
X61729Y26425D01*
X63462Y26425D01*
X63462Y28018D01*
D02*
G37*
X63322Y28157D01*
X61729Y28157D01*
X61729Y26425D01*
X63462Y26425D01*
X63462Y28018D01*
G36*
X61193Y9424D01*
X61054Y9563D01*
X59461Y9563D01*
X59461Y7831D01*
X61193Y7831D01*
X61193Y9424D01*
D02*
G37*
X61054Y9563D01*
X59461Y9563D01*
X59461Y7831D01*
X61193Y7831D01*
X61193Y9424D01*
G36*
X9880Y18534D01*
X10019Y18673D01*
X10019Y20266D01*
X8287Y20266D01*
X8287Y18534D01*
X9880Y18534D01*
D02*
G37*
X10019Y18673D01*
X10019Y20266D01*
X8287Y20266D01*
X8287Y18534D01*
X9880Y18534D01*
G54D13*
X-100Y-100D02*
X-100Y3920D01*
X-100Y-100D02*
X6920Y-100D01*
X70100Y-100D02*
X63080Y-100D01*
X70100Y-100D02*
X70100Y3920D01*
X70100Y40100D02*
X70100Y36080D01*
X70100Y40100D02*
X63080Y40100D01*
X-100Y40100D02*
X6920Y40100D01*
X-100Y40100D02*
X-100Y36080D01*
X-2069Y-100D02*
X-6006Y-100D01*
X-4037Y-2069D02*
X-4037Y1869D01*
X-5513Y-100D02*
G75*
D01*
G02X-5513Y-100I1476J0*
G01*
X72069Y-100D02*
X76006Y-100D01*
X74037Y-2069D02*
X74037Y1869D01*
X72561Y-100D02*
G75*
D01*
G02X72561Y-100I1476J0*
G01*
X73545Y-100D02*
G75*
D01*
G02X73545Y-100I492J0*
G01*
X-2069Y40100D02*
X-6006Y40100D01*
X-4037Y38131D02*
X-4037Y42069D01*
X-5513Y40100D02*
G75*
D01*
G02X-5513Y40100I1476J0*
G01*
X-5021Y40100D02*
G75*
D01*
G02X-5021Y40100I984J0*
G01*
X-4529Y40100D02*
G75*
D01*
G02X-4529Y40100I492J0*
G01*
G54D14*
X57749Y37198D03*
X58045Y37198D03*
X61045Y37198D03*
X60749Y37198D03*
X64045Y37198D03*
X63749Y37198D03*
X60749Y37948D03*
X61045Y37948D03*
X63749Y37948D03*
X64045Y37948D03*
X57749Y37948D03*
X58045Y37948D03*
X62561Y12497D03*
X62857Y12497D03*
X62857Y13097D03*
X62561Y13097D03*
X62857Y13697D03*
X62561Y13697D03*
X62857Y14297D03*
X62561Y14297D03*
X68355Y13794D03*
X68651Y13794D03*
X6949Y37198D03*
X7245Y37198D03*
X10245Y37198D03*
X9949Y37198D03*
X12949Y37198D03*
X13245Y37198D03*
X6949Y37948D03*
X7245Y37948D03*
X9949Y37948D03*
X10245Y37948D03*
X12949Y37948D03*
X13245Y37948D03*
X59253Y19800D03*
X59548Y19800D03*
X59253Y20400D03*
X59548Y20400D03*
X59253Y19200D03*
X59548Y19200D03*
X65251Y19297D03*
X64955Y19297D03*
X59253Y18697D03*
X59548Y18697D03*
X2379Y13353D03*
X2675Y13353D03*
X2379Y12800D03*
X2675Y12800D03*
X2379Y12200D03*
X2675Y12200D03*
X2379Y11600D03*
X2675Y11600D03*
X4748Y11353D03*
X4452Y11353D03*
X5948Y11353D03*
X5652Y11353D03*
X7651Y12600D03*
X7355Y12600D03*
X65251Y32800D03*
X64955Y32800D03*
X59631Y33400D03*
X59927Y33400D03*
X59631Y32297D03*
X59927Y32297D03*
X59631Y32800D03*
X59927Y32800D03*
X59631Y31800D03*
X59927Y31800D03*
X59355Y25400D03*
X59651Y25400D03*
X59355Y26000D03*
X59651Y26000D03*
X64755Y26600D03*
X65051Y26600D03*
X59355Y26600D03*
X59651Y26600D03*
X59355Y27200D03*
X59651Y27200D03*
X56779Y8600D03*
X57075Y8600D03*
X56779Y8000D03*
X57075Y8000D03*
X56779Y7400D03*
X57075Y7400D03*
X56779Y6800D03*
X57075Y6800D03*
X7101Y20000D03*
X6805Y20000D03*
G54D15*
X66309Y12349D03*
X66309Y12645D03*
X65109Y12645D03*
X65109Y12349D03*
X63202Y18845D03*
X63202Y18549D03*
X62103Y18549D03*
X62103Y18845D03*
X9153Y34749D03*
X9153Y35045D03*
X7953Y34749D03*
X7953Y35045D03*
X8553Y34749D03*
X8553Y35045D03*
X8553Y30445D03*
X8553Y30149D03*
X7355Y31652D03*
X7355Y31948D03*
X7355Y33198D03*
X7355Y32902D03*
X7353Y34749D03*
X7353Y35045D03*
X63406Y31645D03*
X63406Y31349D03*
X62206Y31349D03*
X62206Y31645D03*
X18398Y2445D03*
X18398Y2149D03*
X12000Y10646D03*
X12000Y10942D03*
X9977Y7846D03*
X9977Y8142D03*
X9977Y9445D03*
X9977Y9149D03*
X10400Y10646D03*
X10400Y10942D03*
X11200Y10646D03*
X11200Y10942D03*
X9600Y10646D03*
X9600Y10942D03*
X6953Y25452D03*
X6953Y25748D03*
X6953Y26452D03*
X6953Y26748D03*
X8952Y28645D03*
X8952Y28349D03*
X8352Y28645D03*
X8352Y28349D03*
X7752Y28349D03*
X7752Y28645D03*
X8352Y23749D03*
X8352Y24045D03*
X7152Y28645D03*
X7152Y28349D03*
X62097Y25149D03*
X62097Y25445D03*
X14798Y2445D03*
X14798Y2149D03*
X60951Y6845D03*
X60951Y6549D03*
X59200Y6948D03*
X59200Y6652D03*
X52600Y2348D03*
X52600Y2052D03*
X56000Y2348D03*
X56000Y2052D03*
X63600Y24948D03*
X63600Y24652D03*
X8355Y17245D03*
X8355Y16949D03*
X9155Y22045D03*
X9155Y21749D03*
X6953Y18652D03*
X6953Y18948D03*
X7555Y22045D03*
X7555Y21749D03*
X8355Y22045D03*
X8355Y21749D03*
X6755Y22045D03*
X6755Y21749D03*
G54D16*
X65041Y13310D03*
X65435Y13310D03*
X65238Y13310D03*
X65631Y13310D03*
X65828Y13310D03*
X66222Y13310D03*
X66025Y13310D03*
X66419Y13310D03*
X66616Y13310D03*
X66813Y13310D03*
X65041Y15672D03*
X65435Y15672D03*
X65238Y15672D03*
X65631Y15672D03*
X65828Y15672D03*
X66222Y15672D03*
X66025Y15672D03*
X66419Y15672D03*
X66616Y15672D03*
X66813Y15672D03*
X62109Y19316D03*
X61716Y19316D03*
X61913Y19316D03*
X62897Y19316D03*
X62306Y19316D03*
X62503Y19316D03*
X62700Y19316D03*
X63094Y19316D03*
X63291Y19316D03*
X63487Y19316D03*
X62109Y21678D03*
X61716Y21678D03*
X61913Y21678D03*
X62897Y21678D03*
X62306Y21678D03*
X62503Y21678D03*
X62700Y21678D03*
X63094Y21678D03*
X63291Y21678D03*
X63487Y21678D03*
X6086Y12372D03*
X6086Y14734D03*
X5298Y12372D03*
X5692Y12372D03*
X5889Y12372D03*
X5495Y12372D03*
X5298Y14734D03*
X5692Y14734D03*
X5889Y14734D03*
X5495Y14734D03*
X4511Y12372D03*
X4905Y12372D03*
X5102Y12372D03*
X4708Y12372D03*
X4511Y14734D03*
X4905Y14734D03*
X5102Y14734D03*
X4708Y14734D03*
X4314Y12372D03*
X4314Y14734D03*
X8467Y31316D03*
X8664Y31316D03*
X9058Y31316D03*
X9255Y31316D03*
X8861Y31316D03*
X9452Y31316D03*
X9845Y31316D03*
X10042Y31316D03*
X9648Y31316D03*
X10239Y31316D03*
X8467Y33678D03*
X8664Y33678D03*
X9058Y33678D03*
X9255Y33678D03*
X8861Y33678D03*
X9452Y33678D03*
X9845Y33678D03*
X10042Y33678D03*
X9648Y33678D03*
X10239Y33678D03*
X61920Y32316D03*
X62117Y32316D03*
X62314Y32316D03*
X62511Y32316D03*
X62708Y32316D03*
X62904Y32316D03*
X63101Y32316D03*
X63298Y32316D03*
X63495Y32316D03*
X63692Y32316D03*
X61920Y34678D03*
X62117Y34678D03*
X62314Y34678D03*
X62511Y34678D03*
X62708Y34678D03*
X62904Y34678D03*
X63101Y34678D03*
X63298Y34678D03*
X63495Y34678D03*
X63692Y34678D03*
X11858Y7292D03*
X11661Y7292D03*
X11464Y7292D03*
X11267Y7292D03*
X12645Y7292D03*
X12448Y7292D03*
X12055Y7292D03*
X12252Y7292D03*
X13039Y7292D03*
X12842Y7292D03*
X11858Y9654D03*
X11661Y9654D03*
X11267Y9654D03*
X11464Y9654D03*
X12645Y9654D03*
X12448Y9654D03*
X12055Y9654D03*
X12252Y9654D03*
X12842Y9654D03*
X13039Y9654D03*
X8661Y24819D03*
X8267Y24819D03*
X8464Y24819D03*
X9448Y24819D03*
X8858Y24819D03*
X9055Y24819D03*
X9252Y24819D03*
X9645Y24819D03*
X9842Y24819D03*
X10039Y24819D03*
X8661Y27181D03*
X8267Y27181D03*
X8464Y27181D03*
X9448Y27181D03*
X8858Y27181D03*
X9055Y27181D03*
X9252Y27181D03*
X9645Y27181D03*
X9842Y27181D03*
X10039Y27181D03*
X61710Y26110D03*
X61907Y26110D03*
X62103Y26110D03*
X62300Y26110D03*
X62497Y26110D03*
X62694Y26110D03*
X62891Y26110D03*
X63088Y26110D03*
X63285Y26110D03*
X63481Y26110D03*
X61710Y28472D03*
X61907Y28472D03*
X62103Y28472D03*
X62300Y28472D03*
X62497Y28472D03*
X62694Y28472D03*
X62891Y28472D03*
X63088Y28472D03*
X63285Y28472D03*
X63481Y28472D03*
X59835Y7516D03*
X59441Y7516D03*
X59638Y7516D03*
X60622Y7516D03*
X60031Y7516D03*
X60228Y7516D03*
X60425Y7516D03*
X60819Y7516D03*
X61016Y7516D03*
X61213Y7516D03*
X59835Y9878D03*
X59441Y9878D03*
X59638Y9878D03*
X60622Y9878D03*
X60031Y9878D03*
X60228Y9878D03*
X60425Y9878D03*
X60819Y9878D03*
X61016Y9878D03*
X61213Y9878D03*
X8661Y18219D03*
X8464Y18219D03*
X8267Y18219D03*
X8858Y18219D03*
X9448Y18219D03*
X9055Y18219D03*
X9252Y18219D03*
X9645Y18219D03*
X10039Y18219D03*
X9842Y18219D03*
X8661Y20581D03*
X8267Y20581D03*
X8464Y20581D03*
X8858Y20581D03*
X9448Y20581D03*
X9055Y20581D03*
X9252Y20581D03*
X9645Y20581D03*
X9842Y20581D03*
X10039Y20581D03*
G54D17*
X64746Y13605D03*
X64746Y13802D03*
X64746Y13999D03*
X64746Y14196D03*
X67108Y13605D03*
X67108Y13802D03*
X67108Y13999D03*
X67108Y14196D03*
X64746Y14393D03*
X64746Y14589D03*
X64746Y14786D03*
X64746Y14983D03*
X67108Y14393D03*
X67108Y14589D03*
X67108Y14786D03*
X67108Y14983D03*
X64746Y15180D03*
X64746Y15377D03*
X67108Y15180D03*
X67108Y15377D03*
X61420Y19611D03*
X63783Y19611D03*
X61420Y19808D03*
X61420Y20005D03*
X61420Y20202D03*
X61420Y20399D03*
X63783Y19808D03*
X63783Y20005D03*
X63783Y20202D03*
X63783Y20399D03*
X61420Y20595D03*
X61420Y20792D03*
X61420Y20989D03*
X61420Y21186D03*
X63783Y20595D03*
X63783Y20792D03*
X63783Y20989D03*
X63783Y21186D03*
X61420Y21383D03*
X63783Y21383D03*
X6381Y12864D03*
X6381Y12667D03*
X6381Y13652D03*
X6381Y13061D03*
X6381Y13258D03*
X6381Y13455D03*
X6381Y14439D03*
X6381Y13848D03*
X6381Y14045D03*
X6381Y14242D03*
X4019Y12864D03*
X4019Y12667D03*
X4019Y13652D03*
X4019Y13061D03*
X4019Y13258D03*
X4019Y13455D03*
X4019Y14439D03*
X4019Y13848D03*
X4019Y14045D03*
X4019Y14242D03*
X8172Y32202D03*
X8172Y31808D03*
X8172Y31611D03*
X8172Y32005D03*
X10534Y32202D03*
X10534Y31808D03*
X10534Y31611D03*
X10534Y32005D03*
X8172Y32989D03*
X8172Y32595D03*
X8172Y32399D03*
X8172Y32792D03*
X10534Y32989D03*
X10534Y32595D03*
X10534Y32399D03*
X10534Y32792D03*
X8172Y33383D03*
X8172Y33186D03*
X10534Y33383D03*
X10534Y33186D03*
X61625Y33005D03*
X61625Y32611D03*
X61625Y32808D03*
X63987Y33005D03*
X63987Y32611D03*
X63987Y32808D03*
X61625Y33792D03*
X61625Y33202D03*
X61625Y33399D03*
X61625Y33595D03*
X63987Y33792D03*
X63987Y33202D03*
X63987Y33399D03*
X63987Y33595D03*
X61625Y33989D03*
X61625Y34186D03*
X61625Y34383D03*
X63987Y33989D03*
X63987Y34186D03*
X63987Y34383D03*
X10972Y7784D03*
X10972Y7587D03*
X13334Y7784D03*
X13334Y7587D03*
X10972Y8178D03*
X10972Y7981D03*
X10972Y8572D03*
X10972Y8375D03*
X13334Y8178D03*
X13334Y7981D03*
X13334Y8572D03*
X13334Y8375D03*
X10972Y8965D03*
X10972Y8769D03*
X10972Y9359D03*
X10972Y9162D03*
X13334Y8965D03*
X13334Y8769D03*
X13334Y9359D03*
X13334Y9162D03*
X7972Y25311D03*
X7972Y25114D03*
X10334Y25311D03*
X10334Y25114D03*
X7972Y25508D03*
X7972Y25705D03*
X7972Y26098D03*
X7972Y25902D03*
X10334Y25508D03*
X10334Y25705D03*
X10334Y26098D03*
X10334Y25902D03*
X7972Y26295D03*
X7972Y26492D03*
X7972Y26886D03*
X7972Y26689D03*
X10334Y26295D03*
X10334Y26492D03*
X10334Y26886D03*
X10334Y26689D03*
X61414Y26799D03*
X61414Y26405D03*
X61414Y26602D03*
X61414Y26996D03*
X63777Y26799D03*
X63777Y26405D03*
X63777Y26602D03*
X63777Y26996D03*
X61414Y27586D03*
X61414Y27193D03*
X61414Y27389D03*
X61414Y27783D03*
X63777Y27586D03*
X63777Y27193D03*
X63777Y27389D03*
X63777Y27783D03*
X61414Y27980D03*
X61414Y28177D03*
X63777Y27980D03*
X63777Y28177D03*
X59146Y7811D03*
X61508Y7811D03*
X59146Y8402D03*
X59146Y8205D03*
X59146Y8008D03*
X59146Y8599D03*
X61508Y8402D03*
X61508Y8205D03*
X61508Y8008D03*
X61508Y8599D03*
X59146Y9189D03*
X59146Y8992D03*
X59146Y8795D03*
X59146Y9386D03*
X61508Y9189D03*
X61508Y8992D03*
X61508Y8795D03*
X61508Y9386D03*
X59146Y9583D03*
X61508Y9583D03*
X7972Y18514D03*
X7972Y18711D03*
X7972Y18908D03*
X10334Y18514D03*
X10334Y18711D03*
X10334Y18908D03*
X7972Y19105D03*
X7972Y19302D03*
X7972Y19498D03*
X7972Y19695D03*
X10334Y19105D03*
X10334Y19302D03*
X10334Y19498D03*
X10334Y19695D03*
X7972Y19892D03*
X7972Y20089D03*
X7972Y20286D03*
X10334Y19892D03*
X10334Y20089D03*
X10334Y20286D03*
G54D18*
X9950Y3400D03*
X11650Y3400D03*
X58550Y3400D03*
X60250Y3400D03*
G54D19*
X9617Y2917D02*
X10283Y2917D01*
X10283Y3883D01*
X9617Y3883D01*
X9617Y2917D01*D02*
X11317Y2917D02*
X11983Y2917D01*
X11983Y3883D01*
X11317Y3883D01*
X11317Y2917D01*D02*
X58217Y2917D02*
X58883Y2917D01*
X58883Y3883D01*
X58217Y3883D01*
X58217Y2917D01*D02*
X59917Y2917D02*
X60583Y2917D01*
X60583Y3883D01*
X59917Y3883D01*
X59917Y2917D01*D02*
G54D20*
X40190Y29250D03*
X48310Y29250D03*
X40190Y4250D03*
X48310Y4250D03*
X21650Y29250D03*
X29770Y29250D03*
X21650Y4250D03*
X29770Y4250D03*
G54D21*
X44250Y16325D03*
X25710Y16325D03*
G54D22*
X48800Y14500D03*
X47500Y13750D03*
X47500Y7750D03*
X48750Y7000D03*
X47500Y9250D03*
X46200Y13000D03*
X48800Y13000D03*
X48800Y19000D03*
X48800Y25000D03*
X44900Y7750D03*
X45550Y5250D03*
X45550Y3750D03*
X44900Y10750D03*
X44900Y9250D03*
X44900Y12250D03*
X44250Y29000D03*
X45550Y29750D03*
X45550Y28250D03*
X43600Y13000D03*
X43600Y11500D03*
X44250Y4500D03*
X42950Y29750D03*
X42950Y28250D03*
X39700Y7750D03*
X42950Y3750D03*
X39700Y13750D03*
X39700Y10750D03*
X39700Y9250D03*
X39700Y12250D03*
X39700Y16750D03*
X39700Y15250D03*
X39700Y18250D03*
X39700Y19750D03*
X44900Y19750D03*
X47500Y19750D03*
X41000Y20500D03*
X43600Y20500D03*
X39700Y21250D03*
X44900Y21250D03*
X47500Y21250D03*
X41000Y22000D03*
X43600Y22000D03*
X46200Y22000D03*
X39700Y22750D03*
X42300Y22750D03*
X44900Y22750D03*
X41000Y23500D03*
X43600Y23500D03*
X39700Y24250D03*
X42300Y24250D03*
X44900Y24250D03*
X41000Y25000D03*
X43600Y25000D03*
X39700Y25750D03*
X42300Y25750D03*
X44900Y25750D03*
X47500Y25750D03*
X43600Y26500D03*
X41000Y26500D03*
X41000Y14500D03*
X42300Y13750D03*
X41000Y13000D03*
X41000Y11500D03*
X42300Y12250D03*
X41000Y17500D03*
X41000Y16000D03*
X48800Y20500D03*
X47500Y15250D03*
X47500Y16750D03*
X48800Y17500D03*
X48800Y16000D03*
X48800Y23500D03*
X48800Y22000D03*
X41000Y19000D03*
X42300Y19750D03*
X46200Y19000D03*
X47500Y18250D03*
X46200Y20500D03*
X42300Y21250D03*
X47500Y22750D03*
X46200Y23500D03*
X47500Y24250D03*
X46200Y25000D03*
X46200Y26500D03*
X43600Y10000D03*
X43600Y8500D03*
X43600Y7000D03*
X42300Y7750D03*
X41000Y8500D03*
X41000Y7000D03*
X41000Y10000D03*
X42300Y10750D03*
X42300Y9250D03*
X48800Y8500D03*
X46200Y8500D03*
X46200Y7000D03*
X47500Y10750D03*
X47500Y12250D03*
X46200Y11500D03*
X46200Y10000D03*
X48800Y11500D03*
X48800Y10000D03*
X42950Y5250D03*
X30260Y13000D03*
X30260Y14500D03*
X28960Y13750D03*
X28960Y7750D03*
X30210Y7000D03*
X28960Y9250D03*
X27660Y13000D03*
X30260Y19000D03*
X30260Y25000D03*
X26360Y7750D03*
X27010Y5250D03*
X27010Y3750D03*
X26360Y10750D03*
X26360Y9250D03*
X26360Y12250D03*
X25710Y29000D03*
X27010Y29750D03*
X27010Y28250D03*
X25060Y13000D03*
X25060Y11500D03*
X25710Y4500D03*
X24410Y29750D03*
X24410Y28250D03*
X21160Y7750D03*
X24410Y3750D03*
X21160Y13750D03*
X21160Y10750D03*
X21160Y9250D03*
X21160Y12250D03*
X21160Y16750D03*
X21160Y15250D03*
X21160Y18250D03*
X21160Y19750D03*
X26360Y19750D03*
X28960Y19750D03*
X22460Y20500D03*
X25060Y20500D03*
X21160Y21250D03*
X26360Y21250D03*
X28960Y21250D03*
X22460Y22000D03*
X25060Y22000D03*
X27660Y22000D03*
X21160Y22750D03*
X23760Y22750D03*
X26360Y22750D03*
X22460Y23500D03*
X25060Y23500D03*
X21160Y24250D03*
X23760Y24250D03*
X26360Y24250D03*
X22460Y25000D03*
X25060Y25000D03*
X21160Y25750D03*
X23760Y25750D03*
X26360Y25750D03*
X28960Y25750D03*
X25060Y26500D03*
X22460Y26500D03*
X22460Y14500D03*
X23760Y13750D03*
X22460Y13000D03*
X22460Y11500D03*
X23760Y12250D03*
X22460Y17500D03*
X22460Y16000D03*
X30260Y20500D03*
X28960Y15250D03*
X28960Y16750D03*
X30260Y17500D03*
X30260Y16000D03*
X30260Y23500D03*
X30260Y22000D03*
X22460Y19000D03*
X23760Y19750D03*
X27660Y19000D03*
X28960Y18250D03*
X27660Y20500D03*
X23760Y21250D03*
X28960Y22750D03*
X27660Y23500D03*
X28960Y24250D03*
X27660Y25000D03*
X27660Y26500D03*
X25060Y10000D03*
X25060Y8500D03*
X25060Y7000D03*
X23760Y7750D03*
X22460Y8500D03*
X22460Y7000D03*
X22460Y10000D03*
X23760Y10750D03*
X23760Y9250D03*
X30260Y8500D03*
X27660Y8500D03*
X27660Y7000D03*
X28960Y10750D03*
X28960Y12250D03*
X27660Y11500D03*
X27660Y10000D03*
X30260Y11500D03*
X30260Y10000D03*
X24410Y5250D03*
G54D23*
X48800Y26500D03*
X30260Y26500D03*
G54D24*
X45140Y37660D03*
X45140Y38660D03*
X39140Y38660D03*
X42140Y37660D03*
X42140Y38660D03*
X41140Y37660D03*
X40140Y37660D03*
X40140Y38660D03*
X41140Y38660D03*
X43140Y37660D03*
X44140Y37660D03*
X43140Y38660D03*
X44140Y38660D03*
X48140Y37660D03*
X48140Y38660D03*
X46140Y37660D03*
X47140Y37660D03*
X47140Y38660D03*
X46140Y38660D03*
X49140Y37660D03*
X50140Y37660D03*
X50140Y38660D03*
X49140Y38660D03*
X25860Y37660D03*
X25860Y38660D03*
X19860Y38660D03*
X22860Y37660D03*
X22860Y38660D03*
X21860Y37660D03*
X20860Y37660D03*
X20860Y38660D03*
X21860Y38660D03*
X23860Y37660D03*
X24860Y37660D03*
X23860Y38660D03*
X24860Y38660D03*
X28860Y37660D03*
X28860Y38660D03*
X26860Y37660D03*
X27860Y37660D03*
X27860Y38660D03*
X26860Y38660D03*
X29860Y37660D03*
X30860Y37660D03*
X30860Y38660D03*
X29860Y38660D03*
X5140Y3540D03*
X4540Y5940D03*
X7340Y5940D03*
X1740Y5940D03*
X64740Y3540D03*
X68340Y3540D03*
X63140Y5940D03*
X65940Y5940D03*
X68540Y5940D03*
G54D25*
X39140Y37660D03*
X19860Y37660D03*
X4140Y3540D03*
X4540Y6940D03*
X7340Y6940D03*
X1740Y6940D03*
X63740Y3540D03*
X67340Y3540D03*
X63140Y6940D03*
X65940Y6940D03*
X68540Y6940D03*
G54D26*
X39036Y37556D02*
X39244Y37556D01*
X39244Y37764D01*
X39036Y37764D01*
X39036Y37556D01*D02*
X19756Y37556D02*
X19964Y37556D01*
X19964Y37764D01*
X19756Y37764D01*
X19756Y37556D01*D02*
X4036Y3436D02*
X4244Y3436D01*
X4244Y3644D01*
X4036Y3644D01*
X4036Y3436D01*D02*
X4436Y6836D02*
X4644Y6836D01*
X4644Y7044D01*
X4436Y7044D01*
X4436Y6836D01*D02*
X7236Y6836D02*
X7444Y6836D01*
X7444Y7044D01*
X7236Y7044D01*
X7236Y6836D01*D02*
X1636Y6836D02*
X1844Y6836D01*
X1844Y7044D01*
X1636Y7044D01*
X1636Y6836D01*D02*
X63636Y3436D02*
X63844Y3436D01*
X63844Y3644D01*
X63636Y3644D01*
X63636Y3436D01*D02*
X67236Y3436D02*
X67444Y3436D01*
X67444Y3644D01*
X67236Y3644D01*
X67236Y3436D01*D02*
X63036Y6836D02*
X63244Y6836D01*
X63244Y7044D01*
X63036Y7044D01*
X63036Y6836D01*D02*
X65836Y6836D02*
X66044Y6836D01*
X66044Y7044D01*
X65836Y7044D01*
X65836Y6836D01*D02*
X68436Y6836D02*
X68644Y6836D01*
X68644Y7044D01*
X68436Y7044D01*
X68436Y6836D01*D02*
G54D27*
X30300Y33800D03*
X33800Y32600D03*
X33182Y33818D03*
X33800Y8500D03*
X11300Y14300D03*
X12300Y14500D03*
X8800Y14100D03*
X8700Y14500D03*
X19800Y14500D03*
X18400Y15800D03*
X17800Y16100D03*
X19900Y16500D03*
X24200Y21900D03*
X5100Y15700D03*
X5500Y16100D03*
X22100Y5700D03*
X5100Y16400D03*
X21500Y5700D03*
X17900Y21600D03*
X18700Y21600D03*
X19900Y21600D03*
X10100Y28000D03*
X9700Y28500D03*
X62000Y8400D03*
X64200Y35100D03*
X66100Y35000D03*
X66000Y35500D03*
X43700Y5700D03*
X59200Y11100D03*
X66100Y34200D03*
X62700Y35400D03*
X42600Y35000D03*
X39800Y34900D03*
X38700Y34900D03*
X38500Y11700D03*
X39300Y11500D03*
X52600Y26900D03*
X64500Y20800D03*
X49300Y21000D03*
X59000Y19400D03*
X49800Y19400D03*
X12300Y32000D03*
X27400Y30400D03*
X11300Y6000D03*
X11500Y5700D03*
X11900Y5400D03*
X17600Y800D03*
X12200Y2400D03*
X16580Y920D03*
X12300Y5800D03*
X14100Y3300D03*
X13000Y2950D03*
X14100Y4700D03*
X13600Y4500D03*
X20500Y2600D03*
X19900Y2500D03*
X20500Y800D03*
X16488Y7000D03*
X13100Y10300D03*
X10600Y2400D03*
X12800Y10600D03*
X8600Y4700D03*
X19200Y2600D03*
X19200Y1000D03*
X12600Y800D03*
X28600Y31400D03*
X30800Y21200D03*
X32400Y20800D03*
X31600Y19800D03*
X32300Y21200D03*
X32300Y22600D03*
X7500Y400D03*
X20200Y2100D03*
X25100Y2100D03*
X32175Y2100D03*
X19800Y20700D03*
X10600Y20800D03*
X10100Y24100D03*
X11606Y800D03*
X17100Y2200D03*
X17900Y800D03*
X14000Y2100D03*
X31600Y35200D03*
X59000Y18600D03*
X9800Y23900D03*
X19700Y16800D03*
X16200Y16800D03*
X26300Y26900D03*
X21000Y27000D03*
X20800Y28300D03*
X17000Y28400D03*
X12500Y29400D03*
X18800Y28900D03*
X52100Y10600D03*
X61700Y11400D03*
X63200Y11400D03*
X66800Y26700D03*
X64400Y26700D03*
X52400Y22800D03*
X52400Y26400D03*
X50200Y20100D03*
X49400Y20100D03*
X63100Y35200D03*
X55800Y18600D03*
X26100Y1000D03*
X1300Y24099D03*
X2900Y24100D03*
X5300Y24100D03*
X45900Y1400D03*
X8700Y24100D03*
X46300Y5600D03*
X63800Y35500D03*
X64200Y38400D03*
X69400Y11100D03*
X69500Y14700D03*
X68600Y12100D03*
X68600Y14800D03*
X69200Y35500D03*
X45800Y2600D03*
X44100Y3600D03*
X63100Y29600D03*
X54100Y30300D03*
X50600Y23400D03*
X50600Y22500D03*
X58900Y19900D03*
X55000Y24800D03*
X50700Y24800D03*
X64600Y27000D03*
X66800Y27200D03*
X69000Y27000D03*
X49400Y1600D03*
X50800Y1600D03*
X16196Y8100D03*
X6700Y900D03*
X34700Y17500D03*
X37400Y19700D03*
X55000Y30600D03*
X29800Y21200D03*
X38800Y24800D03*
X38800Y23100D03*
X17700Y16500D03*
X57500Y22300D03*
X48300Y19800D03*
X45500Y20300D03*
X60100Y20700D03*
X57482Y17400D03*
X50739Y17361D03*
X32100Y30300D03*
X32400Y23100D03*
X33300Y12100D03*
X64400Y28300D03*
X28400Y30100D03*
X37300Y17500D03*
X37300Y20800D03*
X43400Y19400D03*
X24700Y19700D03*
X18300Y14500D03*
X52200Y11500D03*
X36100Y19700D03*
X36100Y21000D03*
X10199Y28499D03*
X6900Y27900D03*
X23200Y24700D03*
X23200Y29300D03*
X34700Y19900D03*
X64200Y24700D03*
X9500Y30300D03*
X31800Y29600D03*
X30800Y32600D03*
X66800Y37900D03*
X64400Y19700D03*
X66000Y19800D03*
X33600Y18500D03*
X33600Y21300D03*
X29700Y27400D03*
X29300Y31900D03*
X25200Y31800D03*
X60500Y22400D03*
X27500Y3200D03*
X28800Y6100D03*
X13000Y26500D03*
X51191Y21600D03*
X52700Y19900D03*
X50600Y20100D03*
X14600Y900D03*
X60800Y21100D03*
X60400Y20400D03*
X57600Y20700D03*
X57400Y19200D03*
X45700Y21300D03*
X50499Y22099D03*
X27900Y18000D03*
X55013Y27400D03*
X29500Y22100D03*
X41600Y19800D03*
X3300Y12400D03*
X3300Y11612D03*
X50100Y19100D03*
X64100Y23300D03*
X4000Y22400D03*
X6200Y22200D03*
X13600Y30500D03*
X3600Y27500D03*
X6700Y11500D03*
X13400Y26700D03*
X34000Y37100D03*
X51000Y20200D03*
X59300Y20700D03*
X46400Y14500D03*
X14268Y37000D03*
X42300Y18100D03*
X50200Y21100D03*
X7700Y29200D03*
X6200Y27300D03*
X18800Y37700D03*
X7600Y25700D03*
X10500Y36800D03*
X21600Y35800D03*
X6300Y18900D03*
X6100Y11700D03*
X31900Y3000D03*
X49100Y3400D03*
X30800Y3400D03*
X6400Y14700D03*
X37900Y33400D03*
X64000Y34700D03*
X23200Y33600D03*
X27900Y33600D03*
X9200Y29400D03*
X50200Y8700D03*
X42800Y700D03*
X20600Y7200D03*
X25200Y2700D03*
X39000Y2800D03*
X18500Y18900D03*
X44300Y2900D03*
X66400Y16100D03*
X58600Y30900D03*
X61900Y36800D03*
X18400Y1700D03*
X59200Y32400D03*
X29400Y34100D03*
X19700Y28800D03*
X11600Y38600D03*
X15500Y28000D03*
X17600Y29600D03*
X23300Y2400D03*
X30500Y34800D03*
X40800Y34100D03*
X31200Y6600D03*
X8300Y15200D03*
X46300Y32000D03*
X19300Y27800D03*
X64400Y34100D03*
X46500Y33100D03*
X56800Y26000D03*
X7700Y28900D03*
X17600Y27400D03*
X45200Y1500D03*
X3300Y3000D03*
X51700Y23400D03*
X56400Y31400D03*
X37200Y1800D03*
X2400Y24800D03*
X7700Y29600D03*
X11300Y38000D03*
X53400Y27000D03*
X50200Y23500D03*
X18800Y29500D03*
X36200Y36700D03*
X36200Y31100D03*
X33000Y300D03*
X15900Y28900D03*
X35400Y31200D03*
X35200Y33000D03*
X28400Y5400D03*
X42500Y35600D03*
X27600Y34900D03*
X4900Y29300D03*
X53800Y17800D03*
X53700Y34000D03*
X27000Y35100D03*
X30800Y34200D03*
X32200Y34200D03*
X43900Y32900D03*
X2500Y12500D03*
X19600Y23800D03*
X57100Y26100D03*
X7000Y27300D03*
X22500Y34700D03*
X11000Y39300D03*
X38200Y6200D03*
X47400Y6000D03*
X18700Y7000D03*
X25500Y2400D03*
X43400Y3200D03*
X16600Y27700D03*
X13400Y9700D03*
X32800Y1400D03*
X13800Y27200D03*
X26700Y39700D03*
X47200Y30800D03*
X65500Y24000D03*
X63300Y30600D03*
X51300Y32000D03*
X34700Y31600D03*
X32300Y31100D03*
X55900Y9000D03*
X57400Y4200D03*
X49500Y8400D03*
X49800Y4100D03*
X23100Y15400D03*
X28050Y24100D03*
X6600Y23600D03*
X51000Y29900D03*
X53000Y28800D03*
X53000Y15600D03*
X51100Y11200D03*
X30600Y32900D03*
X5700Y32800D03*
X12200Y36200D03*
X7000Y32600D03*
X5400Y24800D03*
X7300Y25900D03*
X6000Y19500D03*
X7100Y19300D03*
X54400Y12400D03*
X44800Y5800D03*
X44900Y1400D03*
X64500Y20200D03*
X5900Y34600D03*
X31900Y11800D03*
X30300Y11500D03*
X52800Y28400D03*
X8800Y34400D03*
X54200Y12800D03*
X54200Y26900D03*
X47800Y30800D03*
X12200Y33200D03*
X37500Y11600D03*
X36600Y29300D03*
X32300Y30600D03*
X30200Y31000D03*
X32500Y700D03*
X21100Y2700D03*
X14400Y9700D03*
X11200Y11800D03*
X5200Y11000D03*
X1500Y27300D03*
X1600Y29000D03*
X37800Y5000D03*
X34800Y30300D03*
X30300Y30400D03*
X41000Y28200D03*
X33600Y10400D03*
X36000Y18600D03*
X33200Y17500D03*
X28000Y500D03*
X19800Y6100D03*
X11900Y30300D03*
X10500Y28200D03*
X16300Y14600D03*
X18700Y8600D03*
X28500Y26600D03*
X54500Y32000D03*
X54200Y27400D03*
X64700Y27500D03*
X53600Y16000D03*
X34400Y9600D03*
X34300Y9900D03*
X18100Y24700D03*
X19900Y10400D03*
X22800Y4300D03*
X31800Y18600D03*
X65550Y21300D03*
X13000Y29200D03*
X34400Y500D03*
X34200Y5600D03*
X34600Y5600D03*
X33600Y17900D03*
X1400Y11300D03*
X1400Y24600D03*
X1400Y23700D03*
X1400Y25800D03*
X1700Y26600D03*
X10500Y27500D03*
X10100Y30300D03*
X28100Y2300D03*
X26300Y1400D03*
X22800Y1600D03*
X34000Y11900D03*
X25900Y6300D03*
X38300Y13100D03*
X38300Y34500D03*
X39300Y34500D03*
X14900Y6700D03*
X14882Y7360D03*
X42700Y34700D03*
X4900Y15300D03*
X31700Y9700D03*
X32700Y10100D03*
X34200Y8700D03*
X10700Y22100D03*
X13300Y5100D03*
X16100Y2400D03*
X32900Y11600D03*
X17700Y12500D03*
X6900Y28950D03*
X9000Y21500D03*
X14100Y26200D03*
X46700Y2700D03*
X61800Y22700D03*
X3300Y26000D03*
X26700Y1800D03*
X26500Y3200D03*
X6875Y31600D03*
X7500Y30400D03*
X7100Y30300D03*
X66000Y33200D03*
X64900Y23500D03*
X53500Y36900D03*
X37000Y28400D03*
X32700Y28600D03*
X31900Y31600D03*
X31900Y33600D03*
X33100Y35200D03*
X34600Y34900D03*
X30300Y31500D03*
X33500Y30900D03*
X35800Y30900D03*
X33600Y22400D03*
X35800Y18900D03*
X33400Y19700D03*
X64700Y27900D03*
X33200Y17100D03*
X65900Y27700D03*
X68100Y27300D03*
X67100Y17300D03*
X64500Y17300D03*
X62500Y15000D03*
X62500Y16400D03*
X58600Y16400D03*
X51700Y29300D03*
X49500Y26900D03*
X41800Y26800D03*
X33500Y31300D03*
X7600Y35500D03*
X18100Y15900D03*
X20000Y16100D03*
X9400Y14300D03*
X38700Y36300D03*
X20100Y29600D03*
X10500Y14100D03*
X18400Y14100D03*
X19800Y14100D03*
X20600Y26200D03*
X18700Y25400D03*
X24100Y26800D03*
X21300Y26700D03*
X22700Y28600D03*
X13900Y25300D03*
X29700Y34200D03*
X29000Y32000D03*
X50909Y22091D03*
X63300Y22150D03*
X44900Y24200D03*
X7700Y11200D03*
X31500Y11100D03*
X38200Y8500D03*
X36400Y11000D03*
X38200Y11000D03*
X31500Y13700D03*
X66100Y33700D03*
X30400Y36400D03*
X31500Y3100D03*
X32000Y36100D03*
X66200Y18075D03*
X46600Y19900D03*
X33400Y15400D03*
X63800Y16600D03*
X66000Y23400D03*
X66000Y19300D03*
X63900Y19300D03*
X61800Y24800D03*
X60800Y24900D03*
X61800Y30500D03*
X34000Y35100D03*
X34000Y14200D03*
X13000Y27100D03*
X60800Y21700D03*
X52100Y34000D03*
X14850Y36800D03*
X52200Y20000D03*
X14500Y27800D03*
X58400Y20200D03*
X52400Y12800D03*
X50500Y12600D03*
X15200Y36161D03*
X14400Y26700D03*
X28200Y36300D03*
X32900Y36100D03*
X32500Y33700D03*
X33200Y8200D03*
X33200Y6200D03*
X31100Y8200D03*
X36600Y6200D03*
X56300Y10600D03*
X56300Y21800D03*
X59700Y22400D03*
X18500Y36000D03*
X6800Y31200D03*
X7500Y32200D03*
X3600Y30300D03*
X15800Y6800D03*
X51823Y34400D03*
X60500Y25300D03*
X61400Y25100D03*
X61000Y31400D03*
X61825Y31200D03*
X60300Y32600D03*
X17300Y36800D03*
X57358Y36642D03*
X17300Y38800D03*
X18200Y38800D03*
X65900Y12200D03*
X53900Y15500D03*
X60200Y17400D03*
X56500Y17800D03*
X60205Y18700D03*
X63000Y25200D03*
X13500Y36500D03*
X59500Y6000D03*
X60300Y5900D03*
X58600Y7000D03*
X63200Y9800D03*
X63300Y12130D03*
X64800Y12200D03*
X4900Y12000D03*
X5100Y11500D03*
X3900Y12200D03*
X2200Y19800D03*
X3100Y19500D03*
X5700Y19800D03*
X6300Y20000D03*
X6600Y26900D03*
X7700Y27600D03*
X7300Y31300D03*
X7800Y32800D03*
X7600Y33600D03*
X13500Y37000D03*
X13600Y800D03*
X17000Y6800D03*
X9000Y10100D03*
X17000Y10200D03*
X6600Y25900D03*
X15200Y2100D03*
X6400Y8700D03*
X9800Y8800D03*
X55800Y15500D03*
X60800Y18600D03*
X60900Y12700D03*
X13700Y5500D03*
X14400Y6100D03*
X15200Y3200D03*
X64100Y15300D03*
X65200Y18000D03*
X42700Y5900D03*
X65200Y21800D03*
X25700Y5400D03*
X64900Y25100D03*
X20800Y5700D03*
X19700Y5700D03*
X14600Y10200D03*
X5200Y10600D03*
X2100Y10900D03*
X14400Y37700D03*
X15500Y37643D03*
X17100Y37600D03*
X10000Y38600D03*
X64100Y31300D03*
X58500Y23900D03*
X29100Y26700D03*
X28800Y27400D03*
X22200Y35800D03*
X19300Y30000D03*
X14500Y29000D03*
X27200Y34500D03*
X27200Y31900D03*
X26700Y31900D03*
X34700Y28500D03*
X34700Y32200D03*
X34600Y34500D03*
X34700Y24600D03*
X52100Y24400D03*
X52200Y26900D03*
X27600Y32200D03*
X27600Y34500D03*
X37500Y26500D03*
X30100Y34500D03*
X37400Y34500D03*
X32800Y34500D03*
X35300Y27200D03*
X34300Y34000D03*
X34800Y27700D03*
X34296Y10904D03*
X49600Y25300D03*
X58000Y25200D03*
X52400Y21600D03*
X63500Y23100D03*
X27200Y21400D03*
X19800Y22200D03*
X61700Y34800D03*
X20000Y24800D03*
X62200Y8900D03*
X58100Y36600D03*
X58100Y30200D03*
X63500Y30300D03*
X59400Y5000D03*
X62100Y8000D03*
X22000Y13800D03*
X18100Y17500D03*
X10500Y30500D03*
X59700Y7100D03*
X55000Y12100D03*
X61900Y7800D03*
X57700Y25000D03*
X58000Y27050D03*
X67000Y19300D03*
X66000Y12700D03*
X60800Y10200D03*
X57400Y24600D03*
X66800Y33200D03*
X66200Y24800D03*
X67100Y22500D03*
X28600Y22100D03*
X61500Y34600D03*
X18900Y11800D03*
X8800Y23400D03*
X30900Y25300D03*
X6300Y20900D03*
X3800Y20300D03*
X42300Y26600D03*
X8000Y31000D03*
X11900Y29600D03*
X7600Y24900D03*
X7600Y18700D03*
X7200Y12200D03*
X10800Y6900D03*
X7600Y30800D03*
X13097Y30797D03*
X7500Y25400D03*
X7400Y18900D03*
X7000Y12000D03*
X10600Y8000D03*
X18400Y23200D03*
X64800Y20600D03*
X5300Y12000D03*
X10400Y8400D03*
X16900Y17500D03*
X10000Y23200D03*
X65000Y19800D03*
X19600Y22400D03*
X55400Y31300D03*
X55400Y33900D03*
X5600Y18500D03*
X5600Y23600D03*
X10700Y38300D03*
X12100Y10000D03*
X20700Y24900D03*
X61300Y33800D03*
X10300Y8100D03*
X4700Y9200D03*
X2600Y30700D03*
X3200Y30300D03*
X6000Y36400D03*
X38000Y36600D03*
X19100Y29700D03*
X63400Y31000D03*
X63200Y22600D03*
X58900Y25400D03*
X25600Y34500D03*
X26700Y34500D03*
X56000Y24000D03*
X26900Y34300D03*
X55900Y23100D03*
X29900Y33000D03*
X13000Y33300D03*
X8800Y35000D03*
X55700Y20700D03*
X25800Y34300D03*
X54800Y19000D03*
X34600Y19200D03*
X28000Y34300D03*
X54700Y16500D03*
X54500Y14700D03*
X10700Y21600D03*
X10500Y33600D03*
X51400Y13100D03*
X62400Y12800D03*
X17600Y22200D03*
X31900Y9300D03*
X62700Y12800D03*
X17800Y22000D03*
X29600Y8200D03*
X62400Y14000D03*
X16900Y22000D03*
X30500Y27200D03*
X62600Y23800D03*
X63100Y14000D03*
X20200Y22200D03*
X30900Y24600D03*
X61600Y24000D03*
X65600Y17738D03*
X27200Y22900D03*
X30900Y23900D03*
X62800Y17600D03*
X23100Y17900D03*
X29900Y19900D03*
X40600Y21100D03*
X54800Y18700D03*
X62900Y17000D03*
X63600Y15700D03*
X26700Y18900D03*
X63100Y17600D03*
X20400Y17900D03*
X23800Y18600D03*
X46400Y18100D03*
X63600Y17400D03*
X20200Y17700D03*
X19000Y19400D03*
X63900Y16300D03*
X16900Y19300D03*
X50000Y14100D03*
X65500Y16400D03*
X16900Y19600D03*
X66100Y16100D03*
X18100Y18300D03*
X31200Y8900D03*
X62100Y7400D03*
X67200Y15900D03*
X14800Y18400D03*
X31900Y7000D03*
X63400Y10800D03*
X67100Y15600D03*
X19200Y19700D03*
X29300Y24900D03*
X61400Y24200D03*
X19400Y19500D03*
X67600Y18800D03*
X19600Y19700D03*
X26700Y20600D03*
X30900Y20100D03*
X67100Y17700D03*
X67700Y14600D03*
X25200Y19200D03*
X30900Y19400D03*
X67700Y18500D03*
X24000Y18400D03*
X36100Y17900D03*
X52300Y14000D03*
X67800Y14200D03*
X24600Y14200D03*
X29300Y16100D03*
X67500Y14100D03*
X20000Y13300D03*
X28300Y13500D03*
X45200Y13600D03*
X51300Y6800D03*
X19600Y12000D03*
X31000Y11300D03*
X51100Y7400D03*
X19600Y11000D03*
X29600Y10400D03*
X19500Y9500D03*
X31700Y9100D03*
X56800Y8300D03*
X66700Y13000D03*
X61300Y7000D03*
X64100Y19000D03*
X63300Y25800D03*
X64800Y32200D03*
X54800Y10300D03*
X60800Y7200D03*
X66400Y13000D03*
X63500Y18100D03*
X63900Y25600D03*
X66400Y30300D03*
X66100Y36200D03*
X56900Y27200D03*
X62900Y25800D03*
X54900Y9000D03*
X60300Y7200D03*
X66000Y13000D03*
X62600Y18900D03*
X62800Y25500D03*
X62900Y32000D03*
X57400Y28200D03*
X58700Y23000D03*
X62900Y19000D03*
X63200Y31900D03*
X58000Y9500D03*
X57800Y9300D03*
X56100Y9700D03*
X55700Y2600D03*
X59200Y9900D03*
X56300Y9900D03*
X55500Y2400D03*
X60000Y10200D03*
X56400Y10200D03*
X60400Y10200D03*
X56600Y10400D03*
X61000Y10400D03*
X62000Y9500D03*
X61800Y9100D03*
X23600Y26900D03*
X26075Y6925D03*
X28800Y6800D03*
X9300Y32500D03*
X7100Y25100D03*
X7100Y32000D03*
X6000Y10039D03*
X9183Y26017D03*
X4900Y13200D03*
X7100Y33400D03*
X7300Y26800D03*
X3900Y11600D03*
X8677Y19900D03*
X9077Y19500D03*
X10300Y9500D03*
X6400Y18500D03*
X10100Y5800D03*
X47800Y26700D03*
X45100Y26800D03*
X50700Y7100D03*
X50800Y4800D03*
X37200Y7200D03*
X63300Y27200D03*
X61300Y25400D03*
X61449Y18600D03*
X61800Y31600D03*
X62800Y34000D03*
X63249Y20000D03*
X64100Y29500D03*
X64800Y12800D03*
X60912Y8300D03*
X65900Y14500D03*
X66300Y12100D03*
X61500Y5900D03*
X52000Y7100D03*
X53400Y13800D03*
X61500Y4300D03*
X54000Y34600D03*
X54200Y2500D03*
X52100Y2600D03*
X56300Y2400D03*
X66100Y36800D03*
X65800Y30300D03*
X55600Y18900D03*
X18800Y7400D03*
X17200Y8600D03*
X18200Y37800D03*
X17958Y3600D03*
X16000Y3300D03*
X13800Y2500D03*
X15400Y2422D03*
X18400Y2700D03*
X65900Y5900D03*
X64800Y5900D03*
X4000Y23800D03*
X12300Y37100D03*
X12300Y31100D03*
X2200Y18200D03*
X52700Y13850D03*
X51300Y34300D03*
X51200Y26600D03*
X58500Y38452D03*
X60700Y38400D03*
X63700Y38400D03*
X64300Y37400D03*
X13493Y37700D03*
X10500Y37900D03*
X7600Y38000D03*
X39300Y26700D03*
X28400Y28600D03*
X25800Y27100D03*
X16400Y5700D03*
X16900Y9200D03*
X54200Y5800D03*
G54D28*
X15493Y3355D03*
X16398Y3355D03*
X17304Y3355D03*
X53293Y3355D03*
X54198Y3355D03*
X55104Y3355D03*
G54D29*
X16398Y5639D03*
X54198Y5639D03*

M02*
