G04 Generated by Ultiboard 14.1 *
%FSLAX24Y24*%
%MOIN*%

%ADD10C,0.0001*%
%ADD11C,0.0098*%
%ADD12C,0.0001*%
%ADD13C,0.0050*%
%ADD14R,0.0098X0.0197*%
%ADD15R,0.0197X0.0098*%
%ADD16R,0.0118X0.0315*%
%ADD17R,0.0315X0.0118*%
%ADD18R,0.0667X0.0967*%
%ADD19C,0.0233*%
%ADD20R,0.0374X0.0846*%
%ADD21R,0.1280X0.0846*%


G04 ColorRGB 009966 for the following layer *
%LNPaste Mask Bottom*%
%LPD*%
G54D10*
G54D11*
G36*
X66475Y14900D02*
X66475Y14900D01*
X66335Y15039D01*
X65379Y15039D01*
X65379Y13943D01*
X66475Y13943D01*
X66475Y14900D01*
D02*
G37*
X66335Y15039D01*
X65379Y15039D01*
X65379Y13943D01*
X66475Y13943D01*
X66475Y14900D01*
G36*
X63149Y20906D02*
X63149Y20906D01*
X63010Y21045D01*
X62054Y21045D01*
X62054Y19949D01*
X63149Y19949D01*
X63149Y20906D01*
D02*
G37*
X63010Y21045D01*
X62054Y21045D01*
X62054Y19949D01*
X63149Y19949D01*
X63149Y20906D01*
G36*
X5748Y13962D02*
X5748Y13962D01*
X5608Y14101D01*
X4652Y14101D01*
X4652Y13005D01*
X5748Y13005D01*
X5748Y13962D01*
D02*
G37*
X5608Y14101D01*
X4652Y14101D01*
X4652Y13005D01*
X5748Y13005D01*
X5748Y13962D01*
G36*
X9762Y31949D02*
X9762Y31949D01*
X9901Y32089D01*
X9901Y33045D01*
X8805Y33045D01*
X8805Y31949D01*
X9762Y31949D01*
D02*
G37*
X9901Y32089D01*
X9901Y33045D01*
X8805Y33045D01*
X8805Y31949D01*
X9762Y31949D01*
G36*
X63354Y33906D02*
X63354Y33906D01*
X63214Y34045D01*
X62258Y34045D01*
X62258Y32949D01*
X63354Y32949D01*
X63354Y33906D01*
D02*
G37*
X63214Y34045D01*
X62258Y34045D01*
X62258Y32949D01*
X63354Y32949D01*
X63354Y33906D01*
G36*
X12562Y7925D02*
X12562Y7925D01*
X12701Y8065D01*
X12701Y9021D01*
X11605Y9021D01*
X11605Y7925D01*
X12562Y7925D01*
D02*
G37*
X12701Y8065D01*
X12701Y9021D01*
X11605Y9021D01*
X11605Y7925D01*
X12562Y7925D01*
G36*
X9562Y25452D02*
X9562Y25452D01*
X9701Y25592D01*
X9701Y26548D01*
X8605Y26548D01*
X8605Y25452D01*
X9562Y25452D01*
D02*
G37*
X9701Y25592D01*
X9701Y26548D01*
X8605Y26548D01*
X8605Y25452D01*
X9562Y25452D01*
G36*
X63143Y27700D02*
X63143Y27700D01*
X63004Y27839D01*
X62048Y27839D01*
X62048Y26743D01*
X63143Y26743D01*
X63143Y27700D01*
D02*
G37*
X63004Y27839D01*
X62048Y27839D01*
X62048Y26743D01*
X63143Y26743D01*
X63143Y27700D01*
G36*
X60875Y9106D02*
X60875Y9106D01*
X60735Y9245D01*
X59779Y9245D01*
X59779Y8149D01*
X60875Y8149D01*
X60875Y9106D01*
D02*
G37*
X60735Y9245D01*
X59779Y9245D01*
X59779Y8149D01*
X60875Y8149D01*
X60875Y9106D01*
G36*
X9562Y18852D02*
X9562Y18852D01*
X9701Y18992D01*
X9701Y19948D01*
X8605Y19948D01*
X8605Y18852D01*
X9562Y18852D01*
D02*
G37*
X9701Y18992D01*
X9701Y19948D01*
X8605Y19948D01*
X8605Y18852D01*
X9562Y18852D01*
G54D12*
G36*
X66793Y15218D02*
X66793Y15218D01*
X66654Y15357D01*
X65061Y15357D01*
X65061Y13625D01*
X66793Y13625D01*
X66793Y15218D01*
D02*
G37*
X66654Y15357D01*
X65061Y15357D01*
X65061Y13625D01*
X66793Y13625D01*
X66793Y15218D01*
G36*
X63468Y21224D02*
X63468Y21224D01*
X63328Y21363D01*
X61735Y21363D01*
X61735Y19631D01*
X63468Y19631D01*
X63468Y21224D01*
D02*
G37*
X63328Y21363D01*
X61735Y21363D01*
X61735Y19631D01*
X63468Y19631D01*
X63468Y21224D01*
G36*
X6066Y14280D02*
X6066Y14280D01*
X5927Y14419D01*
X4334Y14419D01*
X4334Y12687D01*
X6066Y12687D01*
X6066Y14280D01*
D02*
G37*
X5927Y14419D01*
X4334Y14419D01*
X4334Y12687D01*
X6066Y12687D01*
X6066Y14280D01*
G36*
X10080Y31631D02*
X10080Y31631D01*
X10219Y31770D01*
X10219Y33363D01*
X8487Y33363D01*
X8487Y31631D01*
X10080Y31631D01*
D02*
G37*
X10219Y31770D01*
X10219Y33363D01*
X8487Y33363D01*
X8487Y31631D01*
X10080Y31631D01*
G36*
X63672Y34224D02*
X63672Y34224D01*
X63533Y34363D01*
X61940Y34363D01*
X61940Y32631D01*
X63672Y32631D01*
X63672Y34224D01*
D02*
G37*
X63533Y34363D01*
X61940Y34363D01*
X61940Y32631D01*
X63672Y32631D01*
X63672Y34224D01*
G36*
X12880Y7607D02*
X12880Y7607D01*
X13019Y7746D01*
X13019Y9339D01*
X11287Y9339D01*
X11287Y7607D01*
X12880Y7607D01*
D02*
G37*
X13019Y7746D01*
X13019Y9339D01*
X11287Y9339D01*
X11287Y7607D01*
X12880Y7607D01*
G36*
X9880Y25134D02*
X9880Y25134D01*
X10019Y25273D01*
X10019Y26866D01*
X8287Y26866D01*
X8287Y25134D01*
X9880Y25134D01*
D02*
G37*
X10019Y25273D01*
X10019Y26866D01*
X8287Y26866D01*
X8287Y25134D01*
X9880Y25134D01*
G36*
X63462Y28018D02*
X63462Y28018D01*
X63322Y28157D01*
X61729Y28157D01*
X61729Y26425D01*
X63462Y26425D01*
X63462Y28018D01*
D02*
G37*
X63322Y28157D01*
X61729Y28157D01*
X61729Y26425D01*
X63462Y26425D01*
X63462Y28018D01*
G36*
X61193Y9424D02*
X61193Y9424D01*
X61054Y9563D01*
X59461Y9563D01*
X59461Y7831D01*
X61193Y7831D01*
X61193Y9424D01*
D02*
G37*
X61054Y9563D01*
X59461Y9563D01*
X59461Y7831D01*
X61193Y7831D01*
X61193Y9424D01*
G36*
X9880Y18534D02*
X9880Y18534D01*
X10019Y18673D01*
X10019Y20266D01*
X8287Y20266D01*
X8287Y18534D01*
X9880Y18534D01*
D02*
G37*
X10019Y18673D01*
X10019Y20266D01*
X8287Y20266D01*
X8287Y18534D01*
X9880Y18534D01*
G54D13*
X-100Y-100D02*
X-100Y3920D01*
X-100Y-100D02*
X6920Y-100D01*
X70100Y-100D02*
X63080Y-100D01*
X70100Y-100D02*
X70100Y3920D01*
X70100Y40100D02*
X70100Y36080D01*
X70100Y40100D02*
X63080Y40100D01*
X-100Y40100D02*
X6920Y40100D01*
X-100Y40100D02*
X-100Y36080D01*
X-2069Y-100D02*
X-6006Y-100D01*
X-4037Y-2069D02*
X-4037Y1869D01*
X-5513Y-100D02*
G75*
D01*
G02X-5513Y-100I1476J0*
G01*
X72069Y-100D02*
X76006Y-100D01*
X74037Y-2069D02*
X74037Y1869D01*
X72561Y-100D02*
G75*
D01*
G02X72561Y-100I1476J0*
G01*
X73545Y-100D02*
G75*
D01*
G02X73545Y-100I492J0*
G01*
X-2069Y40100D02*
X-6006Y40100D01*
X-4037Y38131D02*
X-4037Y42069D01*
X-5513Y40100D02*
G75*
D01*
G02X-5513Y40100I1476J0*
G01*
X-5021Y40100D02*
G75*
D01*
G02X-5021Y40100I984J0*
G01*
X-4529Y40100D02*
G75*
D01*
G02X-4529Y40100I492J0*
G01*
G54D14*
X57749Y37198D03*
X58045Y37198D03*
X61045Y37198D03*
X60749Y37198D03*
X64045Y37198D03*
X63749Y37198D03*
X60749Y37948D03*
X61045Y37948D03*
X63749Y37948D03*
X64045Y37948D03*
X57749Y37948D03*
X58045Y37948D03*
X62561Y12497D03*
X62857Y12497D03*
X62857Y13097D03*
X62561Y13097D03*
X62857Y13697D03*
X62561Y13697D03*
X62857Y14297D03*
X62561Y14297D03*
X68355Y13794D03*
X68651Y13794D03*
X6949Y37198D03*
X7245Y37198D03*
X10245Y37198D03*
X9949Y37198D03*
X12949Y37198D03*
X13245Y37198D03*
X6949Y37948D03*
X7245Y37948D03*
X9949Y37948D03*
X10245Y37948D03*
X12949Y37948D03*
X13245Y37948D03*
X59253Y19800D03*
X59548Y19800D03*
X59253Y20400D03*
X59548Y20400D03*
X59253Y19200D03*
X59548Y19200D03*
X65251Y19297D03*
X64955Y19297D03*
X59253Y18697D03*
X59548Y18697D03*
X2379Y13353D03*
X2675Y13353D03*
X2379Y12800D03*
X2675Y12800D03*
X2379Y12200D03*
X2675Y12200D03*
X2379Y11600D03*
X2675Y11600D03*
X4748Y11353D03*
X4452Y11353D03*
X5948Y11353D03*
X5652Y11353D03*
X7651Y12600D03*
X7355Y12600D03*
X65251Y32800D03*
X64955Y32800D03*
X59631Y33400D03*
X59927Y33400D03*
X59631Y32297D03*
X59927Y32297D03*
X59631Y32800D03*
X59927Y32800D03*
X59631Y31800D03*
X59927Y31800D03*
X59355Y25400D03*
X59651Y25400D03*
X59355Y26000D03*
X59651Y26000D03*
X64755Y26600D03*
X65051Y26600D03*
X59355Y26600D03*
X59651Y26600D03*
X59355Y27200D03*
X59651Y27200D03*
X56779Y8600D03*
X57075Y8600D03*
X56779Y8000D03*
X57075Y8000D03*
X56779Y7400D03*
X57075Y7400D03*
X56779Y6800D03*
X57075Y6800D03*
X7101Y20000D03*
X6805Y20000D03*
G54D15*
X66309Y12349D03*
X66309Y12645D03*
X65109Y12645D03*
X65109Y12349D03*
X63202Y18845D03*
X63202Y18549D03*
X62103Y18549D03*
X62103Y18845D03*
X9153Y34749D03*
X9153Y35045D03*
X7953Y34749D03*
X7953Y35045D03*
X8553Y34749D03*
X8553Y35045D03*
X8553Y30445D03*
X8553Y30149D03*
X7355Y31652D03*
X7355Y31948D03*
X7355Y33198D03*
X7355Y32902D03*
X7353Y34749D03*
X7353Y35045D03*
X63406Y31645D03*
X63406Y31349D03*
X62206Y31349D03*
X62206Y31645D03*
X18398Y2445D03*
X18398Y2149D03*
X12000Y10646D03*
X12000Y10942D03*
X9977Y7846D03*
X9977Y8142D03*
X9977Y9445D03*
X9977Y9149D03*
X10400Y10646D03*
X10400Y10942D03*
X11200Y10646D03*
X11200Y10942D03*
X9600Y10646D03*
X9600Y10942D03*
X6953Y25452D03*
X6953Y25748D03*
X6953Y26452D03*
X6953Y26748D03*
X8952Y28645D03*
X8952Y28349D03*
X8352Y28645D03*
X8352Y28349D03*
X7752Y28349D03*
X7752Y28645D03*
X8352Y23749D03*
X8352Y24045D03*
X7152Y28645D03*
X7152Y28349D03*
X62097Y25149D03*
X62097Y25445D03*
X14798Y2445D03*
X14798Y2149D03*
X60951Y6845D03*
X60951Y6549D03*
X59200Y6948D03*
X59200Y6652D03*
X52600Y2348D03*
X52600Y2052D03*
X56000Y2348D03*
X56000Y2052D03*
X63600Y24948D03*
X63600Y24652D03*
X8355Y17245D03*
X8355Y16949D03*
X9155Y22045D03*
X9155Y21749D03*
X6953Y18652D03*
X6953Y18948D03*
X7555Y22045D03*
X7555Y21749D03*
X8355Y22045D03*
X8355Y21749D03*
X6755Y22045D03*
X6755Y21749D03*
G54D16*
X65041Y13310D03*
X65435Y13310D03*
X65238Y13310D03*
X65631Y13310D03*
X65828Y13310D03*
X66222Y13310D03*
X66025Y13310D03*
X66419Y13310D03*
X66616Y13310D03*
X66813Y13310D03*
X65041Y15672D03*
X65435Y15672D03*
X65238Y15672D03*
X65631Y15672D03*
X65828Y15672D03*
X66222Y15672D03*
X66025Y15672D03*
X66419Y15672D03*
X66616Y15672D03*
X66813Y15672D03*
X62109Y19316D03*
X61716Y19316D03*
X61913Y19316D03*
X62897Y19316D03*
X62306Y19316D03*
X62503Y19316D03*
X62700Y19316D03*
X63094Y19316D03*
X63291Y19316D03*
X63487Y19316D03*
X62109Y21678D03*
X61716Y21678D03*
X61913Y21678D03*
X62897Y21678D03*
X62306Y21678D03*
X62503Y21678D03*
X62700Y21678D03*
X63094Y21678D03*
X63291Y21678D03*
X63487Y21678D03*
X6086Y12372D03*
X6086Y14734D03*
X5298Y12372D03*
X5692Y12372D03*
X5889Y12372D03*
X5495Y12372D03*
X5298Y14734D03*
X5692Y14734D03*
X5889Y14734D03*
X5495Y14734D03*
X4511Y12372D03*
X4905Y12372D03*
X5102Y12372D03*
X4708Y12372D03*
X4511Y14734D03*
X4905Y14734D03*
X5102Y14734D03*
X4708Y14734D03*
X4314Y12372D03*
X4314Y14734D03*
X8467Y31316D03*
X8664Y31316D03*
X9058Y31316D03*
X9255Y31316D03*
X8861Y31316D03*
X9452Y31316D03*
X9845Y31316D03*
X10042Y31316D03*
X9648Y31316D03*
X10239Y31316D03*
X8467Y33678D03*
X8664Y33678D03*
X9058Y33678D03*
X9255Y33678D03*
X8861Y33678D03*
X9452Y33678D03*
X9845Y33678D03*
X10042Y33678D03*
X9648Y33678D03*
X10239Y33678D03*
X61920Y32316D03*
X62117Y32316D03*
X62314Y32316D03*
X62511Y32316D03*
X62708Y32316D03*
X62904Y32316D03*
X63101Y32316D03*
X63298Y32316D03*
X63495Y32316D03*
X63692Y32316D03*
X61920Y34678D03*
X62117Y34678D03*
X62314Y34678D03*
X62511Y34678D03*
X62708Y34678D03*
X62904Y34678D03*
X63101Y34678D03*
X63298Y34678D03*
X63495Y34678D03*
X63692Y34678D03*
X11858Y7292D03*
X11661Y7292D03*
X11464Y7292D03*
X11267Y7292D03*
X12645Y7292D03*
X12448Y7292D03*
X12055Y7292D03*
X12252Y7292D03*
X13039Y7292D03*
X12842Y7292D03*
X11858Y9654D03*
X11661Y9654D03*
X11267Y9654D03*
X11464Y9654D03*
X12645Y9654D03*
X12448Y9654D03*
X12055Y9654D03*
X12252Y9654D03*
X12842Y9654D03*
X13039Y9654D03*
X8661Y24819D03*
X8267Y24819D03*
X8464Y24819D03*
X9448Y24819D03*
X8858Y24819D03*
X9055Y24819D03*
X9252Y24819D03*
X9645Y24819D03*
X9842Y24819D03*
X10039Y24819D03*
X8661Y27181D03*
X8267Y27181D03*
X8464Y27181D03*
X9448Y27181D03*
X8858Y27181D03*
X9055Y27181D03*
X9252Y27181D03*
X9645Y27181D03*
X9842Y27181D03*
X10039Y27181D03*
X61710Y26110D03*
X61907Y26110D03*
X62103Y26110D03*
X62300Y26110D03*
X62497Y26110D03*
X62694Y26110D03*
X62891Y26110D03*
X63088Y26110D03*
X63285Y26110D03*
X63481Y26110D03*
X61710Y28472D03*
X61907Y28472D03*
X62103Y28472D03*
X62300Y28472D03*
X62497Y28472D03*
X62694Y28472D03*
X62891Y28472D03*
X63088Y28472D03*
X63285Y28472D03*
X63481Y28472D03*
X59835Y7516D03*
X59441Y7516D03*
X59638Y7516D03*
X60622Y7516D03*
X60031Y7516D03*
X60228Y7516D03*
X60425Y7516D03*
X60819Y7516D03*
X61016Y7516D03*
X61213Y7516D03*
X59835Y9878D03*
X59441Y9878D03*
X59638Y9878D03*
X60622Y9878D03*
X60031Y9878D03*
X60228Y9878D03*
X60425Y9878D03*
X60819Y9878D03*
X61016Y9878D03*
X61213Y9878D03*
X8661Y18219D03*
X8464Y18219D03*
X8267Y18219D03*
X8858Y18219D03*
X9448Y18219D03*
X9055Y18219D03*
X9252Y18219D03*
X9645Y18219D03*
X10039Y18219D03*
X9842Y18219D03*
X8661Y20581D03*
X8267Y20581D03*
X8464Y20581D03*
X8858Y20581D03*
X9448Y20581D03*
X9055Y20581D03*
X9252Y20581D03*
X9645Y20581D03*
X9842Y20581D03*
X10039Y20581D03*
G54D17*
X64746Y13605D03*
X64746Y13802D03*
X64746Y13999D03*
X64746Y14196D03*
X67108Y13605D03*
X67108Y13802D03*
X67108Y13999D03*
X67108Y14196D03*
X64746Y14393D03*
X64746Y14589D03*
X64746Y14786D03*
X64746Y14983D03*
X67108Y14393D03*
X67108Y14589D03*
X67108Y14786D03*
X67108Y14983D03*
X64746Y15180D03*
X64746Y15377D03*
X67108Y15180D03*
X67108Y15377D03*
X61420Y19611D03*
X63783Y19611D03*
X61420Y19808D03*
X61420Y20005D03*
X61420Y20202D03*
X61420Y20399D03*
X63783Y19808D03*
X63783Y20005D03*
X63783Y20202D03*
X63783Y20399D03*
X61420Y20595D03*
X61420Y20792D03*
X61420Y20989D03*
X61420Y21186D03*
X63783Y20595D03*
X63783Y20792D03*
X63783Y20989D03*
X63783Y21186D03*
X61420Y21383D03*
X63783Y21383D03*
X6381Y12864D03*
X6381Y12667D03*
X6381Y13652D03*
X6381Y13061D03*
X6381Y13258D03*
X6381Y13455D03*
X6381Y14439D03*
X6381Y13848D03*
X6381Y14045D03*
X6381Y14242D03*
X4019Y12864D03*
X4019Y12667D03*
X4019Y13652D03*
X4019Y13061D03*
X4019Y13258D03*
X4019Y13455D03*
X4019Y14439D03*
X4019Y13848D03*
X4019Y14045D03*
X4019Y14242D03*
X8172Y32202D03*
X8172Y31808D03*
X8172Y31611D03*
X8172Y32005D03*
X10534Y32202D03*
X10534Y31808D03*
X10534Y31611D03*
X10534Y32005D03*
X8172Y32989D03*
X8172Y32595D03*
X8172Y32399D03*
X8172Y32792D03*
X10534Y32989D03*
X10534Y32595D03*
X10534Y32399D03*
X10534Y32792D03*
X8172Y33383D03*
X8172Y33186D03*
X10534Y33383D03*
X10534Y33186D03*
X61625Y33005D03*
X61625Y32611D03*
X61625Y32808D03*
X63987Y33005D03*
X63987Y32611D03*
X63987Y32808D03*
X61625Y33792D03*
X61625Y33202D03*
X61625Y33399D03*
X61625Y33595D03*
X63987Y33792D03*
X63987Y33202D03*
X63987Y33399D03*
X63987Y33595D03*
X61625Y33989D03*
X61625Y34186D03*
X61625Y34383D03*
X63987Y33989D03*
X63987Y34186D03*
X63987Y34383D03*
X10972Y7784D03*
X10972Y7587D03*
X13334Y7784D03*
X13334Y7587D03*
X10972Y8178D03*
X10972Y7981D03*
X10972Y8572D03*
X10972Y8375D03*
X13334Y8178D03*
X13334Y7981D03*
X13334Y8572D03*
X13334Y8375D03*
X10972Y8965D03*
X10972Y8769D03*
X10972Y9359D03*
X10972Y9162D03*
X13334Y8965D03*
X13334Y8769D03*
X13334Y9359D03*
X13334Y9162D03*
X7972Y25311D03*
X7972Y25114D03*
X10334Y25311D03*
X10334Y25114D03*
X7972Y25508D03*
X7972Y25705D03*
X7972Y26098D03*
X7972Y25902D03*
X10334Y25508D03*
X10334Y25705D03*
X10334Y26098D03*
X10334Y25902D03*
X7972Y26295D03*
X7972Y26492D03*
X7972Y26886D03*
X7972Y26689D03*
X10334Y26295D03*
X10334Y26492D03*
X10334Y26886D03*
X10334Y26689D03*
X61414Y26799D03*
X61414Y26405D03*
X61414Y26602D03*
X61414Y26996D03*
X63777Y26799D03*
X63777Y26405D03*
X63777Y26602D03*
X63777Y26996D03*
X61414Y27586D03*
X61414Y27193D03*
X61414Y27389D03*
X61414Y27783D03*
X63777Y27586D03*
X63777Y27193D03*
X63777Y27389D03*
X63777Y27783D03*
X61414Y27980D03*
X61414Y28177D03*
X63777Y27980D03*
X63777Y28177D03*
X59146Y7811D03*
X61508Y7811D03*
X59146Y8402D03*
X59146Y8205D03*
X59146Y8008D03*
X59146Y8599D03*
X61508Y8402D03*
X61508Y8205D03*
X61508Y8008D03*
X61508Y8599D03*
X59146Y9189D03*
X59146Y8992D03*
X59146Y8795D03*
X59146Y9386D03*
X61508Y9189D03*
X61508Y8992D03*
X61508Y8795D03*
X61508Y9386D03*
X59146Y9583D03*
X61508Y9583D03*
X7972Y18514D03*
X7972Y18711D03*
X7972Y18908D03*
X10334Y18514D03*
X10334Y18711D03*
X10334Y18908D03*
X7972Y19105D03*
X7972Y19302D03*
X7972Y19498D03*
X7972Y19695D03*
X10334Y19105D03*
X10334Y19302D03*
X10334Y19498D03*
X10334Y19695D03*
X7972Y19892D03*
X7972Y20089D03*
X7972Y20286D03*
X10334Y19892D03*
X10334Y20089D03*
X10334Y20286D03*
G54D18*
X9950Y3400D03*
X11650Y3400D03*
X58550Y3400D03*
X60250Y3400D03*
G54D19*
X9617Y2917D02*
X10283Y2917D01*
X10283Y3883D01*
X9617Y3883D01*
X9617Y2917D01*D02*
X11317Y2917D02*
X11983Y2917D01*
X11983Y3883D01*
X11317Y3883D01*
X11317Y2917D01*D02*
X58217Y2917D02*
X58883Y2917D01*
X58883Y3883D01*
X58217Y3883D01*
X58217Y2917D01*D02*
X59917Y2917D02*
X60583Y2917D01*
X60583Y3883D01*
X59917Y3883D01*
X59917Y2917D01*D02*
G54D20*
X15493Y3355D03*
X16398Y3355D03*
X17304Y3355D03*
X53293Y3355D03*
X54198Y3355D03*
X55104Y3355D03*
G54D21*
X16398Y5639D03*
X54198Y5639D03*

M02*
