M48
INCH,TZ
VER,1
FMAT,2
DETECT,ON
ATC,ON
T1C0.1250
T2C0.1430
T3C0.3937
T4C0.0580
T5C0.0700
T6C0.0350
T7C0.0392
T8C0.0118
%
T1
X1200Y38800
X36300
X68800
X33700
X68800Y1200
X33700
X36300
X1200
T2
X40190Y29250
X48310
X40190Y4250
X48310
X21650Y29250
X29770
X21650Y4250
X29770
T3
X44250Y16325
X25710
T4
X48800Y14500
X47500Y13750
Y7750
X48750Y7000
X47500Y9250
X46200Y13000
X48800
Y19000
Y25000
X44900Y7750
X45550Y5250
Y3750
X44900Y10750
Y9250
Y12250
X44250Y29000
X45550Y29750
Y28250
X43600Y13000
Y11500
X44250Y4500
X42950Y29750
Y28250
X39700Y7750
X42950Y3750
X39700Y13750
Y10750
Y9250
Y12250
Y16750
Y15250
Y18250
Y19750
X44900
X47500
X41000Y20500
X43600
X39700Y21250
X44900
X47500
X41000Y22000
X43600
X46200
X39700Y22750
X42300
X44900
X41000Y23500
X43600
X39700Y24250
X42300
X44900
X41000Y25000
X43600
X39700Y25750
X42300
X44900
X47500
X43600Y26500
X41000
Y14500
X42300Y13750
X41000Y13000
Y11500
X42300Y12250
X41000Y17500
Y16000
X48800Y20500
X47500Y15250
Y16750
X48800Y17500
Y16000
Y23500
Y22000
X41000Y19000
X42300Y19750
X46200Y19000
X47500Y18250
X46200Y20500
X42300Y21250
X47500Y22750
X46200Y23500
X47500Y24250
X46200Y25000
Y26500
X43600Y10000
Y8500
Y7000
X42300Y7750
X41000Y8500
Y7000
Y10000
X42300Y10750
Y9250
X48800Y8500
X46200
Y7000
X47500Y10750
Y12250
X46200Y11500
Y10000
X48800Y11500
Y10000
X42950Y5250
X30260Y13000
Y14500
X28960Y13750
Y7750
X30210Y7000
X28960Y9250
X27660Y13000
X30260Y19000
Y25000
X26360Y7750
X27010Y5250
Y3750
X26360Y10750
Y9250
Y12250
X25710Y29000
X27010Y29750
Y28250
X25060Y13000
Y11500
X25710Y4500
X24410Y29750
Y28250
X21160Y7750
X24410Y3750
X21160Y13750
Y10750
Y9250
Y12250
Y16750
Y15250
Y18250
Y19750
X26360
X28960
X22460Y20500
X25060
X21160Y21250
X26360
X28960
X22460Y22000
X25060
X27660
X21160Y22750
X23760
X26360
X22460Y23500
X25060
X21160Y24250
X23760
X26360
X22460Y25000
X25060
X21160Y25750
X23760
X26360
X28960
X25060Y26500
X22460
Y14500
X23760Y13750
X22460Y13000
Y11500
X23760Y12250
X22460Y17500
Y16000
X30260Y20500
X28960Y15250
Y16750
X30260Y17500
Y16000
Y23500
Y22000
X22460Y19000
X23760Y19750
X27660Y19000
X28960Y18250
X27660Y20500
X23760Y21250
X28960Y22750
X27660Y23500
X28960Y24250
X27660Y25000
Y26500
X25060Y10000
Y8500
Y7000
X23760Y7750
X22460Y8500
Y7000
Y10000
X23760Y10750
Y9250
X30260Y8500
X27660
Y7000
X28960Y10750
Y12250
X27660Y11500
Y10000
X30260Y11500
Y10000
X24410Y5250
T5
X48800Y26500
X30260
T6
X45140Y37660
Y38660
X39140
X42140Y37660
Y38660
X41140Y37660
X40140
Y38660
X41140
X43140Y37660
X44140
X43140Y38660
X44140
X48140Y37660
Y38660
X46140Y37660
X47140
Y38660
X46140
X49140Y37660
X50140
Y38660
X49140
X25860Y37660
Y38660
X19860
X22860Y37660
Y38660
X21860Y37660
X20860
Y38660
X21860
X23860Y37660
X24860
X23860Y38660
X24860
X28860Y37660
Y38660
X26860Y37660
X27860
Y38660
X26860
X29860Y37660
X30860
Y38660
X29860
X5140Y3540
X4540Y5940
X7340
X1740
X64740Y3540
X68340
X63140Y5940
X65940
X68540
T7
X39140Y37660
X19860
X4140Y3540
X4540Y6940
X7340
X1740
X63740Y3540
X67340
X63140Y6940
X65940
X68540
T8
X30300Y33800
X33800Y32600
X33182Y33818
X33800Y8500
X11300Y14300
X12300Y14500
X8800Y14100
X8700Y14500
X19800
X18400Y15800
X17800Y16100
X19900Y16500
X24200Y21900
X5100Y15700
X5500Y16100
X22100Y5700
X5100Y16400
X21500Y5700
X17900Y21600
X18700
X19900
X10100Y28000
X9700Y28500
X62000Y8400
X64200Y35100
X66100Y35000
X66000Y35500
X43700Y5700
X59200Y11100
X66100Y34200
X62700Y35400
X42600Y35000
X39800Y34900
X38700
X38500Y11700
X39300Y11500
X52600Y26900
X64500Y20800
X49300Y21000
X59000Y19400
X49800
X12300Y32000
X27400Y30400
X11300Y6000
X11500Y5700
X11900Y5400
X17600Y800
X12200Y2400
X16580Y920
X12300Y5800
X14100Y3300
X13000Y2950
X14100Y4700
X13600Y4500
X20500Y2600
X19900Y2500
X20500Y800
X16488Y7000
X13100Y10300
X10600Y2400
X12800Y10600
X8600Y4700
X19200Y2600
Y1000
X12600Y800
X28600Y31400
X30800Y21200
X32400Y20800
X31600Y19800
X32300Y21200
Y22600
X7500Y400
X20200Y2100
X25100
X32175
X19800Y20700
X10600Y20800
X10100Y24100
X11606Y800
X17100Y2200
X17900Y800
X14000Y2100
X31600Y35200
X59000Y18600
X9800Y23900
X19700Y16800
X16200
X26300Y26900
X21000Y27000
X20800Y28300
X17000Y28400
X12500Y29400
X18800Y28900
X52100Y10600
X61700Y11400
X63200
X66800Y26700
X64400
X52400Y22800
Y26400
X50200Y20100
X49400
X63100Y35200
X55800Y18600
X26100Y1000
X1300Y24099
X2900Y24100
X5300
X45900Y1400
X8700Y24100
X46300Y5600
X63800Y35500
X64200Y38400
X69400Y11100
X69500Y14700
X68600Y12100
Y14800
X69200Y35500
X45800Y2600
X44100Y3600
X63100Y29600
X54100Y30300
X50600Y23400
Y22500
X58900Y19900
X55000Y24800
X50700
X64600Y27000
X66800Y27200
X69000Y27000
X49400Y1600
X50800
X16196Y8100
X6700Y900
X34700Y17500
X37400Y19700
X55000Y30600
X29800Y21200
X38800Y24800
Y23100
X17700Y16500
X57500Y22300
X48300Y19800
X45500Y20300
X60100Y20700
X57482Y17400
X50739Y17361
X32100Y30300
X32400Y23100
X33300Y12100
X64400Y28300
X28400Y30100
X37300Y17500
Y20800
X43400Y19400
X24700Y19700
X18300Y14500
X52200Y11500
X36100Y19700
Y21000
X10199Y28499
X6900Y27900
X23200Y24700
Y29300
X34700Y19900
X64200Y24700
X9500Y30300
X31800Y29600
X30800Y32600
X66800Y37900
X64400Y19700
X66000Y19800
X33600Y18500
Y21300
X29700Y27400
X29300Y31900
X25200Y31800
X60500Y22400
X27500Y3200
X28800Y6100
X13000Y26500
X51191Y21600
X52700Y19900
X50600Y20100
X14600Y900
X60800Y21100
X60400Y20400
X57600Y20700
X57400Y19200
X45700Y21300
X50499Y22099
X27900Y18000
X55013Y27400
X29500Y22100
X41600Y19800
X3300Y12400
Y11612
X50100Y19100
X64100Y23300
X4000Y22400
X6200Y22200
X13600Y30500
X3600Y27500
X6700Y11500
X13400Y26700
X34000Y37100
X51000Y20200
X59300Y20700
X46400Y14500
X14268Y37000
X42300Y18100
X50200Y21100
X7700Y29200
X6200Y27300
X18800Y37700
X7600Y25700
X10500Y36800
X21600Y35800
X6300Y18900
X6100Y11700
X31900Y3000
X49100Y3400
X30800
X6400Y14700
X37900Y33400
X64000Y34700
X23200Y33600
X27900
X9200Y29400
X50200Y8700
X42800Y700
X20600Y7200
X25200Y2700
X39000Y2800
X18500Y18900
X44300Y2900
X66400Y16100
X58600Y30900
X61900Y36800
X18400Y1700
X59200Y32400
X29400Y34100
X19700Y28800
X11600Y38600
X15500Y28000
X17600Y29600
X23300Y2400
X30500Y34800
X40800Y34100
X31200Y6600
X8300Y15200
X46300Y32000
X19300Y27800
X64400Y34100
X46500Y33100
X56800Y26000
X7700Y28900
X17600Y27400
X45200Y1500
X3300Y3000
X51700Y23400
X56400Y31400
X37200Y1800
X2400Y24800
X7700Y29600
X11300Y38000
X53400Y27000
X50200Y23500
X18800Y29500
X36200Y36700
Y31100
X33000Y300
X15900Y28900
X35400Y31200
X35200Y33000
X28400Y5400
X42500Y35600
X27600Y34900
X4900Y29300
X53800Y17800
X53700Y34000
X27000Y35100
X30800Y34200
X32200
X43900Y32900
X2500Y12500
X19600Y23800
X57100Y26100
X7000Y27300
X22500Y34700
X11000Y39300
X38200Y6200
X47400Y6000
X18700Y7000
X25500Y2400
X43400Y3200
X16600Y27700
X13400Y9700
X32800Y1400
X13800Y27200
X26700Y39700
X47200Y30800
X65500Y24000
X63300Y30600
X51300Y32000
X34700Y31600
X32300Y31100
X55900Y9000
X57400Y4200
X49500Y8400
X49800Y4100
X23100Y15400
X28050Y24100
X6600Y23600
X51000Y29900
X53000Y28800
Y15600
X51100Y11200
X30600Y32900
X5700Y32800
X12200Y36200
X7000Y32600
X5400Y24800
X7300Y25900
X6000Y19500
X7100Y19300
X54400Y12400
X44800Y5800
X44900Y1400
X64500Y20200
X5900Y34600
X31900Y11800
X30300Y11500
X52800Y28400
X8800Y34400
X54200Y12800
Y26900
X47800Y30800
X12200Y33200
X37500Y11600
X36600Y29300
X32300Y30600
X30200Y31000
X32500Y700
X21100Y2700
X14400Y9700
X11200Y11800
X5200Y11000
X1500Y27300
X1600Y29000
X37800Y5000
X34800Y30300
X30300Y30400
X41000Y28200
X33600Y10400
X36000Y18600
X33200Y17500
X28000Y500
X19800Y6100
X11900Y30300
X10500Y28200
X16300Y14600
X18700Y8600
X28500Y26600
X54500Y32000
X54200Y27400
X64700Y27500
X53600Y16000
X34400Y9600
X34300Y9900
X18100Y24700
X19900Y10400
X22800Y4300
X31800Y18600
X65550Y21300
X13000Y29200
X34400Y500
X34200Y5600
X34600
X33600Y17900
X1400Y11300
Y24600
Y23700
Y25800
X1700Y26600
X10500Y27500
X10100Y30300
X28100Y2300
X26300Y1400
X22800Y1600
X34000Y11900
X25900Y6300
X38300Y13100
Y34500
X39300
X14900Y6700
X14882Y7360
X42700Y34700
X4900Y15300
X31700Y9700
X32700Y10100
X34200Y8700
X10700Y22100
X13300Y5100
X16100Y2400
X32900Y11600
X17700Y12500
X6900Y28950
X9000Y21500
X14100Y26200
X46700Y2700
X61800Y22700
X3300Y26000
X26700Y1800
X26500Y3200
X6875Y31600
X7500Y30400
X7100Y30300
X66000Y33200
X64900Y23500
X53500Y36900
X37000Y28400
X32700Y28600
X31900Y31600
Y33600
X33100Y35200
X34600Y34900
X30300Y31500
X33500Y30900
X35800
X33600Y22400
X35800Y18900
X33400Y19700
X64700Y27900
X33200Y17100
X65900Y27700
X68100Y27300
X67100Y17300
X64500
X62500Y15000
Y16400
X58600
X51700Y29300
X49500Y26900
X41800Y26800
X33500Y31300
X7600Y35500
X18100Y15900
X20000Y16100
X9400Y14300
X38700Y36300
X20100Y29600
X10500Y14100
X18400
X19800
X20600Y26200
X18700Y25400
X24100Y26800
X21300Y26700
X22700Y28600
X13900Y25300
X29700Y34200
X29000Y32000
X50909Y22091
X63300Y22150
X44900Y24200
X7700Y11200
X31500Y11100
X38200Y8500
X36400Y11000
X38200
X31500Y13700
X66100Y33700
X30400Y36400
X31500Y3100
X32000Y36100
X66200Y18075
X46600Y19900
X33400Y15400
X63800Y16600
X66000Y23400
Y19300
X63900
X61800Y24800
X60800Y24900
X61800Y30500
X34000Y35100
Y14200
X13000Y27100
X60800Y21700
X52100Y34000
X14850Y36800
X52200Y20000
X14500Y27800
X58400Y20200
X52400Y12800
X50500Y12600
X15200Y36161
X14400Y26700
X28200Y36300
X32900Y36100
X32500Y33700
X33200Y8200
Y6200
X31100Y8200
X36600Y6200
X56300Y10600
Y21800
X59700Y22400
X18500Y36000
X6800Y31200
X7500Y32200
X3600Y30300
X15800Y6800
X51823Y34400
X60500Y25300
X61400Y25100
X61000Y31400
X61825Y31200
X60300Y32600
X17300Y36800
X57358Y36642
X17300Y38800
X18200
X65900Y12200
X53900Y15500
X60200Y17400
X56500Y17800
X60205Y18700
X63000Y25200
X13500Y36500
X59500Y6000
X60300Y5900
X58600Y7000
X63200Y9800
X63300Y12130
X64800Y12200
X4900Y12000
X5100Y11500
X3900Y12200
X2200Y19800
X3100Y19500
X5700Y19800
X6300Y20000
X6600Y26900
X7700Y27600
X7300Y31300
X7800Y32800
X7600Y33600
X13500Y37000
X13600Y800
X17000Y6800
X9000Y10100
X17000Y10200
X6600Y25900
X15200Y2100
X6400Y8700
X9800Y8800
X55800Y15500
X60800Y18600
X60900Y12700
X13700Y5500
X14400Y6100
X15200Y3200
X64100Y15300
X65200Y18000
X42700Y5900
X65200Y21800
X25700Y5400
X64900Y25100
X20800Y5700
X19700
X14600Y10200
X5200Y10600
X2100Y10900
X14400Y37700
X15500Y37643
X17100Y37600
X10000Y38600
X64100Y31300
X58500Y23900
X29100Y26700
X28800Y27400
X22200Y35800
X19300Y30000
X14500Y29000
X27200Y34500
Y31900
X26700
X34700Y28500
Y32200
X34600Y34500
X34700Y24600
X52100Y24400
X52200Y26900
X27600Y32200
Y34500
X37500Y26500
X30100Y34500
X37400
X32800
X35300Y27200
X34300Y34000
X34800Y27700
X34296Y10904
X49600Y25300
X58000Y25200
X52400Y21600
X63500Y23100
X27200Y21400
X19800Y22200
X61700Y34800
X20000Y24800
X62200Y8900
X58100Y36600
Y30200
X63500Y30300
X59400Y5000
X62100Y8000
X22000Y13800
X18100Y17500
X10500Y30500
X59700Y7100
X55000Y12100
X61900Y7800
X57700Y25000
X58000Y27050
X67000Y19300
X66000Y12700
X60800Y10200
X57400Y24600
X66800Y33200
X66200Y24800
X67100Y22500
X28600Y22100
X61500Y34600
X18900Y11800
X8800Y23400
X30900Y25300
X6300Y20900
X3800Y20300
X42300Y26600
X8000Y31000
X11900Y29600
X7600Y24900
Y18700
X7200Y12200
X10800Y6900
X7600Y30800
X13097Y30797
X7500Y25400
X7400Y18900
X7000Y12000
X10600Y8000
X18400Y23200
X64800Y20600
X5300Y12000
X10400Y8400
X16900Y17500
X10000Y23200
X65000Y19800
X19600Y22400
X55400Y31300
Y33900
X5600Y18500
Y23600
X10700Y38300
X12100Y10000
X20700Y24900
X61300Y33800
X10300Y8100
X4700Y9200
X2600Y30700
X3200Y30300
X6000Y36400
X38000Y36600
X19100Y29700
X63400Y31000
X63200Y22600
X58900Y25400
X25600Y34500
X26700
X56000Y24000
X26900Y34300
X55900Y23100
X29900Y33000
X13000Y33300
X8800Y35000
X55700Y20700
X25800Y34300
X54800Y19000
X34600Y19200
X28000Y34300
X54700Y16500
X54500Y14700
X10700Y21600
X10500Y33600
X51400Y13100
X62400Y12800
X17600Y22200
X31900Y9300
X62700Y12800
X17800Y22000
X29600Y8200
X62400Y14000
X16900Y22000
X30500Y27200
X62600Y23800
X63100Y14000
X20200Y22200
X30900Y24600
X61600Y24000
X65600Y17738
X27200Y22900
X30900Y23900
X62800Y17600
X23100Y17900
X29900Y19900
X40600Y21100
X54800Y18700
X62900Y17000
X63600Y15700
X26700Y18900
X63100Y17600
X20400Y17900
X23800Y18600
X46400Y18100
X63600Y17400
X20200Y17700
X19000Y19400
X63900Y16300
X16900Y19300
X50000Y14100
X65500Y16400
X16900Y19600
X66100Y16100
X18100Y18300
X31200Y8900
X62100Y7400
X67200Y15900
X14800Y18400
X31900Y7000
X63400Y10800
X67100Y15600
X19200Y19700
X29300Y24900
X61400Y24200
X19400Y19500
X67600Y18800
X19600Y19700
X26700Y20600
X30900Y20100
X67100Y17700
X67700Y14600
X25200Y19200
X30900Y19400
X67700Y18500
X24000Y18400
X36100Y17900
X52300Y14000
X67800Y14200
X24600
X29300Y16100
X67500Y14100
X20000Y13300
X28300Y13500
X45200Y13600
X51300Y6800
X19600Y12000
X31000Y11300
X51100Y7400
X19600Y11000
X29600Y10400
X19500Y9500
X31700Y9100
X56800Y8300
X66700Y13000
X61300Y7000
X64100Y19000
X63300Y25800
X64800Y32200
X54800Y10300
X60800Y7200
X66400Y13000
X63500Y18100
X63900Y25600
X66400Y30300
X66100Y36200
X56900Y27200
X62900Y25800
X54900Y9000
X60300Y7200
X66000Y13000
X62600Y18900
X62800Y25500
X62900Y32000
X57400Y28200
X58700Y23000
X62900Y19000
X63200Y31900
X58000Y9500
X57800Y9300
X56100Y9700
X55700Y2600
X59200Y9900
X56300
X55500Y2400
X60000Y10200
X56400
X60400
X56600Y10400
X61000
X62000Y9500
X61800Y9100
X23600Y26900
X26075Y6925
X28800Y6800
X9300Y32500
X7100Y25100
Y32000
X6000Y10039
X9183Y26017
X4900Y13200
X7100Y33400
X7300Y26800
X3900Y11600
X8677Y19900
X9077Y19500
X10300Y9500
X6400Y18500
X10100Y5800
X47800Y26700
X45100Y26800
X50700Y7100
X50800Y4800
X37200Y7200
X63300Y27200
X61300Y25400
X61449Y18600
X61800Y31600
X62800Y34000
X63249Y20000
X64100Y29500
X64800Y12800
X60912Y8300
X65900Y14500
X66300Y12100
X61500Y5900
X52000Y7100
X53400Y13800
X61500Y4300
X54000Y34600
X54200Y2500
X52100Y2600
X56300Y2400
X66100Y36800
X65800Y30300
X55600Y18900
X18800Y7400
X17200Y8600
X18200Y37800
X17958Y3600
X16000Y3300
X13800Y2500
X15400Y2422
X18400Y2700
X65900Y5900
X64800
X4000Y23800
X12300Y37100
Y31100
X2200Y18200
X52700Y13850
X51300Y34300
X51200Y26600
X58500Y38452
X60700Y38400
X63700
X64300Y37400
X13493Y37700
X10500Y37900
X7600Y38000
X39300Y26700
X28400Y28600
X25800Y27100
X16400Y5700
X16900Y9200
X54200Y5800
M30
