G04 Generated by Ultiboard 14.1 *
%FSLAX24Y24*%
%MOIN*%

%ADD10C,0.0001*%
%ADD11C,0.1250*%
%ADD12C,0.1430*%
%ADD13C,0.3937*%
%ADD14C,0.0580*%
%ADD15C,0.0700*%
%ADD16C,0.0350*%
%ADD17C,0.0392*%
%ADD18C,0.0118*%


G04 ColorRGB 000000 for the following layer *
%LNDrill-Copper Top-Copper Bottom*%
%LPD*%
G54D11*
X1200Y38800D03*
X36300Y38800D03*
X68800Y38800D03*
X33700Y38800D03*
X68800Y1200D03*
X33700Y1200D03*
X36300Y1200D03*
X1200Y1200D03*
G54D12*
X40190Y29250D03*
X48310Y29250D03*
X40190Y4250D03*
X48310Y4250D03*
X21650Y29250D03*
X29770Y29250D03*
X21650Y4250D03*
X29770Y4250D03*
G54D13*
X44250Y16325D03*
X25710Y16325D03*
G54D14*
X48800Y14500D03*
X47500Y13750D03*
X47500Y7750D03*
X48750Y7000D03*
X47500Y9250D03*
X46200Y13000D03*
X48800Y13000D03*
X48800Y19000D03*
X48800Y25000D03*
X44900Y7750D03*
X45550Y5250D03*
X45550Y3750D03*
X44900Y10750D03*
X44900Y9250D03*
X44900Y12250D03*
X44250Y29000D03*
X45550Y29750D03*
X45550Y28250D03*
X43600Y13000D03*
X43600Y11500D03*
X44250Y4500D03*
X42950Y29750D03*
X42950Y28250D03*
X39700Y7750D03*
X42950Y3750D03*
X39700Y13750D03*
X39700Y10750D03*
X39700Y9250D03*
X39700Y12250D03*
X39700Y16750D03*
X39700Y15250D03*
X39700Y18250D03*
X39700Y19750D03*
X44900Y19750D03*
X47500Y19750D03*
X41000Y20500D03*
X43600Y20500D03*
X39700Y21250D03*
X44900Y21250D03*
X47500Y21250D03*
X41000Y22000D03*
X43600Y22000D03*
X46200Y22000D03*
X39700Y22750D03*
X42300Y22750D03*
X44900Y22750D03*
X41000Y23500D03*
X43600Y23500D03*
X39700Y24250D03*
X42300Y24250D03*
X44900Y24250D03*
X41000Y25000D03*
X43600Y25000D03*
X39700Y25750D03*
X42300Y25750D03*
X44900Y25750D03*
X47500Y25750D03*
X43600Y26500D03*
X41000Y26500D03*
X41000Y14500D03*
X42300Y13750D03*
X41000Y13000D03*
X41000Y11500D03*
X42300Y12250D03*
X41000Y17500D03*
X41000Y16000D03*
X48800Y20500D03*
X47500Y15250D03*
X47500Y16750D03*
X48800Y17500D03*
X48800Y16000D03*
X48800Y23500D03*
X48800Y22000D03*
X41000Y19000D03*
X42300Y19750D03*
X46200Y19000D03*
X47500Y18250D03*
X46200Y20500D03*
X42300Y21250D03*
X47500Y22750D03*
X46200Y23500D03*
X47500Y24250D03*
X46200Y25000D03*
X46200Y26500D03*
X43600Y10000D03*
X43600Y8500D03*
X43600Y7000D03*
X42300Y7750D03*
X41000Y8500D03*
X41000Y7000D03*
X41000Y10000D03*
X42300Y10750D03*
X42300Y9250D03*
X48800Y8500D03*
X46200Y8500D03*
X46200Y7000D03*
X47500Y10750D03*
X47500Y12250D03*
X46200Y11500D03*
X46200Y10000D03*
X48800Y11500D03*
X48800Y10000D03*
X42950Y5250D03*
X30260Y13000D03*
X30260Y14500D03*
X28960Y13750D03*
X28960Y7750D03*
X30210Y7000D03*
X28960Y9250D03*
X27660Y13000D03*
X30260Y19000D03*
X30260Y25000D03*
X26360Y7750D03*
X27010Y5250D03*
X27010Y3750D03*
X26360Y10750D03*
X26360Y9250D03*
X26360Y12250D03*
X25710Y29000D03*
X27010Y29750D03*
X27010Y28250D03*
X25060Y13000D03*
X25060Y11500D03*
X25710Y4500D03*
X24410Y29750D03*
X24410Y28250D03*
X21160Y7750D03*
X24410Y3750D03*
X21160Y13750D03*
X21160Y10750D03*
X21160Y9250D03*
X21160Y12250D03*
X21160Y16750D03*
X21160Y15250D03*
X21160Y18250D03*
X21160Y19750D03*
X26360Y19750D03*
X28960Y19750D03*
X22460Y20500D03*
X25060Y20500D03*
X21160Y21250D03*
X26360Y21250D03*
X28960Y21250D03*
X22460Y22000D03*
X25060Y22000D03*
X27660Y22000D03*
X21160Y22750D03*
X23760Y22750D03*
X26360Y22750D03*
X22460Y23500D03*
X25060Y23500D03*
X21160Y24250D03*
X23760Y24250D03*
X26360Y24250D03*
X22460Y25000D03*
X25060Y25000D03*
X21160Y25750D03*
X23760Y25750D03*
X26360Y25750D03*
X28960Y25750D03*
X25060Y26500D03*
X22460Y26500D03*
X22460Y14500D03*
X23760Y13750D03*
X22460Y13000D03*
X22460Y11500D03*
X23760Y12250D03*
X22460Y17500D03*
X22460Y16000D03*
X30260Y20500D03*
X28960Y15250D03*
X28960Y16750D03*
X30260Y17500D03*
X30260Y16000D03*
X30260Y23500D03*
X30260Y22000D03*
X22460Y19000D03*
X23760Y19750D03*
X27660Y19000D03*
X28960Y18250D03*
X27660Y20500D03*
X23760Y21250D03*
X28960Y22750D03*
X27660Y23500D03*
X28960Y24250D03*
X27660Y25000D03*
X27660Y26500D03*
X25060Y10000D03*
X25060Y8500D03*
X25060Y7000D03*
X23760Y7750D03*
X22460Y8500D03*
X22460Y7000D03*
X22460Y10000D03*
X23760Y10750D03*
X23760Y9250D03*
X30260Y8500D03*
X27660Y8500D03*
X27660Y7000D03*
X28960Y10750D03*
X28960Y12250D03*
X27660Y11500D03*
X27660Y10000D03*
X30260Y11500D03*
X30260Y10000D03*
X24410Y5250D03*
G54D15*
X48800Y26500D03*
X30260Y26500D03*
G54D16*
X45140Y37660D03*
X45140Y38660D03*
X39140Y38660D03*
X42140Y37660D03*
X42140Y38660D03*
X41140Y37660D03*
X40140Y37660D03*
X40140Y38660D03*
X41140Y38660D03*
X43140Y37660D03*
X44140Y37660D03*
X43140Y38660D03*
X44140Y38660D03*
X48140Y37660D03*
X48140Y38660D03*
X46140Y37660D03*
X47140Y37660D03*
X47140Y38660D03*
X46140Y38660D03*
X49140Y37660D03*
X50140Y37660D03*
X50140Y38660D03*
X49140Y38660D03*
X25860Y37660D03*
X25860Y38660D03*
X19860Y38660D03*
X22860Y37660D03*
X22860Y38660D03*
X21860Y37660D03*
X20860Y37660D03*
X20860Y38660D03*
X21860Y38660D03*
X23860Y37660D03*
X24860Y37660D03*
X23860Y38660D03*
X24860Y38660D03*
X28860Y37660D03*
X28860Y38660D03*
X26860Y37660D03*
X27860Y37660D03*
X27860Y38660D03*
X26860Y38660D03*
X29860Y37660D03*
X30860Y37660D03*
X30860Y38660D03*
X29860Y38660D03*
X5140Y3540D03*
X4540Y5940D03*
X7340Y5940D03*
X1740Y5940D03*
X64740Y3540D03*
X68340Y3540D03*
X63140Y5940D03*
X65940Y5940D03*
X68540Y5940D03*
G54D17*
X39140Y37660D03*
X19860Y37660D03*
X4140Y3540D03*
X4540Y6940D03*
X7340Y6940D03*
X1740Y6940D03*
X63740Y3540D03*
X67340Y3540D03*
X63140Y6940D03*
X65940Y6940D03*
X68540Y6940D03*
G54D18*
X30300Y33800D03*
X33800Y32600D03*
X33182Y33818D03*
X33800Y8500D03*
X11300Y14300D03*
X12300Y14500D03*
X8800Y14100D03*
X8700Y14500D03*
X19800Y14500D03*
X18400Y15800D03*
X17800Y16100D03*
X19900Y16500D03*
X24200Y21900D03*
X5100Y15700D03*
X5500Y16100D03*
X22100Y5700D03*
X5100Y16400D03*
X21500Y5700D03*
X17900Y21600D03*
X18700Y21600D03*
X19900Y21600D03*
X10100Y28000D03*
X9700Y28500D03*
X62000Y8400D03*
X64200Y35100D03*
X66100Y35000D03*
X66000Y35500D03*
X43700Y5700D03*
X59200Y11100D03*
X66100Y34200D03*
X62700Y35400D03*
X42600Y35000D03*
X39800Y34900D03*
X38700Y34900D03*
X38500Y11700D03*
X39300Y11500D03*
X52600Y26900D03*
X64500Y20800D03*
X49300Y21000D03*
X59000Y19400D03*
X49800Y19400D03*
X12300Y32000D03*
X27400Y30400D03*
X11300Y6000D03*
X11500Y5700D03*
X11900Y5400D03*
X17600Y800D03*
X12200Y2400D03*
X16580Y920D03*
X12300Y5800D03*
X14100Y3300D03*
X13000Y2950D03*
X14100Y4700D03*
X13600Y4500D03*
X20500Y2600D03*
X19900Y2500D03*
X20500Y800D03*
X16488Y7000D03*
X13100Y10300D03*
X10600Y2400D03*
X12800Y10600D03*
X8600Y4700D03*
X19200Y2600D03*
X19200Y1000D03*
X12600Y800D03*
X28600Y31400D03*
X30800Y21200D03*
X32400Y20800D03*
X31600Y19800D03*
X32300Y21200D03*
X32300Y22600D03*
X7500Y400D03*
X20200Y2100D03*
X25100Y2100D03*
X32175Y2100D03*
X19800Y20700D03*
X10600Y20800D03*
X10100Y24100D03*
X11606Y800D03*
X17100Y2200D03*
X17900Y800D03*
X14000Y2100D03*
X31600Y35200D03*
X59000Y18600D03*
X9800Y23900D03*
X19700Y16800D03*
X16200Y16800D03*
X26300Y26900D03*
X21000Y27000D03*
X20800Y28300D03*
X17000Y28400D03*
X12500Y29400D03*
X18800Y28900D03*
X52100Y10600D03*
X61700Y11400D03*
X63200Y11400D03*
X66800Y26700D03*
X64400Y26700D03*
X52400Y22800D03*
X52400Y26400D03*
X50200Y20100D03*
X49400Y20100D03*
X63100Y35200D03*
X55800Y18600D03*
X26100Y1000D03*
X1300Y24099D03*
X2900Y24100D03*
X5300Y24100D03*
X45900Y1400D03*
X8700Y24100D03*
X46300Y5600D03*
X63800Y35500D03*
X64200Y38400D03*
X69400Y11100D03*
X69500Y14700D03*
X68600Y12100D03*
X68600Y14800D03*
X69200Y35500D03*
X45800Y2600D03*
X44100Y3600D03*
X63100Y29600D03*
X54100Y30300D03*
X50600Y23400D03*
X50600Y22500D03*
X58900Y19900D03*
X55000Y24800D03*
X50700Y24800D03*
X64600Y27000D03*
X66800Y27200D03*
X69000Y27000D03*
X49400Y1600D03*
X50800Y1600D03*
X16196Y8100D03*
X6700Y900D03*
X34700Y17500D03*
X37400Y19700D03*
X55000Y30600D03*
X29800Y21200D03*
X38800Y24800D03*
X38800Y23100D03*
X17700Y16500D03*
X57500Y22300D03*
X48300Y19800D03*
X45500Y20300D03*
X60100Y20700D03*
X57482Y17400D03*
X50739Y17361D03*
X32100Y30300D03*
X32400Y23100D03*
X33300Y12100D03*
X64400Y28300D03*
X28400Y30100D03*
X37300Y17500D03*
X37300Y20800D03*
X43400Y19400D03*
X24700Y19700D03*
X18300Y14500D03*
X52200Y11500D03*
X36100Y19700D03*
X36100Y21000D03*
X10199Y28499D03*
X6900Y27900D03*
X23200Y24700D03*
X23200Y29300D03*
X34700Y19900D03*
X64200Y24700D03*
X9500Y30300D03*
X31800Y29600D03*
X30800Y32600D03*
X66800Y37900D03*
X64400Y19700D03*
X66000Y19800D03*
X33600Y18500D03*
X33600Y21300D03*
X29700Y27400D03*
X29300Y31900D03*
X25200Y31800D03*
X60500Y22400D03*
X27500Y3200D03*
X28800Y6100D03*
X13000Y26500D03*
X51191Y21600D03*
X52700Y19900D03*
X50600Y20100D03*
X14600Y900D03*
X60800Y21100D03*
X60400Y20400D03*
X57600Y20700D03*
X57400Y19200D03*
X45700Y21300D03*
X50499Y22099D03*
X27900Y18000D03*
X55013Y27400D03*
X29500Y22100D03*
X41600Y19800D03*
X3300Y12400D03*
X3300Y11612D03*
X50100Y19100D03*
X64100Y23300D03*
X4000Y22400D03*
X6200Y22200D03*
X13600Y30500D03*
X3600Y27500D03*
X6700Y11500D03*
X13400Y26700D03*
X34000Y37100D03*
X51000Y20200D03*
X59300Y20700D03*
X46400Y14500D03*
X14268Y37000D03*
X42300Y18100D03*
X50200Y21100D03*
X7700Y29200D03*
X6200Y27300D03*
X18800Y37700D03*
X7600Y25700D03*
X10500Y36800D03*
X21600Y35800D03*
X6300Y18900D03*
X6100Y11700D03*
X31900Y3000D03*
X49100Y3400D03*
X30800Y3400D03*
X6400Y14700D03*
X37900Y33400D03*
X64000Y34700D03*
X23200Y33600D03*
X27900Y33600D03*
X9200Y29400D03*
X50200Y8700D03*
X42800Y700D03*
X20600Y7200D03*
X25200Y2700D03*
X39000Y2800D03*
X18500Y18900D03*
X44300Y2900D03*
X66400Y16100D03*
X58600Y30900D03*
X61900Y36800D03*
X18400Y1700D03*
X59200Y32400D03*
X29400Y34100D03*
X19700Y28800D03*
X11600Y38600D03*
X15500Y28000D03*
X17600Y29600D03*
X23300Y2400D03*
X30500Y34800D03*
X40800Y34100D03*
X31200Y6600D03*
X8300Y15200D03*
X46300Y32000D03*
X19300Y27800D03*
X64400Y34100D03*
X46500Y33100D03*
X56800Y26000D03*
X7700Y28900D03*
X17600Y27400D03*
X45200Y1500D03*
X3300Y3000D03*
X51700Y23400D03*
X56400Y31400D03*
X37200Y1800D03*
X2400Y24800D03*
X7700Y29600D03*
X11300Y38000D03*
X53400Y27000D03*
X50200Y23500D03*
X18800Y29500D03*
X36200Y36700D03*
X36200Y31100D03*
X33000Y300D03*
X15900Y28900D03*
X35400Y31200D03*
X35200Y33000D03*
X28400Y5400D03*
X42500Y35600D03*
X27600Y34900D03*
X4900Y29300D03*
X53800Y17800D03*
X53700Y34000D03*
X27000Y35100D03*
X30800Y34200D03*
X32200Y34200D03*
X43900Y32900D03*
X2500Y12500D03*
X19600Y23800D03*
X57100Y26100D03*
X7000Y27300D03*
X22500Y34700D03*
X11000Y39300D03*
X38200Y6200D03*
X47400Y6000D03*
X18700Y7000D03*
X25500Y2400D03*
X43400Y3200D03*
X16600Y27700D03*
X13400Y9700D03*
X32800Y1400D03*
X13800Y27200D03*
X26700Y39700D03*
X47200Y30800D03*
X65500Y24000D03*
X63300Y30600D03*
X51300Y32000D03*
X34700Y31600D03*
X32300Y31100D03*
X55900Y9000D03*
X57400Y4200D03*
X49500Y8400D03*
X49800Y4100D03*
X23100Y15400D03*
X28050Y24100D03*
X6600Y23600D03*
X51000Y29900D03*
X53000Y28800D03*
X53000Y15600D03*
X51100Y11200D03*
X30600Y32900D03*
X5700Y32800D03*
X12200Y36200D03*
X7000Y32600D03*
X5400Y24800D03*
X7300Y25900D03*
X6000Y19500D03*
X7100Y19300D03*
X54400Y12400D03*
X44800Y5800D03*
X44900Y1400D03*
X64500Y20200D03*
X5900Y34600D03*
X31900Y11800D03*
X30300Y11500D03*
X52800Y28400D03*
X8800Y34400D03*
X54200Y12800D03*
X54200Y26900D03*
X47800Y30800D03*
X12200Y33200D03*
X37500Y11600D03*
X36600Y29300D03*
X32300Y30600D03*
X30200Y31000D03*
X32500Y700D03*
X21100Y2700D03*
X14400Y9700D03*
X11200Y11800D03*
X5200Y11000D03*
X1500Y27300D03*
X1600Y29000D03*
X37800Y5000D03*
X34800Y30300D03*
X30300Y30400D03*
X41000Y28200D03*
X33600Y10400D03*
X36000Y18600D03*
X33200Y17500D03*
X28000Y500D03*
X19800Y6100D03*
X11900Y30300D03*
X10500Y28200D03*
X16300Y14600D03*
X18700Y8600D03*
X28500Y26600D03*
X54500Y32000D03*
X54200Y27400D03*
X64700Y27500D03*
X53600Y16000D03*
X34400Y9600D03*
X34300Y9900D03*
X18100Y24700D03*
X19900Y10400D03*
X22800Y4300D03*
X31800Y18600D03*
X65550Y21300D03*
X13000Y29200D03*
X34400Y500D03*
X34200Y5600D03*
X34600Y5600D03*
X33600Y17900D03*
X1400Y11300D03*
X1400Y24600D03*
X1400Y23700D03*
X1400Y25800D03*
X1700Y26600D03*
X10500Y27500D03*
X10100Y30300D03*
X28100Y2300D03*
X26300Y1400D03*
X22800Y1600D03*
X34000Y11900D03*
X25900Y6300D03*
X38300Y13100D03*
X38300Y34500D03*
X39300Y34500D03*
X14900Y6700D03*
X14882Y7360D03*
X42700Y34700D03*
X4900Y15300D03*
X31700Y9700D03*
X32700Y10100D03*
X34200Y8700D03*
X10700Y22100D03*
X13300Y5100D03*
X16100Y2400D03*
X32900Y11600D03*
X17700Y12500D03*
X6900Y28950D03*
X9000Y21500D03*
X14100Y26200D03*
X46700Y2700D03*
X61800Y22700D03*
X3300Y26000D03*
X26700Y1800D03*
X26500Y3200D03*
X6875Y31600D03*
X7500Y30400D03*
X7100Y30300D03*
X66000Y33200D03*
X64900Y23500D03*
X53500Y36900D03*
X37000Y28400D03*
X32700Y28600D03*
X31900Y31600D03*
X31900Y33600D03*
X33100Y35200D03*
X34600Y34900D03*
X30300Y31500D03*
X33500Y30900D03*
X35800Y30900D03*
X33600Y22400D03*
X35800Y18900D03*
X33400Y19700D03*
X64700Y27900D03*
X33200Y17100D03*
X65900Y27700D03*
X68100Y27300D03*
X67100Y17300D03*
X64500Y17300D03*
X62500Y15000D03*
X62500Y16400D03*
X58600Y16400D03*
X51700Y29300D03*
X49500Y26900D03*
X41800Y26800D03*
X33500Y31300D03*
X7600Y35500D03*
X18100Y15900D03*
X20000Y16100D03*
X9400Y14300D03*
X38700Y36300D03*
X20100Y29600D03*
X10500Y14100D03*
X18400Y14100D03*
X19800Y14100D03*
X20600Y26200D03*
X18700Y25400D03*
X24100Y26800D03*
X21300Y26700D03*
X22700Y28600D03*
X13900Y25300D03*
X29700Y34200D03*
X29000Y32000D03*
X50909Y22091D03*
X63300Y22150D03*
X44900Y24200D03*
X7700Y11200D03*
X31500Y11100D03*
X38200Y8500D03*
X36400Y11000D03*
X38200Y11000D03*
X31500Y13700D03*
X66100Y33700D03*
X30400Y36400D03*
X31500Y3100D03*
X32000Y36100D03*
X66200Y18075D03*
X46600Y19900D03*
X33400Y15400D03*
X63800Y16600D03*
X66000Y23400D03*
X66000Y19300D03*
X63900Y19300D03*
X61800Y24800D03*
X60800Y24900D03*
X61800Y30500D03*
X34000Y35100D03*
X34000Y14200D03*
X13000Y27100D03*
X60800Y21700D03*
X52100Y34000D03*
X14850Y36800D03*
X52200Y20000D03*
X14500Y27800D03*
X58400Y20200D03*
X52400Y12800D03*
X50500Y12600D03*
X15200Y36161D03*
X14400Y26700D03*
X28200Y36300D03*
X32900Y36100D03*
X32500Y33700D03*
X33200Y8200D03*
X33200Y6200D03*
X31100Y8200D03*
X36600Y6200D03*
X56300Y10600D03*
X56300Y21800D03*
X59700Y22400D03*
X18500Y36000D03*
X6800Y31200D03*
X7500Y32200D03*
X3600Y30300D03*
X15800Y6800D03*
X51823Y34400D03*
X60500Y25300D03*
X61400Y25100D03*
X61000Y31400D03*
X61825Y31200D03*
X60300Y32600D03*
X17300Y36800D03*
X57358Y36642D03*
X17300Y38800D03*
X18200Y38800D03*
X65900Y12200D03*
X53900Y15500D03*
X60200Y17400D03*
X56500Y17800D03*
X60205Y18700D03*
X63000Y25200D03*
X13500Y36500D03*
X59500Y6000D03*
X60300Y5900D03*
X58600Y7000D03*
X63200Y9800D03*
X63300Y12130D03*
X64800Y12200D03*
X4900Y12000D03*
X5100Y11500D03*
X3900Y12200D03*
X2200Y19800D03*
X3100Y19500D03*
X5700Y19800D03*
X6300Y20000D03*
X6600Y26900D03*
X7700Y27600D03*
X7300Y31300D03*
X7800Y32800D03*
X7600Y33600D03*
X13500Y37000D03*
X13600Y800D03*
X17000Y6800D03*
X9000Y10100D03*
X17000Y10200D03*
X6600Y25900D03*
X15200Y2100D03*
X6400Y8700D03*
X9800Y8800D03*
X55800Y15500D03*
X60800Y18600D03*
X60900Y12700D03*
X13700Y5500D03*
X14400Y6100D03*
X15200Y3200D03*
X64100Y15300D03*
X65200Y18000D03*
X42700Y5900D03*
X65200Y21800D03*
X25700Y5400D03*
X64900Y25100D03*
X20800Y5700D03*
X19700Y5700D03*
X14600Y10200D03*
X5200Y10600D03*
X2100Y10900D03*
X14400Y37700D03*
X15500Y37643D03*
X17100Y37600D03*
X10000Y38600D03*
X64100Y31300D03*
X58500Y23900D03*
X29100Y26700D03*
X28800Y27400D03*
X22200Y35800D03*
X19300Y30000D03*
X14500Y29000D03*
X27200Y34500D03*
X27200Y31900D03*
X26700Y31900D03*
X34700Y28500D03*
X34700Y32200D03*
X34600Y34500D03*
X34700Y24600D03*
X52100Y24400D03*
X52200Y26900D03*
X27600Y32200D03*
X27600Y34500D03*
X37500Y26500D03*
X30100Y34500D03*
X37400Y34500D03*
X32800Y34500D03*
X35300Y27200D03*
X34300Y34000D03*
X34800Y27700D03*
X34296Y10904D03*
X49600Y25300D03*
X58000Y25200D03*
X52400Y21600D03*
X63500Y23100D03*
X27200Y21400D03*
X19800Y22200D03*
X61700Y34800D03*
X20000Y24800D03*
X62200Y8900D03*
X58100Y36600D03*
X58100Y30200D03*
X63500Y30300D03*
X59400Y5000D03*
X62100Y8000D03*
X22000Y13800D03*
X18100Y17500D03*
X10500Y30500D03*
X59700Y7100D03*
X55000Y12100D03*
X61900Y7800D03*
X57700Y25000D03*
X58000Y27050D03*
X67000Y19300D03*
X66000Y12700D03*
X60800Y10200D03*
X57400Y24600D03*
X66800Y33200D03*
X66200Y24800D03*
X67100Y22500D03*
X28600Y22100D03*
X61500Y34600D03*
X18900Y11800D03*
X8800Y23400D03*
X30900Y25300D03*
X6300Y20900D03*
X3800Y20300D03*
X42300Y26600D03*
X8000Y31000D03*
X11900Y29600D03*
X7600Y24900D03*
X7600Y18700D03*
X7200Y12200D03*
X10800Y6900D03*
X7600Y30800D03*
X13097Y30797D03*
X7500Y25400D03*
X7400Y18900D03*
X7000Y12000D03*
X10600Y8000D03*
X18400Y23200D03*
X64800Y20600D03*
X5300Y12000D03*
X10400Y8400D03*
X16900Y17500D03*
X10000Y23200D03*
X65000Y19800D03*
X19600Y22400D03*
X55400Y31300D03*
X55400Y33900D03*
X5600Y18500D03*
X5600Y23600D03*
X10700Y38300D03*
X12100Y10000D03*
X20700Y24900D03*
X61300Y33800D03*
X10300Y8100D03*
X4700Y9200D03*
X2600Y30700D03*
X3200Y30300D03*
X6000Y36400D03*
X38000Y36600D03*
X19100Y29700D03*
X63400Y31000D03*
X63200Y22600D03*
X58900Y25400D03*
X25600Y34500D03*
X26700Y34500D03*
X56000Y24000D03*
X26900Y34300D03*
X55900Y23100D03*
X29900Y33000D03*
X13000Y33300D03*
X8800Y35000D03*
X55700Y20700D03*
X25800Y34300D03*
X54800Y19000D03*
X34600Y19200D03*
X28000Y34300D03*
X54700Y16500D03*
X54500Y14700D03*
X10700Y21600D03*
X10500Y33600D03*
X51400Y13100D03*
X62400Y12800D03*
X17600Y22200D03*
X31900Y9300D03*
X62700Y12800D03*
X17800Y22000D03*
X29600Y8200D03*
X62400Y14000D03*
X16900Y22000D03*
X30500Y27200D03*
X62600Y23800D03*
X63100Y14000D03*
X20200Y22200D03*
X30900Y24600D03*
X61600Y24000D03*
X65600Y17738D03*
X27200Y22900D03*
X30900Y23900D03*
X62800Y17600D03*
X23100Y17900D03*
X29900Y19900D03*
X40600Y21100D03*
X54800Y18700D03*
X62900Y17000D03*
X63600Y15700D03*
X26700Y18900D03*
X63100Y17600D03*
X20400Y17900D03*
X23800Y18600D03*
X46400Y18100D03*
X63600Y17400D03*
X20200Y17700D03*
X19000Y19400D03*
X63900Y16300D03*
X16900Y19300D03*
X50000Y14100D03*
X65500Y16400D03*
X16900Y19600D03*
X66100Y16100D03*
X18100Y18300D03*
X31200Y8900D03*
X62100Y7400D03*
X67200Y15900D03*
X14800Y18400D03*
X31900Y7000D03*
X63400Y10800D03*
X67100Y15600D03*
X19200Y19700D03*
X29300Y24900D03*
X61400Y24200D03*
X19400Y19500D03*
X67600Y18800D03*
X19600Y19700D03*
X26700Y20600D03*
X30900Y20100D03*
X67100Y17700D03*
X67700Y14600D03*
X25200Y19200D03*
X30900Y19400D03*
X67700Y18500D03*
X24000Y18400D03*
X36100Y17900D03*
X52300Y14000D03*
X67800Y14200D03*
X24600Y14200D03*
X29300Y16100D03*
X67500Y14100D03*
X20000Y13300D03*
X28300Y13500D03*
X45200Y13600D03*
X51300Y6800D03*
X19600Y12000D03*
X31000Y11300D03*
X51100Y7400D03*
X19600Y11000D03*
X29600Y10400D03*
X19500Y9500D03*
X31700Y9100D03*
X56800Y8300D03*
X66700Y13000D03*
X61300Y7000D03*
X64100Y19000D03*
X63300Y25800D03*
X64800Y32200D03*
X54800Y10300D03*
X60800Y7200D03*
X66400Y13000D03*
X63500Y18100D03*
X63900Y25600D03*
X66400Y30300D03*
X66100Y36200D03*
X56900Y27200D03*
X62900Y25800D03*
X54900Y9000D03*
X60300Y7200D03*
X66000Y13000D03*
X62600Y18900D03*
X62800Y25500D03*
X62900Y32000D03*
X57400Y28200D03*
X58700Y23000D03*
X62900Y19000D03*
X63200Y31900D03*
X58000Y9500D03*
X57800Y9300D03*
X56100Y9700D03*
X55700Y2600D03*
X59200Y9900D03*
X56300Y9900D03*
X55500Y2400D03*
X60000Y10200D03*
X56400Y10200D03*
X60400Y10200D03*
X56600Y10400D03*
X61000Y10400D03*
X62000Y9500D03*
X61800Y9100D03*
X23600Y26900D03*
X26075Y6925D03*
X28800Y6800D03*
X9300Y32500D03*
X7100Y25100D03*
X7100Y32000D03*
X6000Y10039D03*
X9183Y26017D03*
X4900Y13200D03*
X7100Y33400D03*
X7300Y26800D03*
X3900Y11600D03*
X8677Y19900D03*
X9077Y19500D03*
X10300Y9500D03*
X6400Y18500D03*
X10100Y5800D03*
X47800Y26700D03*
X45100Y26800D03*
X50700Y7100D03*
X50800Y4800D03*
X37200Y7200D03*
X63300Y27200D03*
X61300Y25400D03*
X61449Y18600D03*
X61800Y31600D03*
X62800Y34000D03*
X63249Y20000D03*
X64100Y29500D03*
X64800Y12800D03*
X60912Y8300D03*
X65900Y14500D03*
X66300Y12100D03*
X61500Y5900D03*
X52000Y7100D03*
X53400Y13800D03*
X61500Y4300D03*
X54000Y34600D03*
X54200Y2500D03*
X52100Y2600D03*
X56300Y2400D03*
X66100Y36800D03*
X65800Y30300D03*
X55600Y18900D03*
X18800Y7400D03*
X17200Y8600D03*
X18200Y37800D03*
X17958Y3600D03*
X16000Y3300D03*
X13800Y2500D03*
X15400Y2422D03*
X18400Y2700D03*
X65900Y5900D03*
X64800Y5900D03*
X4000Y23800D03*
X12300Y37100D03*
X12300Y31100D03*
X2200Y18200D03*
X52700Y13850D03*
X51300Y34300D03*
X51200Y26600D03*
X58500Y38452D03*
X60700Y38400D03*
X63700Y38400D03*
X64300Y37400D03*
X13493Y37700D03*
X10500Y37900D03*
X7600Y38000D03*
X39300Y26700D03*
X28400Y28600D03*
X25800Y27100D03*
X16400Y5700D03*
X16900Y9200D03*
X54200Y5800D03*

M02*
