G04 Generated by Ultiboard 14.1 *
%FSLAX24Y24*%
%MOIN*%

%ADD10C,0.0001*%
%ADD11C,0.0039*%
%ADD12C,0.0050*%
%ADD13C,0.0150*%
%ADD14R,0.0394X0.0787*%
%ADD15C,0.1630*%
%ADD16C,0.4252*%
%ADD17C,0.0953*%
%ADD18C,0.0833*%
%ADD19C,0.0633*%
%ADD20R,0.0208X0.0208*%
%ADD21C,0.0392*%
%ADD22C,0.0197*%
%ADD23R,0.0197X0.0098*%
%ADD24R,0.0787X0.0394*%


G04 ColorRGB 00FF00 for the following layer *
%LNCopper Top*%
%LPD*%
G54D10*
G54D11*
X8800Y14100D02*
X10100Y15400D01*
X17500Y15400D01*
X8700Y14500D02*
X9800Y15600D01*
X17900Y15000D02*
X18400Y15500D01*
X18400Y15800D01*
X17500Y15400D02*
X17800Y15700D01*
X17800Y16100D01*
X24464Y10864D02*
X25100Y11500D01*
X21500Y5700D02*
X21882Y5700D01*
X21882Y5610D01*
X22010Y5482D01*
X23814Y5482D01*
X23814Y5497D01*
X24163Y5846D01*
X25114Y5846D01*
X25114Y6404D01*
X25307Y6404D01*
X25656Y6753D01*
X25656Y9444D01*
X25100Y10000D01*
X18700Y21600D02*
X17900Y21600D01*
X56150Y1000D02*
X62243Y1000D01*
X62243Y5765D01*
X62335Y5857D01*
X60812Y9800D02*
X60800Y9812D01*
X62500Y9800D02*
X62700Y9600D01*
X60812Y9800D02*
X62500Y9800D01*
X64837Y34463D02*
X64200Y35100D01*
X65935Y34463D02*
X64837Y34463D01*
X66006Y34533D02*
X65935Y34463D01*
X66006Y34906D02*
X66006Y34533D01*
X66100Y35000D02*
X66006Y34906D01*
X66100Y34200D02*
X65977Y34323D01*
X62700Y34335D02*
X62712Y34323D01*
X65977Y34323D02*
X62712Y34323D01*
X62700Y34335D02*
X62700Y35400D01*
X38500Y11700D02*
X38700Y11500D01*
X39300Y11500D01*
X44200Y6200D02*
X44200Y7900D01*
X43600Y8500D02*
X44200Y7900D01*
X43700Y5700D02*
X44200Y6200D01*
X62357Y5857D02*
X62700Y6200D01*
X62335Y5857D02*
X62357Y5857D01*
X62700Y6200D02*
X62700Y9600D01*
X49300Y21000D02*
X49143Y21000D01*
X49047Y21096D01*
X48553Y21096D01*
X48204Y20747D01*
X48204Y20658D01*
X17600Y1600D02*
X17600Y800D01*
X16580Y920D02*
X16600Y939D01*
X16600Y1800D01*
X15600Y2871D02*
X15600Y3592D01*
X14600Y3000D02*
X14600Y3592D01*
X13600Y4500D02*
X13600Y3584D01*
X11354Y2113D02*
X12846Y2113D01*
X12917Y2043D01*
X12917Y1081D01*
X10600Y2400D02*
X10400Y2200D01*
X9900Y2200D01*
X9600Y1900D01*
X9600Y1600D01*
X8600Y3600D02*
X8600Y4700D01*
X12600Y1700D02*
X12600Y800D01*
X29540Y20500D02*
X29664Y20624D01*
X27660Y20500D02*
X29540Y20500D01*
X29664Y20624D02*
X29664Y20747D01*
X30013Y21096D01*
X30507Y21096D01*
X30803Y20800D01*
X32400Y20800D01*
X29664Y18876D02*
X29664Y18753D01*
X30013Y18404D01*
X30507Y18404D01*
X30703Y18600D01*
X13428Y570D02*
X20270Y570D01*
X12917Y1081D02*
X13428Y570D01*
X20270Y570D02*
X20500Y800D01*
X32300Y21200D02*
X30800Y21200D01*
X11600Y811D02*
X11600Y1600D01*
X29300Y12100D02*
X29204Y12004D01*
X29000Y12207D01*
X29000Y12300D01*
X22117Y27000D02*
X21000Y27000D01*
X29664Y23376D02*
X29540Y23500D01*
X30804Y22904D02*
X30013Y22904D01*
X29664Y23253D01*
X29664Y23376D01*
X29540Y23500D02*
X27700Y23500D01*
X52400Y22800D02*
X52400Y26400D01*
X48896Y19596D02*
X49400Y20100D01*
X48553Y19596D02*
X48896Y19596D01*
X48204Y19247D02*
X48553Y19596D01*
X48204Y19143D02*
X48204Y19247D01*
X48100Y19039D02*
X48204Y19143D01*
X46892Y19039D02*
X48100Y19039D01*
X46853Y19000D02*
X46892Y19039D01*
X46200Y19000D02*
X46853Y19000D01*
X2900Y24100D02*
X5300Y24100D01*
X46300Y5600D02*
X46043Y5600D01*
X45797Y5846D01*
X45018Y5846D01*
X45018Y5710D01*
X44890Y5582D01*
X44710Y5582D01*
X44582Y5710D01*
X44582Y7482D01*
X44900Y7800D01*
X69200Y35500D02*
X69880Y34820D01*
X69880Y480D01*
X69600Y200D01*
X46500Y200D02*
X69600Y200D01*
X46500Y1400D02*
X46500Y200D01*
X46082Y2318D02*
X45800Y2600D01*
X44100Y3600D02*
X43600Y4100D01*
X43600Y5400D01*
X43546Y5454D01*
X43546Y5497D01*
X43400Y5643D01*
X43400Y6800D01*
X43600Y7000D02*
X43400Y6800D01*
X50600Y22500D02*
X50600Y23400D01*
X54182Y23982D02*
X55000Y24800D01*
X64600Y27000D02*
X64800Y27200D01*
X66800Y27200D01*
X69000Y27000D02*
X69000Y2500D01*
X66900Y400D01*
X50330Y400D01*
X46500Y1400D02*
X46100Y1800D01*
X46100Y2300D01*
X49361Y1370D02*
X49361Y1561D01*
X49400Y1600D01*
X50330Y400D02*
X49361Y1370D01*
X29071Y19639D02*
X28960Y19750D01*
X29071Y19639D02*
X31520Y19639D01*
X31600Y19800D01*
X29556Y18497D02*
X29207Y18846D01*
X29556Y18344D02*
X29556Y18497D01*
X40296Y19503D02*
X39947Y19154D01*
X40296Y19703D02*
X40296Y19503D01*
X40497Y19904D02*
X40296Y19703D01*
X41247Y19904D02*
X40497Y19904D01*
X41596Y20253D02*
X41247Y19904D01*
X41596Y20546D02*
X41596Y20253D01*
X42300Y21250D02*
X41596Y20546D01*
X29540Y19000D02*
X29664Y18876D01*
X27660Y19000D02*
X29540Y19000D01*
X29207Y18846D02*
X28413Y18846D01*
X28364Y18797D01*
X55000Y30600D02*
X55000Y33400D01*
X54400Y34000D01*
X53700Y34000D01*
X20000Y21600D02*
X20564Y22164D01*
X20000Y21600D02*
X19900Y21600D01*
X26082Y1018D02*
X26100Y1000D01*
X26082Y1779D02*
X26082Y1018D01*
X49800Y19400D02*
X49800Y21320D01*
X63500Y18100D02*
X63400Y18100D01*
X26360Y7750D02*
X26360Y4168D01*
X26082Y3890D01*
X50418Y19849D02*
X50385Y19882D01*
X50442Y19839D02*
X50418Y19849D01*
X50385Y19882D02*
X50059Y19882D01*
X49939Y20002D01*
X49939Y22210D01*
X49246Y22904D01*
X48553Y22904D01*
X48204Y23253D01*
X48204Y23300D01*
X48157Y23346D01*
X46354Y23346D01*
X46200Y23500D01*
X39947Y19154D02*
X39393Y19154D01*
X38808Y19739D02*
X37439Y19739D01*
X39393Y19154D02*
X38808Y19739D01*
X37439Y19739D02*
X37400Y19700D01*
X41247Y19596D02*
X40696Y19596D01*
X40100Y19000D01*
X32518Y21314D02*
X32414Y21418D01*
X32518Y21209D02*
X32518Y21314D01*
X32414Y21418D02*
X30710Y21418D01*
X30695Y21404D01*
X30004Y21404D01*
X29800Y21200D01*
X46200Y23500D02*
X44700Y23500D01*
X41700Y24961D02*
X41596Y24857D01*
X43004Y24857D02*
X42900Y24961D01*
X44700Y23500D02*
X43796Y24404D01*
X43353Y24404D01*
X43004Y24753D01*
X43004Y24857D01*
X42900Y24961D02*
X41700Y24961D01*
X41596Y24857D02*
X41596Y24753D01*
X41247Y24404D01*
X40596Y24404D01*
X40400Y24600D01*
X40193Y24600D01*
X39947Y24846D01*
X38846Y24846D01*
X38800Y24800D01*
X17700Y16500D02*
X17500Y16300D01*
X32400Y23100D02*
X32200Y22900D01*
X30702Y22900D01*
X29300Y12100D02*
X33300Y12100D01*
X64400Y28300D02*
X64200Y28300D01*
X64118Y28218D02*
X64200Y28300D01*
X41596Y19247D02*
X41247Y19596D01*
X41596Y18753D02*
X41596Y19247D01*
X42839Y18739D02*
X41592Y18739D01*
X42839Y18739D02*
X43000Y18900D01*
X43000Y19900D01*
X44000Y19900D01*
X44700Y20600D01*
X44900Y20600D02*
X44900Y21300D01*
X45500Y20300D02*
X45200Y20600D01*
X44700Y20600D02*
X45200Y20600D01*
X39900Y17500D02*
X37300Y17500D01*
X37300Y20800D02*
X36408Y20800D01*
X36390Y20782D01*
X32418Y20782D01*
X32400Y20800D01*
X47892Y20346D02*
X48204Y20658D01*
X47892Y20346D02*
X47046Y20346D01*
X46900Y20200D01*
X11300Y14300D02*
X11437Y14163D01*
X17963Y14163D01*
X18300Y14500D01*
X52100Y10600D02*
X52200Y10700D01*
X52200Y11500D01*
X12400Y32000D02*
X12300Y32000D01*
X36100Y21000D02*
X32727Y21000D01*
X32518Y21209D01*
X36200Y19700D02*
X36100Y19700D01*
X49738Y21382D02*
X49800Y21320D01*
X30800Y32600D02*
X33800Y32600D01*
X64100Y20000D02*
X64100Y22992D01*
X64250Y24650D02*
X64200Y24700D01*
X64400Y19700D02*
X64100Y20000D01*
X46593Y21550D02*
X47200Y21550D01*
X47500Y21250D02*
X47200Y21550D01*
X46593Y21550D02*
X46447Y21404D01*
X45604Y21800D02*
X45557Y21846D01*
X44653Y21846D01*
X44417Y21611D01*
X44358Y21611D01*
X44008Y21261D01*
X43025Y21261D01*
X42896Y21132D01*
X42896Y21003D01*
X42547Y20654D01*
X51182Y21600D02*
X51182Y21582D01*
X46146Y5382D02*
X46390Y5382D01*
X46518Y5510D01*
X46518Y6475D01*
X46796Y6753D01*
X46796Y7154D01*
X46904Y7154D01*
X46904Y8896D01*
X46200Y9600D01*
X46200Y10000D01*
X28800Y6204D02*
X28800Y6100D01*
X27536Y9096D02*
X27413Y9096D01*
X27660Y9220D02*
X27536Y9096D01*
X27660Y10000D02*
X27660Y9220D01*
X49738Y21382D02*
X48575Y21382D01*
X48080Y22000D02*
X46150Y22000D01*
X48575Y21382D02*
X48204Y21753D01*
X48204Y21876D01*
X48080Y22000D01*
X45953Y21404D02*
X45604Y21753D01*
X46447Y21404D02*
X45953Y21404D01*
X45604Y21753D02*
X45604Y21800D01*
X10400Y21000D02*
X10400Y23800D01*
X10100Y24100D02*
X10400Y23800D01*
X10600Y20800D02*
X10400Y21000D01*
X52700Y15592D02*
X52910Y15382D01*
X52700Y15592D02*
X52700Y19900D01*
X50600Y20100D02*
X50600Y19997D01*
X50442Y19839D01*
X17400Y15600D02*
X17500Y15700D01*
X9800Y15600D02*
X17400Y15600D01*
X17500Y15700D02*
X17500Y16300D01*
X14600Y1600D02*
X14600Y1800D01*
X14600Y900D02*
X14600Y1600D01*
X11354Y2113D02*
X11340Y2100D01*
X10850Y2100D01*
X10600Y1850D01*
X10600Y1600D01*
X27900Y18000D02*
X28364Y18464D01*
X28364Y18797D02*
X28364Y18464D01*
X21803Y24096D02*
X21756Y24050D01*
X23200Y24700D02*
X22596Y24096D01*
X21803Y24096D01*
X20564Y22164D02*
X20564Y23500D01*
X20564Y23497D01*
X21756Y23703D02*
X21553Y23500D01*
X21756Y24050D02*
X21756Y23703D01*
X19400Y23500D02*
X21553Y23500D01*
X30418Y33918D02*
X33082Y33918D01*
X33182Y33818D01*
X30300Y33800D02*
X30418Y33918D01*
X29000Y21300D02*
X29500Y21800D01*
X29500Y22100D01*
X41704Y19997D02*
X41704Y19904D01*
X41600Y19800D01*
X42360Y20654D02*
X41704Y19997D01*
X42360Y20654D02*
X42547Y20654D01*
X46888Y19600D02*
X46900Y19612D01*
X45050Y19600D02*
X44900Y19750D01*
X46900Y19612D02*
X46900Y20200D01*
X46888Y19600D02*
X45050Y19600D01*
X14000Y14500D02*
X14500Y15000D01*
X17900Y15000D01*
X14000Y14500D02*
X12300Y14500D01*
X20500Y27500D02*
X20300Y27300D01*
X20300Y23800D01*
X64418Y23310D02*
X64418Y24482D01*
X64100Y22992D02*
X64418Y23310D01*
X64418Y24482D02*
X64218Y24682D01*
X4000Y22400D02*
X4200Y22200D01*
X6200Y22200D01*
X13097Y30797D02*
X13000Y30700D01*
X12400Y32000D02*
X13600Y30800D01*
X13600Y30500D02*
X13600Y30800D01*
X34196Y10804D02*
X34296Y10904D01*
X30113Y10804D02*
X34196Y10804D01*
X29664Y11253D02*
X30113Y10804D01*
X29664Y11376D02*
X29664Y11253D01*
X29540Y11500D02*
X29664Y11376D01*
X27660Y11500D02*
X29540Y11500D01*
X51000Y19600D02*
X51000Y20200D01*
X51000Y19600D02*
X49496Y18096D01*
X48305Y18096D01*
X48290Y18082D01*
X48096Y18082D01*
X48096Y17346D01*
X47253Y17346D01*
X46904Y16997D01*
X46904Y16239D01*
X46496Y16239D01*
X46500Y16239D02*
X46500Y14600D01*
X46400Y14500D01*
X39900Y17500D02*
X40500Y18100D01*
X42300Y18100D01*
X6000Y28500D02*
X5800Y28300D01*
X6000Y34500D02*
X6000Y28500D01*
X3292Y20900D02*
X3292Y20779D01*
X2700Y20900D02*
X3292Y20900D01*
X2639Y20961D02*
X2700Y20900D01*
X2639Y23239D02*
X2639Y20961D01*
X2700Y23300D02*
X2639Y23239D01*
X6100Y23300D02*
X2700Y23300D01*
X6200Y23400D02*
X6100Y23300D01*
X6200Y27300D02*
X6200Y23400D01*
X20860Y37660D02*
X20700Y37500D01*
X20700Y36900D01*
X20600Y36800D01*
X18900Y36800D01*
X18800Y36900D01*
X18800Y37700D01*
X4900Y27779D02*
X4591Y27779D01*
X4900Y27600D02*
X4900Y27779D01*
X10500Y36800D02*
X6600Y36800D01*
X6500Y36700D01*
X6500Y27600D01*
X21860Y37660D02*
X21700Y37500D01*
X21600Y37500D01*
X21600Y35800D01*
X3479Y26779D02*
X3292Y26779D01*
X3600Y26900D02*
X3479Y26779D01*
X3600Y28200D02*
X3600Y26900D01*
X3700Y28300D02*
X3600Y28200D01*
X5800Y28300D02*
X3700Y28300D01*
X65900Y6940D02*
X65940Y6940D01*
X65900Y8392D02*
X65900Y6940D01*
X65940Y8392D02*
X65900Y8392D01*
X45800Y4000D02*
X45550Y3750D01*
X51600Y6300D02*
X47200Y6300D01*
X13591Y21900D02*
X13591Y21779D01*
X11700Y21900D02*
X13591Y21900D01*
X11600Y22000D02*
X11700Y21900D01*
X11600Y23200D02*
X11600Y22000D01*
X11700Y23300D02*
X11600Y23200D01*
X15800Y23300D02*
X11700Y23300D01*
X15900Y23400D02*
X15800Y23300D01*
X15900Y28900D02*
X15900Y23400D01*
X13591Y23900D02*
X13591Y23779D01*
X11700Y23900D02*
X13591Y23900D01*
X11600Y24000D02*
X11700Y23900D01*
X11600Y38600D02*
X11600Y24000D01*
X53821Y37279D02*
X54046Y37279D01*
X53700Y37400D02*
X53821Y37279D01*
X52200Y37400D02*
X53700Y37400D01*
X52100Y37500D02*
X52200Y37400D01*
X52100Y38700D02*
X52100Y37500D01*
X52200Y38800D02*
X52100Y38700D01*
X64700Y38800D02*
X52200Y38800D01*
X64800Y38700D02*
X64700Y38800D01*
X64800Y35000D02*
X64800Y38700D01*
X64900Y34900D02*
X64800Y35000D01*
X65492Y34900D02*
X64900Y34900D01*
X65492Y34779D02*
X65492Y34900D01*
X8283Y3000D02*
X3300Y3000D01*
X8283Y500D02*
X8283Y3000D01*
X8300Y500D02*
X8283Y500D01*
X8400Y400D02*
X8300Y500D01*
X27300Y400D02*
X8400Y400D01*
X27400Y500D02*
X27300Y400D01*
X27400Y2500D02*
X27400Y500D01*
X58700Y30900D02*
X58600Y30900D01*
X58700Y32700D02*
X58700Y30900D01*
X65940Y8688D02*
X65928Y8700D01*
X12292Y20900D02*
X12292Y20779D01*
X11100Y20900D02*
X12292Y20900D01*
X56679Y30779D02*
X56492Y30779D01*
X56800Y30900D02*
X56679Y30779D01*
X58600Y30900D02*
X56800Y30900D01*
X52927Y38100D02*
X52747Y38279D01*
X62200Y38100D02*
X52927Y38100D01*
X62300Y38000D02*
X62200Y38100D01*
X62300Y33500D02*
X62300Y38000D01*
X66400Y31900D02*
X66400Y33300D01*
X66791Y31900D02*
X66400Y31900D01*
X66791Y31779D02*
X66791Y31900D01*
X44550Y4200D02*
X44250Y4500D01*
X44600Y4200D02*
X44550Y4200D01*
X44600Y3100D02*
X44600Y4200D01*
X44700Y3000D02*
X44600Y3100D01*
X57200Y21300D02*
X57100Y21200D01*
X59100Y21300D02*
X57200Y21300D01*
X59200Y21400D02*
X59100Y21300D01*
X59200Y32400D02*
X59200Y21400D01*
X13591Y19900D02*
X13591Y19779D01*
X13200Y19900D02*
X13591Y19900D01*
X13200Y21200D02*
X13200Y19900D01*
X13100Y21300D02*
X13200Y21200D01*
X11400Y21300D02*
X13100Y21300D01*
X11300Y21400D02*
X11400Y21300D01*
X11300Y38000D02*
X11300Y21400D01*
X17079Y13579D02*
X16906Y13579D01*
X17200Y13700D02*
X17079Y13579D01*
X18700Y13700D02*
X17200Y13700D01*
X18800Y13800D02*
X18700Y13700D01*
X18800Y17800D02*
X18800Y13800D01*
X18700Y17900D02*
X18800Y17800D01*
X17300Y17900D02*
X18700Y17900D01*
X17200Y18000D02*
X17300Y17900D01*
X17200Y27600D02*
X17200Y18000D01*
X17300Y27700D02*
X17200Y27600D01*
X18300Y27700D02*
X17300Y27700D01*
X18400Y27800D02*
X18300Y27700D01*
X18400Y35400D02*
X18400Y27800D01*
X18500Y35500D02*
X18400Y35400D01*
X24600Y35500D02*
X18500Y35500D01*
X24700Y35600D02*
X24600Y35500D01*
X24700Y37500D02*
X24700Y35600D01*
X24860Y37660D02*
X24700Y37500D01*
X32200Y34200D02*
X30800Y34200D01*
X39000Y2900D02*
X39000Y2800D01*
X44300Y2900D02*
X39000Y2900D01*
X3600Y22779D02*
X3292Y22779D01*
X3600Y21300D02*
X3600Y22779D01*
X3700Y21200D02*
X3600Y21300D01*
X7900Y21200D02*
X3700Y21200D01*
X8000Y21100D02*
X7900Y21200D01*
X8000Y13800D02*
X8000Y21100D01*
X8100Y13700D02*
X8000Y13800D01*
X16600Y13700D02*
X8100Y13700D01*
X16721Y13579D02*
X16600Y13700D01*
X16906Y13579D02*
X16721Y13579D01*
X31200Y6700D02*
X31200Y6600D01*
X40200Y6700D02*
X31200Y6700D01*
X40300Y6600D02*
X40200Y6700D01*
X40300Y6400D02*
X40300Y6600D01*
X40400Y6300D02*
X40300Y6400D01*
X43400Y6300D02*
X40400Y6300D01*
X18800Y35100D02*
X18800Y29500D01*
X18900Y35200D02*
X18800Y35100D01*
X26000Y35200D02*
X18900Y35200D01*
X26100Y35300D02*
X26000Y35200D01*
X26100Y37000D02*
X26100Y35300D01*
X26200Y37100D02*
X26100Y37000D01*
X33500Y37100D02*
X26200Y37100D01*
X33600Y37000D02*
X33500Y37100D01*
X33600Y36800D02*
X33600Y37000D01*
X33700Y36700D02*
X33600Y36800D01*
X36200Y36700D02*
X33700Y36700D01*
X1700Y6940D02*
X1740Y6940D01*
X1700Y8392D02*
X1700Y6940D01*
X1740Y8392D02*
X1700Y8392D01*
X45200Y1500D02*
X45200Y2400D01*
X68500Y6940D02*
X68540Y6940D01*
X68500Y8392D02*
X68500Y6940D01*
X68540Y8392D02*
X68500Y8392D01*
X20300Y23800D02*
X19600Y23800D01*
X25400Y27500D02*
X20500Y27500D01*
X25500Y27600D02*
X25400Y27500D01*
X25500Y28790D02*
X25500Y27600D01*
X25710Y29000D02*
X25500Y28790D01*
X25100Y3000D02*
X20700Y3000D01*
X25200Y2900D02*
X25100Y3000D01*
X25200Y2700D02*
X25200Y2900D01*
X66300Y24000D02*
X65500Y24000D01*
X66400Y23900D02*
X66300Y24000D01*
X66791Y23900D02*
X66400Y23900D01*
X66791Y23779D02*
X66791Y23900D01*
X37800Y5000D02*
X37800Y3500D01*
X30800Y3500D02*
X30800Y3400D01*
X39200Y3500D02*
X30800Y3500D01*
X39300Y3400D02*
X39200Y3500D01*
X39300Y3300D02*
X39300Y3400D01*
X39400Y3200D02*
X39300Y3300D01*
X42700Y3200D02*
X39400Y3200D01*
X42950Y3450D02*
X42700Y3200D01*
X42950Y3750D02*
X42950Y3450D01*
X53700Y17800D02*
X53800Y17800D01*
X53700Y34000D02*
X53700Y17800D01*
X49000Y8500D02*
X48800Y8500D01*
X49200Y8700D02*
X49000Y8500D01*
X50200Y8700D02*
X49200Y8700D01*
X19300Y23600D02*
X19300Y27800D01*
X19400Y23500D02*
X19300Y23600D01*
X4500Y6940D02*
X4540Y6940D01*
X4500Y8392D02*
X4500Y6940D01*
X4540Y8392D02*
X4500Y8392D01*
X13800Y25779D02*
X13591Y25779D01*
X13800Y27200D02*
X13800Y25779D01*
X26700Y38820D02*
X26700Y39700D01*
X26860Y38660D02*
X26700Y38820D01*
X12479Y18779D02*
X12292Y18779D01*
X12600Y18900D02*
X12479Y18779D01*
X16500Y18900D02*
X12600Y18900D01*
X16600Y19000D02*
X16500Y18900D01*
X16600Y27700D02*
X16600Y19000D01*
X12479Y22779D02*
X12292Y22779D01*
X12600Y22900D02*
X12479Y22779D01*
X16100Y22900D02*
X12600Y22900D01*
X16200Y23000D02*
X16100Y22900D01*
X16200Y27900D02*
X16200Y23000D01*
X16300Y28000D02*
X16200Y27900D01*
X17800Y28000D02*
X16300Y28000D01*
X17900Y28100D02*
X17800Y28000D01*
X17900Y39100D02*
X17900Y28100D01*
X18000Y39200D02*
X17900Y39100D01*
X23600Y39200D02*
X18000Y39200D01*
X23700Y39100D02*
X23600Y39200D01*
X23700Y38820D02*
X23700Y39100D01*
X23860Y38660D02*
X23700Y38820D01*
X4779Y21779D02*
X4591Y21779D01*
X4900Y21900D02*
X4779Y21779D01*
X35000Y30600D02*
X33300Y30600D01*
X39100Y30700D02*
X39100Y28900D01*
X39200Y30800D02*
X39100Y30700D01*
X47200Y30800D02*
X39200Y30800D01*
X27300Y27960D02*
X27010Y28250D01*
X42200Y30400D02*
X42200Y28000D01*
X42300Y30500D02*
X42200Y30400D01*
X46200Y30500D02*
X42300Y30500D01*
X46300Y30400D02*
X46200Y30500D01*
X46300Y28500D02*
X46300Y30400D01*
X27600Y34900D02*
X27600Y35500D01*
X50200Y21100D02*
X50200Y23500D01*
X18400Y1500D02*
X18400Y1700D01*
X25900Y4100D02*
X25900Y1500D01*
X25710Y4290D02*
X25900Y4100D01*
X25710Y4500D02*
X25710Y4290D01*
X27900Y33400D02*
X27900Y33600D01*
X28000Y33300D02*
X27900Y33400D01*
X37400Y33300D02*
X28000Y33300D01*
X37500Y33200D02*
X37400Y33300D01*
X37500Y32500D02*
X37500Y33200D01*
X37600Y32400D02*
X37500Y32500D01*
X50600Y32400D02*
X37600Y32400D01*
X50700Y32300D02*
X50600Y32400D01*
X50700Y24800D02*
X50700Y32300D01*
X12479Y24779D02*
X12292Y24779D01*
X12600Y24900D02*
X12479Y24779D01*
X15400Y24900D02*
X12600Y24900D01*
X15500Y25000D02*
X15400Y24900D01*
X15500Y28000D02*
X15500Y25000D01*
X17600Y39400D02*
X17600Y29600D01*
X17700Y39500D02*
X17600Y39400D01*
X25600Y39500D02*
X17700Y39500D01*
X25700Y39400D02*
X25600Y39500D01*
X25700Y38820D02*
X25700Y39400D01*
X25860Y38660D02*
X25700Y38820D01*
X32800Y2000D02*
X32800Y1400D01*
X32900Y2100D02*
X32800Y2000D01*
X44500Y2100D02*
X32900Y2100D01*
X44600Y2000D02*
X44500Y2100D01*
X44600Y1200D02*
X44600Y2000D01*
X44700Y1100D02*
X44600Y1200D01*
X45800Y1100D02*
X44700Y1100D01*
X45900Y1200D02*
X45800Y1100D01*
X45900Y1400D02*
X45900Y1200D01*
X6229Y21900D02*
X4900Y21900D01*
X27900Y3000D02*
X27900Y3488D01*
X27588Y3800D02*
X27060Y3800D01*
X27010Y3750D01*
X27900Y3488D02*
X27588Y3800D01*
X34700Y31600D02*
X32500Y31600D01*
X32400Y31500D01*
X32400Y31100D01*
X32300Y31100D01*
X52600Y8100D02*
X52500Y8000D01*
X52500Y3900D01*
X55800Y8100D02*
X52600Y8100D01*
X52500Y3900D02*
X52400Y3800D01*
X55900Y8200D02*
X55800Y8100D01*
X52400Y3800D02*
X52400Y3584D01*
X55900Y9000D02*
X55900Y8200D01*
X61100Y22300D02*
X60500Y22300D01*
X60500Y22400D01*
X61200Y22200D02*
X61100Y22300D01*
X61200Y10800D02*
X61200Y22200D01*
X61100Y10700D02*
X61200Y10800D01*
X58300Y10700D02*
X61100Y10700D01*
X57500Y9900D02*
X58300Y10700D01*
X57500Y4300D02*
X57500Y9900D01*
X57500Y4300D02*
X57400Y4200D01*
X36500Y19400D02*
X36200Y19700D01*
X39200Y19000D02*
X39000Y19200D01*
X40100Y19000D02*
X39200Y19000D01*
X39000Y19200D02*
X38800Y19400D01*
X36500Y19400D01*
X49500Y3798D02*
X49800Y4098D01*
X49500Y3798D02*
X49179Y3798D01*
X49800Y4098D02*
X49800Y4100D01*
X49179Y3798D02*
X48697Y3315D01*
X45959Y3315D01*
X45797Y3154D01*
X45303Y3154D01*
X44954Y3503D01*
X44954Y3997D01*
X31061Y11361D02*
X38200Y11361D01*
X31061Y11361D02*
X31000Y11300D01*
X28300Y23850D02*
X28050Y24100D01*
X28600Y22100D02*
X29179Y22100D01*
X51000Y34300D02*
X51000Y29900D01*
X50900Y34400D02*
X51000Y34300D01*
X43200Y34400D02*
X50900Y34400D01*
X43100Y34500D02*
X43200Y34400D01*
X43100Y37000D02*
X43100Y34500D01*
X43000Y37100D02*
X43100Y37000D01*
X34000Y37100D02*
X43000Y37100D01*
X51100Y11200D02*
X49900Y10000D01*
X48800Y10000D01*
X53150Y28650D02*
X53150Y15750D01*
X53150Y28650D02*
X53000Y28800D01*
X53150Y15750D02*
X53000Y15600D01*
X12200Y36200D02*
X12600Y35800D01*
X13594Y35800D01*
X47500Y9250D02*
X47150Y9600D01*
X46800Y9600D01*
X29005Y9300D02*
X28905Y9200D01*
X54400Y12400D02*
X54400Y11629D01*
X54450Y11579D01*
X45496Y8604D02*
X44900Y9200D01*
X45496Y7503D02*
X45496Y8604D01*
X45147Y7154D02*
X45496Y7503D01*
X44800Y7154D02*
X45147Y7154D01*
X44800Y5800D02*
X44800Y7154D01*
X6000Y34500D02*
X5900Y34600D01*
X31900Y11700D02*
X32000Y11600D01*
X31900Y11800D02*
X31900Y11700D01*
X47800Y31100D02*
X47800Y30800D01*
X47700Y31200D02*
X47800Y31100D01*
X36700Y31200D02*
X47700Y31200D01*
X36600Y31100D02*
X36700Y31200D01*
X36600Y29300D02*
X36600Y31100D01*
X32000Y11600D02*
X37500Y11600D01*
X30600Y34900D02*
X30500Y34800D01*
X33050Y30850D02*
X31950Y30850D01*
X33300Y30600D02*
X33050Y30850D01*
X32300Y30600D02*
X31700Y30600D01*
X28750Y31250D02*
X31550Y31250D01*
X31950Y30850D01*
X28600Y31400D02*
X28750Y31250D01*
X31300Y31000D02*
X30230Y31000D01*
X31700Y30600D02*
X31300Y31000D01*
X11200Y11800D02*
X7600Y11800D01*
X6800Y11000D01*
X5200Y11000D01*
X15950Y29450D02*
X12550Y29450D01*
X17000Y28400D02*
X15950Y29450D01*
X12550Y29450D02*
X12500Y29400D01*
X34800Y30300D02*
X30400Y30300D01*
X30300Y30400D01*
X33392Y18600D02*
X33510Y18718D01*
X33690Y18718D01*
X33200Y17500D02*
X30260Y17500D01*
X11068Y20932D02*
X11100Y20900D01*
X11068Y39232D02*
X11068Y20932D01*
X11068Y39232D02*
X11000Y39300D01*
X10700Y28300D02*
X10600Y28200D01*
X10500Y28200D01*
X10500Y27500D02*
X10700Y27300D01*
X20500Y3200D02*
X20500Y7100D01*
X20600Y7200D01*
X20700Y3000D02*
X20500Y3200D01*
X28500Y26600D02*
X28256Y26356D01*
X28256Y24753D01*
X27907Y24404D01*
X27232Y24404D01*
X26956Y24128D01*
X26956Y21325D01*
X27185Y21096D01*
X27252Y20935D01*
X27064Y20747D01*
X27064Y19207D01*
X26956Y19100D01*
X26956Y18254D01*
X27864Y17346D01*
X27932Y17346D01*
X28000Y17279D01*
X28000Y16205D01*
X29000Y15205D01*
X42160Y27960D02*
X27300Y27960D01*
X42200Y28000D02*
X42160Y27960D01*
X30537Y9300D02*
X29005Y9300D01*
X31700Y9700D02*
X34100Y9700D01*
X34300Y9900D01*
X33153Y455D02*
X33090Y518D01*
X32627Y518D01*
X32590Y482D01*
X28818Y482D01*
X28100Y1200D01*
X19300Y6600D02*
X19800Y6100D01*
X19300Y7488D02*
X18700Y8088D01*
X18700Y8600D02*
X18700Y8088D01*
X19300Y7488D02*
X19300Y6600D01*
X23800Y5700D02*
X24464Y6364D01*
X23800Y5700D02*
X22100Y5700D01*
X24464Y6364D02*
X24464Y10864D01*
X28100Y2300D02*
X28100Y1200D01*
X26082Y3890D02*
X26082Y1779D01*
X25488Y1862D02*
X25500Y1873D01*
X18712Y1862D02*
X18700Y1873D01*
X25500Y2400D02*
X25500Y1873D01*
X25488Y1862D02*
X18712Y1862D01*
X18700Y1873D02*
X18700Y7000D01*
X40650Y34250D02*
X40800Y34100D01*
X34250Y34250D02*
X33600Y34900D01*
X40650Y34250D02*
X34250Y34250D01*
X33600Y34900D02*
X30600Y34900D01*
X30900Y24600D02*
X31200Y24900D01*
X37400Y25050D02*
X37250Y24900D01*
X31200Y24900D02*
X37250Y24900D01*
X34355Y455D02*
X34400Y500D01*
X34355Y455D02*
X33153Y455D01*
X42950Y5250D02*
X28550Y5250D01*
X28400Y5400D01*
X44954Y3997D02*
X45584Y4627D01*
X45835Y4627D02*
X46146Y4939D01*
X46146Y5382D01*
X45584Y4627D02*
X45835Y4627D01*
X45800Y4371D02*
X45800Y4000D01*
X46700Y5800D02*
X46700Y5271D01*
X45800Y4371D01*
X47200Y6300D02*
X46700Y5800D01*
X43600Y27500D02*
X43600Y29550D01*
X29700Y18200D02*
X29556Y18344D01*
X29950Y27100D02*
X30271Y27421D01*
X30579Y27421D01*
X30700Y27300D01*
X42682Y27418D02*
X43600Y26500D01*
X42679Y27421D02*
X42682Y27418D01*
X30050Y27500D02*
X34592Y27500D01*
X36200Y27500D02*
X48088Y27500D01*
X45050Y2550D02*
X27450Y2550D01*
X45200Y2400D02*
X45050Y2550D01*
X27400Y2500D02*
X27900Y3000D01*
X25700Y1300D02*
X18600Y1300D01*
X25900Y1500D02*
X25700Y1300D01*
X18600Y1300D02*
X18400Y1500D01*
X38350Y13150D02*
X40392Y13150D01*
X38350Y13150D02*
X38300Y13100D01*
X40392Y13150D02*
X40404Y13162D01*
X40404Y13247D01*
X40753Y13596D01*
X41247Y13596D01*
X41596Y13247D01*
X41596Y13062D01*
X41658Y13000D02*
X41596Y13062D01*
X41658Y13000D02*
X43600Y13000D01*
X30537Y9300D02*
X31437Y10200D01*
X32600Y10200D01*
X32700Y10100D02*
X32600Y10200D01*
X32700Y10100D02*
X34192Y10100D01*
X34210Y10118D01*
X40400Y10600D02*
X41650Y10600D01*
X39918Y10118D02*
X40400Y10600D01*
X34210Y10118D02*
X39918Y10118D01*
X31218Y8918D02*
X31200Y8900D01*
X34558Y8850D02*
X34490Y8918D01*
X39100Y8850D02*
X34558Y8850D01*
X34490Y8918D02*
X31218Y8918D01*
X10700Y22100D02*
X10700Y27300D01*
X14100Y3012D02*
X14100Y3300D01*
X14112Y3000D02*
X14600Y3000D01*
X14100Y3012D02*
X14112Y3000D01*
X13090Y2860D02*
X15589Y2860D01*
X13000Y2950D02*
X13090Y2860D01*
X15589Y2860D02*
X15600Y2871D01*
X16588Y2721D02*
X16600Y2732D01*
X16600Y3592D01*
X12521Y2721D02*
X12200Y2400D01*
X12521Y2721D02*
X16588Y2721D01*
X6850Y27150D02*
X6850Y22521D01*
X6850Y27150D02*
X7000Y27300D01*
X6850Y22521D02*
X6229Y21900D01*
X8800Y24600D02*
X8800Y34400D01*
X8900Y24500D02*
X8800Y24600D01*
X9000Y24500D02*
X8900Y24500D01*
X9100Y24400D02*
X9000Y24500D01*
X9100Y21500D02*
X9100Y24400D01*
X9000Y21500D02*
X9100Y21500D01*
X46700Y2700D02*
X50100Y2700D01*
X50200Y2600D01*
X50200Y900D01*
X50300Y800D01*
X62300Y800D01*
X62400Y900D01*
X62400Y4000D01*
X62500Y4100D01*
X63600Y4100D01*
X63700Y4200D01*
X63700Y11700D01*
X26700Y1800D02*
X26500Y2000D01*
X26500Y3200D01*
X60623Y8100D02*
X61700Y8100D01*
X60612Y8100D02*
X60600Y8088D01*
X62000Y8400D02*
X61700Y8100D01*
X66250Y33450D02*
X62350Y33450D01*
X62300Y33500D01*
X66400Y33300D02*
X66250Y33450D01*
X37000Y28300D02*
X36900Y28200D01*
X37000Y28400D02*
X37000Y28300D01*
X32800Y28200D02*
X36900Y28200D01*
X28800Y28200D02*
X32800Y28200D01*
X28800Y28200D02*
X28700Y28300D01*
X32700Y28200D02*
X32700Y28600D01*
X28700Y28300D02*
X28700Y30700D01*
X28600Y30800D01*
X20500Y30800D01*
X20400Y30700D01*
X20400Y28600D01*
X20300Y28500D01*
X19012Y28500D01*
X19000Y28488D02*
X19012Y28500D01*
X19000Y28488D02*
X19000Y23212D01*
X19012Y23200D01*
X19100Y23200D01*
X19200Y23100D01*
X19200Y20400D01*
X19300Y20300D01*
X19800Y20300D01*
X19900Y20200D01*
X19900Y17300D01*
X20000Y17200D01*
X20300Y17200D01*
X20400Y17100D01*
X20400Y15700D01*
X20500Y15600D01*
X20900Y15600D01*
X20900Y15510D01*
X21160Y15250D01*
X35800Y30900D02*
X33500Y30900D01*
X36023Y18900D02*
X35800Y18900D01*
X36218Y18705D02*
X36023Y18900D01*
X29400Y16800D02*
X29350Y16750D01*
X33200Y16800D02*
X33200Y17100D01*
X29350Y16750D02*
X28960Y16750D01*
X65700Y27900D02*
X64700Y27900D01*
X65700Y27900D02*
X65900Y27700D01*
X68100Y17500D02*
X68100Y27300D01*
X67900Y17300D02*
X68100Y17500D01*
X67900Y17300D02*
X67100Y17300D01*
X62500Y15000D02*
X62500Y16400D01*
X51439Y28739D02*
X51700Y29000D01*
X51700Y29300D01*
X51182Y25772D02*
X51439Y26030D01*
X51182Y25772D02*
X51182Y21600D01*
X51439Y28739D02*
X51439Y26030D01*
X41800Y27100D02*
X41800Y26900D01*
X41700Y27200D02*
X41800Y27100D01*
X8200Y35500D02*
X7600Y35500D01*
X8300Y35400D02*
X8200Y35500D01*
X8300Y17300D02*
X8300Y35400D01*
X8400Y17200D02*
X8300Y17300D01*
X18100Y17200D02*
X8400Y17200D01*
X18100Y15900D02*
X18100Y16000D01*
X18100Y15600D02*
X18100Y15900D01*
X17700Y15200D02*
X18100Y15600D01*
X10300Y15200D02*
X17700Y15200D01*
X9400Y14300D02*
X10300Y15200D01*
X38700Y36300D02*
X33400Y36300D01*
X33300Y36400D01*
X33300Y36700D01*
X33200Y36800D01*
X26500Y36800D01*
X26400Y36700D01*
X26400Y34100D01*
X26300Y34000D01*
X20200Y34000D01*
X20100Y33900D01*
X20100Y29600D01*
X10700Y13900D02*
X10500Y14100D01*
X18200Y13900D02*
X10700Y13900D01*
X18200Y13900D02*
X18400Y14100D01*
X24200Y21900D02*
X24200Y22347D01*
X24356Y22503D01*
X24356Y23644D01*
X23800Y24200D01*
X24464Y26436D02*
X24100Y26800D01*
X24464Y26253D02*
X24464Y26436D01*
X24813Y25904D02*
X24464Y26253D01*
X25563Y25904D02*
X24813Y25904D01*
X25764Y25703D02*
X25563Y25904D01*
X25764Y25503D02*
X25764Y25703D01*
X26113Y25154D02*
X25764Y25503D01*
X26456Y25154D02*
X26113Y25154D01*
X26800Y24810D02*
X26456Y25154D01*
X26800Y24000D02*
X26800Y24810D01*
X26610Y24000D02*
X26800Y24000D01*
X26360Y24250D02*
X26610Y24000D01*
X29000Y32000D02*
X29000Y32200D01*
X29100Y32300D01*
X29600Y32300D01*
X30050Y31850D01*
X34950Y31850D01*
X35200Y31600D01*
X49800Y31600D01*
X49900Y31500D01*
X49900Y24300D01*
X48200Y24300D02*
X50909Y24300D01*
X50909Y22091D02*
X50909Y24309D01*
X48200Y24300D02*
X48096Y24196D01*
X48096Y24003D01*
X47747Y23654D01*
X46843Y23654D01*
X46796Y23700D01*
X46796Y23747D01*
X46447Y24096D01*
X45004Y24096D01*
X44900Y24200D01*
X25207Y27196D02*
X22313Y27196D01*
X22117Y27000D01*
X26200Y26800D02*
X25603Y26800D01*
X25207Y27196D01*
X26200Y26800D02*
X26300Y26900D01*
X31622Y11222D02*
X31500Y11100D01*
X34508Y11000D02*
X38200Y11000D01*
X31500Y13802D02*
X31398Y13904D01*
X31500Y13700D02*
X31500Y13802D01*
X34287Y11222D02*
X31622Y11222D01*
X34508Y11000D02*
X34287Y11222D01*
X31398Y13904D02*
X30013Y13904D01*
X29664Y14253D01*
X29664Y14426D01*
X29490Y14600D01*
X30700Y36100D02*
X32000Y36100D01*
X29490Y14600D02*
X27200Y14600D01*
X30400Y36400D02*
X30700Y36100D01*
X27200Y14600D02*
X26679Y14079D01*
X25279Y14079D01*
X24100Y12900D01*
X24100Y12600D02*
X24100Y12900D01*
X23700Y12200D02*
X24100Y12600D01*
X65928Y8700D02*
X65928Y11600D01*
X63700Y11700D02*
X63639Y11761D01*
X65928Y11600D02*
X65628Y11900D01*
X51650Y23350D02*
X51650Y6350D01*
X51650Y23350D02*
X51700Y23400D01*
X51650Y6350D02*
X51600Y6300D01*
X57482Y17400D02*
X57482Y17382D01*
X58582Y18500D02*
X57482Y17400D01*
X53346Y15382D02*
X54182Y16218D01*
X54182Y23982D01*
X52910Y15382D02*
X53346Y15382D01*
X39700Y19775D02*
X39700Y19700D01*
X35500Y20000D02*
X39475Y20000D01*
X39700Y19775D01*
X35500Y20000D02*
X35300Y20200D01*
X34477Y20200D02*
X35300Y20200D01*
X33756Y19479D02*
X34477Y20200D01*
X31021Y19479D02*
X33756Y19479D01*
X31000Y19500D02*
X31021Y19479D01*
X57083Y16217D02*
X57000Y16300D01*
X57100Y17056D02*
X57000Y16956D01*
X57100Y17056D02*
X57100Y21200D01*
X57000Y16956D02*
X57000Y16300D01*
X66000Y23400D02*
X65500Y22900D01*
X65500Y22800D01*
X57900Y26900D02*
X58000Y27000D01*
X58000Y27050D01*
X63800Y19300D02*
X63800Y24900D01*
X63900Y19300D02*
X63800Y19300D01*
X63800Y24900D02*
X63900Y25000D01*
X61800Y33000D02*
X59000Y33000D01*
X58700Y32700D01*
X62100Y32700D02*
X61800Y33000D01*
X13363Y27463D02*
X14163Y27463D01*
X13000Y27100D02*
X13363Y27463D01*
X59200Y20200D02*
X58400Y20200D01*
X60800Y21700D02*
X59200Y20200D01*
X52100Y34000D02*
X52100Y28900D01*
X51700Y28500D01*
X51700Y24100D01*
X51800Y24000D01*
X52000Y24000D01*
X52100Y23900D01*
X52100Y23300D01*
X52100Y20100D01*
X52200Y20000D02*
X52100Y20100D01*
X52200Y15700D02*
X52200Y20000D01*
X52200Y15700D02*
X51800Y15300D01*
X14163Y27463D02*
X14500Y27800D01*
X51800Y13400D02*
X51800Y15300D01*
X51800Y13400D02*
X52400Y12800D01*
X55900Y35550D02*
X55650Y35800D01*
X55800Y35450D02*
X55529Y35721D01*
X55700Y35350D02*
X55450Y35600D01*
X52600Y35600D01*
X44200Y35600D02*
X52600Y35600D01*
X55529Y35721D02*
X44412Y35721D01*
X44400Y35733D01*
X44700Y35812D02*
X44700Y38050D01*
X55650Y35800D02*
X45300Y35800D01*
X44712Y35800D02*
X44700Y35812D01*
X45300Y35800D02*
X44712Y35800D01*
X36600Y6200D02*
X33200Y6200D01*
X7371Y30400D02*
X7500Y30400D01*
X7025Y31550D02*
X7025Y30746D01*
X6975Y31600D02*
X6875Y31600D01*
X7025Y31550D02*
X6975Y31600D01*
X7025Y30746D02*
X7371Y30400D01*
X3600Y30300D02*
X3600Y28900D01*
X3479Y28779D01*
X3292Y28779D01*
X7100Y30300D02*
X6800Y30600D01*
X6800Y31200D01*
X7600Y27100D02*
X7100Y27600D01*
X7600Y25700D02*
X7600Y27100D01*
X7100Y27600D02*
X4900Y27600D01*
X4850Y8700D02*
X4850Y9127D01*
X4857Y9135D01*
X4857Y9943D01*
X3600Y11200D01*
X3600Y12788D01*
X9500Y9400D02*
X9500Y3684D01*
X9600Y3584D01*
X9850Y9750D02*
X9500Y9400D01*
X13350Y9750D02*
X9850Y9750D01*
X13350Y9750D02*
X13400Y9700D01*
X16100Y1725D02*
X16100Y2400D01*
X16100Y1725D02*
X15975Y1600D01*
X15600Y1600D01*
X27413Y9096D02*
X27064Y8747D01*
X28600Y6404D02*
X28604Y6404D01*
X28600Y6404D02*
X28800Y6204D01*
X27064Y6753D02*
X27413Y6404D01*
X28600Y6404D01*
X27064Y6753D02*
X27064Y8747D01*
X16388Y7100D02*
X16488Y7000D01*
X15450Y6450D02*
X15791Y6791D01*
X13600Y800D02*
X13600Y1600D01*
X65100Y15300D02*
X64100Y15300D01*
X65150Y15350D02*
X65100Y15300D01*
X65150Y17950D02*
X65150Y15350D01*
X65150Y17950D02*
X65200Y18000D01*
X42650Y5850D02*
X27412Y5850D01*
X42650Y5850D02*
X42700Y5900D01*
X25700Y5400D02*
X24954Y4654D01*
X24139Y4654D01*
X23458Y5335D01*
X21165Y5335D01*
X20800Y5700D01*
X14600Y10200D02*
X13700Y11100D01*
X7908Y11100D02*
X13700Y11100D01*
X7908Y11100D02*
X7408Y10600D01*
X5200Y10600D02*
X7408Y10600D01*
X27950Y35850D02*
X42250Y35850D01*
X27600Y35500D02*
X27950Y35850D01*
X42250Y35850D02*
X42500Y35600D01*
X25368Y31632D02*
X29032Y31632D01*
X29300Y31900D01*
X25200Y31800D02*
X25368Y31632D01*
X27200Y31900D02*
X27200Y34500D01*
X26700Y31900D02*
X26900Y32100D01*
X26900Y34300D01*
X52100Y24400D02*
X52100Y26800D01*
X52200Y26900D01*
X27600Y34500D02*
X27600Y32200D01*
X32800Y34500D02*
X30100Y34500D01*
X35300Y27200D02*
X41700Y27200D01*
X27000Y5438D02*
X27000Y5260D01*
X27412Y5850D02*
X27000Y5438D01*
X27000Y5260D02*
X27010Y5250D01*
X26652Y1400D02*
X26300Y1400D01*
X27121Y1870D02*
X26652Y1400D01*
X27118Y2818D02*
X27121Y2815D01*
X27121Y1870D02*
X27121Y2815D01*
X27500Y3200D02*
X27118Y2818D01*
X2450Y31100D02*
X5200Y31100D01*
X10100Y30300D02*
X10700Y29700D01*
X10700Y28300D01*
X35100Y30500D02*
X35000Y30600D01*
X31800Y29600D02*
X35100Y29600D01*
X35100Y28900D02*
X35100Y30500D01*
X35100Y28900D02*
X39100Y28900D01*
X45600Y28200D02*
X46000Y28200D01*
X45600Y28200D02*
X45550Y28250D01*
X46000Y28200D02*
X46300Y28500D01*
X64107Y25000D02*
X64118Y25012D01*
X64118Y28218D01*
X63900Y25000D02*
X64107Y25000D01*
X54500Y30200D02*
X54200Y29900D01*
X54200Y27400D01*
X54500Y32000D02*
X54500Y30200D01*
X63512Y14950D02*
X63662Y14800D01*
X66100Y14800D02*
X66400Y14500D01*
X63662Y14800D02*
X66100Y14800D01*
X66400Y13000D02*
X66400Y14500D01*
X62639Y11761D02*
X61800Y12600D01*
X65628Y11900D02*
X62697Y11900D01*
X62100Y12497D02*
X62100Y32700D01*
X62697Y11900D02*
X62100Y12497D01*
X63639Y11761D02*
X62639Y11761D01*
X61800Y12600D02*
X61800Y22700D01*
X59000Y19400D02*
X60000Y20400D01*
X60400Y20400D01*
X60100Y20700D02*
X59068Y19668D01*
X29400Y16800D02*
X35588Y16800D01*
X35800Y17012D02*
X35588Y16800D01*
X35800Y18088D02*
X35800Y17012D01*
X33690Y18718D02*
X33808Y18600D01*
X36000Y18600D01*
X30703Y18600D02*
X33392Y18600D01*
X34000Y18200D02*
X29700Y18200D01*
X34700Y17500D02*
X34000Y18200D01*
X36218Y18507D02*
X35800Y18088D01*
X36218Y18507D02*
X36218Y18705D01*
X16388Y7100D02*
X14300Y7100D01*
X16196Y8100D02*
X15100Y8100D01*
X12600Y5163D02*
X13887Y6450D01*
X12600Y5163D02*
X12600Y3584D01*
X13887Y6450D02*
X15450Y6450D01*
X14300Y7100D02*
X11600Y4400D01*
X11600Y3584D01*
X10600Y4228D02*
X10600Y3584D01*
X10912Y4539D02*
X11539Y4539D01*
X10912Y4539D02*
X10600Y4228D01*
X15100Y8100D02*
X11539Y4539D01*
X5200Y29815D02*
X5200Y30900D01*
X5200Y29815D02*
X5185Y29800D01*
X4606Y29800D01*
X18100Y16000D02*
X18100Y17200D01*
X44200Y35600D02*
X44200Y35850D01*
X44200Y36700D02*
X44100Y36800D01*
X44200Y35600D02*
X44200Y36700D01*
X44100Y36800D02*
X43312Y36800D01*
X58700Y19668D02*
X58582Y19550D01*
X58582Y18500D01*
X59068Y19668D02*
X58700Y19668D01*
X35138Y27418D02*
X42682Y27418D01*
X30700Y27300D02*
X35020Y27300D01*
X35138Y27418D01*
X34710Y27382D02*
X34990Y27382D01*
X34592Y27500D02*
X34710Y27382D01*
X30460Y19200D02*
X35550Y19200D01*
X35108Y27500D02*
X36200Y27500D01*
X34990Y27382D02*
X35108Y27500D01*
X57033Y3012D02*
X57083Y16217D01*
X57033Y3000D02*
X44700Y3000D01*
X26700Y29400D02*
X26450Y29400D01*
X26700Y29440D02*
X26700Y29400D01*
X27010Y29750D02*
X26700Y29440D01*
X26450Y29400D02*
X26400Y29350D01*
X26400Y27650D01*
X26450Y27600D01*
X27250Y27600D01*
X27350Y27700D01*
X29850Y27700D01*
X30050Y27500D01*
X48088Y27500D02*
X48100Y27488D01*
X48100Y25950D01*
X43600Y29550D02*
X43850Y29800D01*
X48100Y25950D02*
X48150Y25900D01*
X43850Y29800D02*
X45500Y29800D01*
X48150Y25900D02*
X49550Y25900D01*
X45500Y29800D02*
X45550Y29750D01*
X49550Y25900D02*
X49600Y25850D01*
X49600Y25300D01*
X28250Y21400D02*
X27200Y21400D01*
X28300Y21450D02*
X28250Y21400D01*
X28300Y23338D02*
X28300Y21450D01*
X28312Y23350D02*
X28300Y23338D01*
X29488Y23350D02*
X28312Y23350D01*
X29488Y23350D02*
X29500Y23338D01*
X29500Y23050D02*
X29500Y23338D01*
X29700Y22850D02*
X29500Y23050D01*
X29700Y22750D02*
X29700Y22850D01*
X29750Y22700D02*
X29700Y22750D01*
X31950Y22700D02*
X29750Y22700D01*
X32000Y22650D02*
X31950Y22700D01*
X32000Y22223D02*
X32000Y22650D01*
X32123Y22100D02*
X32000Y22223D01*
X40250Y22100D02*
X32123Y22100D01*
X40300Y22150D02*
X40250Y22100D01*
X40300Y24050D02*
X40300Y22150D01*
X40350Y24100D02*
X40300Y24050D01*
X41650Y24100D02*
X40350Y24100D01*
X41700Y24050D02*
X41650Y24100D01*
X41700Y23650D02*
X41700Y24050D01*
X41750Y23600D02*
X41700Y23650D01*
X42950Y23600D02*
X41750Y23600D01*
X43000Y23650D02*
X42950Y23600D01*
X43000Y24050D02*
X43000Y23650D01*
X43050Y24100D02*
X43000Y24050D01*
X43850Y24100D02*
X43050Y24100D01*
X44200Y23750D02*
X43850Y24100D01*
X44200Y22250D02*
X44200Y23750D01*
X44150Y22200D02*
X44200Y22250D01*
X44000Y22200D02*
X44150Y22200D01*
X43800Y22000D02*
X44000Y22200D01*
X43600Y22000D02*
X43800Y22000D01*
X24100Y27900D02*
X20050Y27900D01*
X24410Y28250D02*
X24100Y27940D01*
X24100Y27900D01*
X20050Y27900D02*
X20000Y27850D01*
X20000Y24800D01*
X59400Y1800D02*
X59400Y1600D01*
X59500Y1900D02*
X59400Y1800D01*
X59500Y1950D02*
X59500Y1900D01*
X59600Y2050D02*
X59500Y1950D01*
X59600Y2350D02*
X59600Y2050D01*
X59650Y2400D02*
X59600Y2350D01*
X59938Y2400D02*
X59650Y2400D01*
X59950Y8700D02*
X59950Y2400D01*
X60050Y8800D02*
X59950Y8700D01*
X62200Y8800D02*
X60050Y8800D01*
X62200Y8900D02*
X62200Y8800D01*
X58100Y30200D02*
X58100Y29900D01*
X57979Y29779D01*
X57791Y29779D01*
X63500Y26050D02*
X63500Y30300D01*
X63450Y26000D02*
X63500Y26050D01*
X62350Y26000D02*
X63450Y26000D01*
X62300Y25950D02*
X62350Y26000D01*
X62300Y16750D02*
X62300Y25950D01*
X62350Y16700D02*
X62300Y16750D01*
X62850Y16700D02*
X62350Y16700D01*
X62900Y16650D02*
X62850Y16700D01*
X62900Y12523D02*
X62900Y16650D01*
X62912Y12512D02*
X62900Y12523D01*
X68038Y12512D02*
X62912Y12512D01*
X68300Y12250D02*
X68038Y12512D01*
X68300Y8750D02*
X68300Y12250D01*
X68350Y8700D02*
X68300Y8750D01*
X68500Y8700D02*
X68350Y8700D01*
X68512Y8688D02*
X68500Y8700D01*
X68540Y8688D02*
X68512Y8688D01*
X59400Y5000D02*
X59400Y3584D01*
X60400Y1800D02*
X60400Y1600D01*
X60600Y2050D02*
X60500Y1950D01*
X60500Y1900D02*
X60400Y1800D01*
X60500Y1950D02*
X60500Y1900D01*
X60600Y3050D02*
X60600Y2050D01*
X60650Y3100D02*
X60600Y3050D01*
X61050Y3100D02*
X60650Y3100D01*
X61100Y3150D02*
X61050Y3100D01*
X61100Y7950D02*
X61100Y3150D01*
X61150Y8000D02*
X61100Y7950D01*
X62100Y8000D02*
X61150Y8000D01*
X28960Y13750D02*
X29350Y13750D01*
X29400Y13700D02*
X31150Y13700D01*
X29350Y13750D02*
X29400Y13700D01*
X31150Y13700D02*
X31200Y13650D01*
X31200Y13450D01*
X31250Y13400D01*
X37950Y13400D01*
X38000Y13450D01*
X38000Y14350D01*
X38050Y14400D01*
X40250Y14400D01*
X40300Y14350D01*
X40300Y13950D01*
X40350Y13900D01*
X41650Y13900D01*
X41700Y13850D01*
X41700Y13450D01*
X42000Y13150D01*
X42888Y13150D01*
X42900Y13162D02*
X42900Y13850D01*
X42888Y13150D02*
X42900Y13162D01*
X42900Y13850D02*
X42950Y13900D01*
X47100Y13900D01*
X47250Y13750D01*
X47500Y13750D01*
X17150Y17500D02*
X18100Y17500D01*
X17100Y17550D02*
X17150Y17500D01*
X17100Y17650D02*
X17100Y17550D01*
X17050Y17700D02*
X17100Y17650D01*
X10250Y17700D02*
X17050Y17700D01*
X10200Y17750D02*
X10250Y17700D01*
X10200Y23550D02*
X10200Y17750D01*
X10150Y23600D02*
X10200Y23550D01*
X9550Y23600D02*
X10150Y23600D01*
X9500Y23650D02*
X9550Y23600D01*
X9500Y27650D02*
X9500Y23650D01*
X9600Y27750D02*
X9500Y27650D01*
X10500Y27750D02*
X9600Y27750D01*
X10850Y28100D02*
X10500Y27750D01*
X10850Y30150D02*
X10850Y28100D01*
X10850Y30150D02*
X10500Y30500D01*
X55000Y12100D02*
X55000Y22650D01*
X55050Y22700D01*
X55650Y22700D01*
X55700Y22750D01*
X55700Y23250D01*
X55750Y23300D01*
X56150Y23300D01*
X56200Y23350D01*
X56200Y24779D01*
X56492Y24779D01*
X56492Y24900D01*
X56100Y24950D02*
X56050Y25000D01*
X56100Y24900D02*
X56100Y24950D01*
X56492Y24900D02*
X56100Y24900D01*
X56050Y25000D02*
X55750Y25000D01*
X55700Y25050D01*
X55700Y35350D01*
X43300Y36812D02*
X43312Y36800D01*
X43300Y36800D02*
X43300Y37500D01*
X43300Y36850D02*
X43300Y36812D01*
X43300Y37500D02*
X43140Y37660D01*
X63100Y8392D02*
X63100Y6940D01*
X63140Y8392D02*
X63100Y8392D01*
X63100Y6940D02*
X63140Y6940D01*
X60500Y3900D02*
X60400Y3800D01*
X60500Y3950D02*
X60500Y3900D01*
X60600Y4050D02*
X60500Y3950D01*
X60400Y3800D02*
X60400Y3584D01*
X60600Y8088D02*
X60600Y4050D01*
X61400Y1800D02*
X61400Y1600D01*
X61500Y1900D02*
X61400Y1800D01*
X61500Y1950D02*
X61500Y1900D01*
X61600Y2050D02*
X61500Y1950D01*
X61600Y3050D02*
X61600Y2050D01*
X61650Y3100D02*
X61600Y3050D01*
X61850Y3100D02*
X61650Y3100D01*
X61900Y3150D02*
X61850Y3100D01*
X61900Y7800D02*
X61900Y3150D01*
X57212Y25000D02*
X57700Y25000D01*
X57133Y24921D02*
X57212Y25000D01*
X57133Y21583D02*
X57133Y24921D01*
X57050Y21500D02*
X57133Y21583D01*
X56850Y21500D02*
X57050Y21500D01*
X56800Y21450D02*
X56850Y21500D01*
X56800Y20900D02*
X56800Y21450D01*
X56679Y20779D02*
X56800Y20900D01*
X56492Y20779D02*
X56679Y20779D01*
X7300Y8392D02*
X7300Y6940D01*
X7340Y8392D02*
X7300Y8392D01*
X7300Y6940D02*
X7340Y6940D01*
X57900Y25791D02*
X57900Y26900D01*
X57900Y25791D02*
X57888Y25779D01*
X57791Y25779D02*
X57888Y25779D01*
X57400Y1800D02*
X57400Y1600D01*
X57500Y1900D02*
X57400Y1800D01*
X57500Y1950D02*
X57500Y1900D01*
X57600Y2050D02*
X57500Y1950D01*
X57600Y2450D02*
X57600Y2050D01*
X57650Y2500D02*
X57600Y2450D01*
X59850Y2500D02*
X57650Y2500D01*
X59871Y2521D02*
X59850Y2500D01*
X59871Y8821D02*
X59871Y2521D01*
X59950Y8900D02*
X59871Y8821D01*
X61950Y8900D02*
X59950Y8900D01*
X62000Y8950D02*
X61950Y8900D01*
X62000Y9250D02*
X62000Y8950D01*
X61950Y9300D02*
X62000Y9250D01*
X60750Y9300D02*
X61950Y9300D01*
X60700Y9350D02*
X60750Y9300D01*
X60700Y10200D02*
X60700Y9350D01*
X60800Y10200D02*
X60700Y10200D01*
X53500Y8700D02*
X53379Y8579D01*
X53500Y8750D02*
X53500Y8700D01*
X53379Y8579D02*
X53150Y8579D01*
X53550Y8800D02*
X53500Y8750D01*
X55150Y8800D02*
X53550Y8800D01*
X55200Y8850D02*
X55150Y8800D01*
X55200Y22550D02*
X55200Y8850D01*
X55250Y22600D02*
X55200Y22550D01*
X56100Y22600D02*
X55250Y22600D01*
X56279Y22779D02*
X56100Y22600D01*
X56492Y22779D02*
X56279Y22779D01*
X56679Y22779D02*
X56800Y22900D01*
X56492Y22779D02*
X56679Y22779D01*
X56800Y22900D02*
X56950Y22900D01*
X57054Y23004D01*
X57054Y24996D01*
X56950Y25100D01*
X55850Y25100D01*
X55800Y25150D01*
X55800Y35450D01*
X44400Y35733D02*
X44400Y37250D01*
X44300Y37350D01*
X44300Y37500D01*
X44140Y37660D01*
X46300Y38820D02*
X46140Y38660D01*
X46350Y39000D02*
X46300Y38950D01*
X46300Y38820D01*
X46750Y39000D02*
X46350Y39000D01*
X46850Y39100D02*
X46750Y39000D01*
X67350Y39100D02*
X46850Y39100D01*
X67479Y38971D02*
X67350Y39100D01*
X67479Y26029D02*
X67479Y38971D01*
X67350Y25900D02*
X67479Y26029D01*
X67100Y25900D02*
X67350Y25900D01*
X66979Y25779D02*
X67100Y25900D01*
X66791Y25779D02*
X66979Y25779D01*
X57400Y24350D02*
X57400Y24600D01*
X57212Y24162D02*
X57400Y24350D01*
X57212Y21962D02*
X57212Y24162D01*
X57212Y21962D02*
X57273Y21900D01*
X57791Y21900D02*
X57273Y21900D01*
X57791Y21779D02*
X57791Y21900D01*
X65492Y24800D02*
X66200Y24800D01*
X65492Y24779D02*
X65492Y24800D01*
X41300Y38820D02*
X41140Y38660D01*
X41300Y38950D02*
X41300Y38820D01*
X41350Y39000D02*
X41300Y38950D01*
X41750Y39000D02*
X41350Y39000D01*
X41800Y39050D02*
X41750Y39000D01*
X41800Y39150D02*
X41800Y39050D01*
X41850Y39200D02*
X41800Y39150D01*
X67450Y39200D02*
X41850Y39200D01*
X67557Y39093D02*
X67450Y39200D01*
X67557Y21007D02*
X67557Y39093D01*
X67450Y20900D02*
X67557Y21007D01*
X65800Y20900D02*
X67450Y20900D01*
X65679Y20779D02*
X65800Y20900D01*
X65492Y20779D02*
X65679Y20779D01*
X39300Y38820D02*
X39140Y38660D01*
X39300Y38950D02*
X39300Y38820D01*
X39400Y39050D02*
X39300Y38950D01*
X39400Y39350D02*
X39400Y39050D01*
X39450Y39400D02*
X39400Y39350D01*
X67650Y39400D02*
X39450Y39400D01*
X67715Y39335D02*
X67650Y39400D01*
X67715Y19065D02*
X67715Y39335D01*
X67650Y19000D02*
X67715Y19065D01*
X65850Y19000D02*
X67650Y19000D01*
X65800Y18950D02*
X65850Y19000D01*
X65800Y18900D02*
X65800Y18950D01*
X65679Y18779D02*
X65800Y18900D01*
X65492Y18779D02*
X65679Y18779D01*
X67100Y21900D02*
X67100Y22500D01*
X66979Y21779D02*
X67100Y21900D01*
X66791Y21779D02*
X66979Y21779D01*
X29600Y22521D02*
X29179Y22100D01*
X29650Y22600D02*
X29600Y22550D01*
X29600Y22521D01*
X31850Y22600D02*
X29650Y22600D01*
X31900Y22550D02*
X31850Y22600D01*
X31900Y22211D02*
X31900Y22550D01*
X32111Y22000D02*
X31900Y22211D01*
X40350Y22000D02*
X32111Y22000D01*
X40400Y22050D02*
X40350Y22000D01*
X40400Y22850D02*
X40400Y22050D01*
X40450Y22900D02*
X40400Y22850D01*
X41650Y22900D02*
X40450Y22900D01*
X41700Y22950D02*
X41650Y22900D01*
X41700Y23350D02*
X41700Y22950D01*
X41750Y23400D02*
X41700Y23350D01*
X43200Y23400D02*
X41750Y23400D01*
X43300Y23500D02*
X43200Y23400D01*
X43600Y23500D02*
X43300Y23500D01*
X26360Y9560D02*
X26360Y9250D01*
X26500Y9700D02*
X26360Y9560D01*
X26500Y9750D02*
X26500Y9700D01*
X26550Y9800D02*
X26500Y9750D01*
X26950Y9800D02*
X26550Y9800D01*
X27000Y9850D02*
X26950Y9800D01*
X27000Y10550D02*
X27000Y9850D01*
X27050Y10600D02*
X27000Y10550D01*
X28150Y10600D02*
X27050Y10600D01*
X28200Y10550D02*
X28150Y10600D01*
X28200Y10350D02*
X28200Y10550D01*
X28300Y10250D02*
X28200Y10350D01*
X28300Y7150D02*
X28300Y10250D01*
X28350Y7100D02*
X28300Y7150D01*
X29550Y7100D02*
X28350Y7100D01*
X29600Y7150D02*
X29550Y7100D01*
X29600Y7750D02*
X29600Y7150D01*
X29650Y7800D02*
X29600Y7750D01*
X39050Y7800D02*
X29650Y7800D01*
X39100Y7750D02*
X39050Y7800D01*
X39100Y7150D02*
X39100Y7750D01*
X39150Y7100D02*
X39100Y7150D01*
X40350Y7100D02*
X39150Y7100D01*
X40400Y7150D02*
X40350Y7100D01*
X40400Y7550D02*
X40400Y7150D01*
X40450Y7600D02*
X40400Y7550D01*
X41650Y7600D02*
X40450Y7600D01*
X41700Y7550D02*
X41650Y7600D01*
X41700Y7150D02*
X41700Y7550D01*
X41750Y7100D02*
X41700Y7150D01*
X42888Y7100D02*
X41750Y7100D01*
X42900Y8950D02*
X42900Y7112D01*
X42888Y7100D01*
X43150Y9200D02*
X42900Y8950D01*
X44850Y9200D02*
X43150Y9200D01*
X44850Y9200D02*
X44900Y9250D01*
X6300Y20900D02*
X4400Y20900D01*
X3800Y20300D01*
X8000Y30900D02*
X8000Y31000D01*
X8050Y30900D02*
X8000Y30900D01*
X8100Y30850D02*
X8050Y30900D01*
X8100Y24950D02*
X8100Y30850D01*
X8050Y24900D02*
X8100Y24950D01*
X11900Y28900D02*
X11900Y29600D01*
X11900Y29750D02*
X11900Y29600D01*
X7600Y24900D02*
X8050Y24900D01*
X12292Y28900D02*
X11900Y28900D01*
X12050Y29900D02*
X11900Y29750D01*
X12292Y28779D02*
X12292Y28900D01*
X12863Y29900D02*
X12050Y29900D01*
X12863Y29900D02*
X12875Y29912D01*
X12875Y31275D02*
X12875Y29912D01*
X12875Y31275D02*
X12775Y31375D01*
X7600Y18700D02*
X7250Y18700D01*
X12050Y31375D02*
X12775Y31375D01*
X7250Y18700D02*
X7200Y18650D01*
X11800Y31650D02*
X12050Y31400D01*
X12050Y31375D01*
X7200Y18650D02*
X7200Y12200D01*
X11800Y32150D02*
X11800Y31650D01*
X12050Y32400D02*
X11800Y32150D01*
X16350Y32400D02*
X12050Y32400D01*
X16400Y32450D02*
X16350Y32400D01*
X16400Y39650D02*
X16400Y32450D01*
X16450Y39700D02*
X16400Y39650D01*
X26250Y39700D02*
X16450Y39700D01*
X26300Y39650D02*
X26250Y39700D01*
X26300Y37850D02*
X26300Y39650D01*
X26250Y37800D02*
X26300Y37850D01*
X26000Y37800D02*
X26250Y37800D01*
X10800Y6900D02*
X10800Y8850D01*
X25860Y37660D02*
X26000Y37800D01*
X10800Y8850D02*
X10850Y8900D01*
X15150Y8900D01*
X15200Y8950D01*
X15200Y10250D01*
X15300Y10350D01*
X15300Y10579D01*
X15607Y10579D01*
X7600Y30800D02*
X7950Y30800D01*
X8000Y30750D01*
X8000Y25450D01*
X7950Y25400D01*
X13000Y29950D02*
X13000Y30700D01*
X7950Y25400D02*
X7500Y25400D01*
X13050Y29900D02*
X13000Y29950D01*
X13591Y29900D02*
X13050Y29900D01*
X13591Y29779D02*
X13591Y29900D01*
X7400Y18900D02*
X7750Y18900D01*
X7800Y18850D01*
X7800Y18550D01*
X7750Y18500D01*
X7350Y18500D01*
X7300Y18450D01*
X7300Y12400D01*
X7325Y12400D02*
X7325Y12325D01*
X7300Y12400D02*
X7325Y12400D01*
X7325Y12325D02*
X7400Y12325D01*
X7400Y12050D01*
X7350Y12000D01*
X7000Y12000D01*
X10600Y9250D02*
X10600Y8000D01*
X10650Y9300D02*
X10600Y9250D01*
X14988Y9300D02*
X10650Y9300D01*
X15000Y9312D02*
X14988Y9300D01*
X15000Y11250D02*
X15000Y9312D01*
X15150Y11400D02*
X15000Y11250D01*
X16600Y11400D02*
X15150Y11400D01*
X16600Y11579D02*
X16600Y11400D01*
X16906Y11579D02*
X16600Y11579D01*
X25900Y12200D02*
X24450Y12200D01*
X25950Y12250D02*
X25900Y12200D01*
X26360Y12250D02*
X25950Y12250D01*
X24450Y12200D02*
X24400Y12150D01*
X24400Y11650D01*
X24350Y11600D01*
X23150Y11600D01*
X23100Y11650D01*
X23100Y12050D01*
X23050Y12100D01*
X21850Y12100D01*
X21800Y12150D01*
X21800Y12850D01*
X21750Y12900D01*
X19450Y12900D01*
X19400Y12950D01*
X19400Y18550D01*
X19271Y18679D01*
X18812Y18679D01*
X18800Y18690D01*
X18800Y19550D01*
X18850Y19600D01*
X18950Y19600D01*
X19000Y19650D01*
X19000Y21850D01*
X18950Y21900D01*
X18450Y21900D01*
X18400Y21950D01*
X18400Y23200D01*
X13779Y35779D02*
X13591Y35779D01*
X13900Y35900D02*
X13779Y35779D01*
X13900Y35950D02*
X13900Y35900D01*
X14000Y36050D02*
X13900Y35950D01*
X14000Y39750D02*
X14000Y36050D01*
X14050Y39800D02*
X14000Y39750D01*
X26350Y39800D02*
X14050Y39800D01*
X26400Y39750D02*
X26350Y39800D01*
X26400Y37850D02*
X26400Y39750D01*
X26450Y37800D02*
X26400Y37850D01*
X26720Y37800D02*
X26450Y37800D01*
X26860Y37660D02*
X26720Y37800D01*
X7100Y19300D02*
X7100Y15550D01*
X7050Y15500D01*
X5350Y15500D01*
X5300Y15450D01*
X5300Y12000D01*
X10400Y9350D02*
X10400Y8400D01*
X10450Y9400D02*
X10400Y9350D01*
X14888Y9400D02*
X10450Y9400D01*
X14900Y9412D02*
X14888Y9400D01*
X14900Y12250D02*
X14900Y9412D01*
X15050Y12400D02*
X14900Y12250D01*
X15300Y12400D02*
X15050Y12400D01*
X15300Y12579D02*
X15300Y12400D01*
X15607Y12579D02*
X15300Y12579D01*
X26360Y11060D02*
X26360Y10750D01*
X26500Y11200D02*
X26360Y11060D01*
X26500Y11250D02*
X26500Y11200D01*
X26550Y11300D02*
X26500Y11250D01*
X26950Y11300D02*
X26550Y11300D01*
X27000Y11350D02*
X26950Y11300D01*
X27000Y12350D02*
X27000Y11350D01*
X27050Y12400D02*
X27000Y12350D01*
X28250Y12400D02*
X27050Y12400D01*
X28300Y12450D02*
X28250Y12400D01*
X28300Y12850D02*
X28300Y12450D01*
X28350Y12900D02*
X28300Y12850D01*
X29550Y12900D02*
X28350Y12900D01*
X29600Y12850D02*
X29550Y12900D01*
X29600Y12450D02*
X29600Y12850D01*
X29650Y12400D02*
X29600Y12450D01*
X38050Y12400D02*
X29650Y12400D01*
X38100Y12450D02*
X38050Y12400D01*
X16900Y17500D02*
X10150Y17500D01*
X38100Y12650D02*
X38100Y12450D01*
X10150Y17500D02*
X10100Y17550D01*
X38150Y12700D02*
X38100Y12650D01*
X10100Y17550D02*
X10100Y23050D01*
X39150Y12700D02*
X38150Y12700D01*
X10100Y23050D02*
X10050Y23100D01*
X39200Y12750D02*
X39150Y12700D01*
X10050Y23100D02*
X10000Y23100D01*
X39200Y12850D02*
X39200Y12750D01*
X10000Y23100D02*
X10000Y23200D01*
X39250Y12900D02*
X39200Y12850D01*
X40250Y12900D02*
X39250Y12900D01*
X40300Y12850D02*
X40250Y12900D01*
X40300Y12250D02*
X40300Y12850D01*
X40350Y12200D02*
X40300Y12250D01*
X41650Y12200D02*
X40350Y12200D01*
X41700Y12150D02*
X41650Y12200D01*
X41700Y11550D02*
X41700Y12150D01*
X41750Y11500D02*
X41700Y11550D01*
X42950Y11500D02*
X41750Y11500D01*
X43000Y11450D02*
X42950Y11500D01*
X43000Y10950D02*
X43000Y11450D01*
X43050Y10900D02*
X43000Y10950D01*
X44500Y10900D02*
X43050Y10900D01*
X44650Y10750D02*
X44500Y10900D01*
X44900Y10750D02*
X44650Y10750D01*
X24600Y20400D02*
X23150Y20400D01*
X24700Y20500D02*
X24600Y20400D01*
X25060Y20500D02*
X24700Y20500D01*
X23150Y20400D02*
X23100Y20350D01*
X23100Y19950D01*
X23050Y19900D01*
X21850Y19900D01*
X21800Y19950D01*
X21800Y20350D01*
X21750Y20400D01*
X20650Y20400D01*
X20600Y20450D01*
X20600Y20950D01*
X20550Y21000D01*
X19650Y21000D01*
X19600Y21050D01*
X19600Y22400D01*
X55400Y33900D02*
X55400Y31300D01*
X5600Y23600D02*
X5600Y24350D01*
X5550Y24400D01*
X5050Y24400D01*
X5000Y24450D01*
X5000Y25450D01*
X4900Y25550D01*
X4900Y25779D01*
X4591Y25779D01*
X4591Y25900D02*
X4591Y25779D01*
X4200Y25950D02*
X4200Y25900D01*
X4100Y26050D02*
X4200Y25950D01*
X4200Y25900D02*
X4591Y25900D01*
X4100Y27350D02*
X4100Y26050D01*
X4000Y27450D02*
X4100Y27350D01*
X4000Y28050D02*
X4000Y27450D01*
X4050Y28100D02*
X4000Y28050D01*
X6250Y28100D02*
X4050Y28100D01*
X6300Y28150D02*
X6250Y28100D01*
X6300Y38250D02*
X6300Y28150D01*
X6350Y38300D02*
X6300Y38250D01*
X10700Y38300D02*
X6350Y38300D01*
X12000Y9900D02*
X12100Y10000D01*
X12000Y9900D02*
X9312Y9900D01*
X9300Y9877D02*
X9300Y3150D01*
X9312Y9900D02*
X9300Y9888D01*
X9300Y3150D02*
X9250Y3100D01*
X8850Y3100D01*
X8800Y3050D01*
X8800Y2050D01*
X8700Y1950D01*
X8700Y1900D01*
X8600Y1800D02*
X8600Y1600D01*
X8700Y1900D02*
X8600Y1800D01*
X25400Y26500D02*
X25060Y26500D01*
X26850Y26600D02*
X25500Y26600D01*
X25400Y26500D01*
X26900Y26650D02*
X26850Y26600D01*
X26900Y27150D02*
X26900Y26650D01*
X26950Y27200D02*
X26900Y27150D01*
X29450Y27200D02*
X26950Y27200D01*
X29550Y27100D02*
X29450Y27200D01*
X29950Y27100D02*
X29550Y27100D01*
X4700Y9200D02*
X2050Y9200D01*
X1800Y9450D01*
X1800Y24250D01*
X2050Y24500D01*
X2850Y24500D01*
X2900Y24550D01*
X2900Y24600D01*
X3079Y24779D01*
X3292Y24779D01*
X2900Y24900D02*
X3292Y24900D01*
X2900Y24950D02*
X2900Y24900D01*
X2850Y25000D02*
X2900Y24950D01*
X3292Y24900D02*
X3292Y24779D01*
X2650Y25000D02*
X2850Y25000D01*
X2600Y25050D02*
X2650Y25000D01*
X2600Y30700D02*
X2600Y25050D01*
X3200Y30300D02*
X3200Y30779D01*
X2700Y29850D02*
X3150Y30300D01*
X3200Y30300D01*
X3200Y30779D02*
X3292Y30779D01*
X2700Y25312D02*
X2700Y29850D01*
X2712Y25300D02*
X2700Y25312D01*
X3750Y25300D02*
X2712Y25300D01*
X4000Y25050D02*
X3750Y25300D01*
X4000Y24450D02*
X4000Y25050D01*
X3900Y24350D02*
X4000Y24450D01*
X2512Y24350D02*
X3900Y24350D01*
X2512Y24350D02*
X2500Y24338D01*
X2500Y12812D02*
X2500Y24338D01*
X3588Y12800D02*
X2512Y12800D01*
X2500Y12812D02*
X2512Y12800D01*
X3600Y12800D02*
X3588Y12800D01*
X4600Y8700D02*
X4850Y8700D01*
X4588Y8688D02*
X4600Y8700D01*
X4540Y8688D02*
X4588Y8688D01*
X5200Y31450D02*
X5200Y30900D01*
X5200Y36350D02*
X5200Y31450D01*
X2450Y31100D02*
X2400Y31050D01*
X5250Y36400D02*
X5200Y36350D01*
X2400Y31050D02*
X2400Y25250D01*
X6000Y36400D02*
X5250Y36400D01*
X2400Y25250D02*
X1700Y24550D01*
X1700Y8728D01*
X1740Y8688D01*
X41700Y10550D02*
X41650Y10600D01*
X41700Y9950D02*
X41700Y10550D01*
X41750Y9900D02*
X41700Y9950D01*
X42950Y9900D02*
X41750Y9900D01*
X43000Y9850D02*
X42950Y9900D01*
X43000Y9450D02*
X43000Y9850D01*
X43050Y9400D02*
X43000Y9450D01*
X44250Y9400D02*
X43050Y9400D01*
X44300Y9450D02*
X44250Y9400D01*
X44300Y9950D02*
X44300Y9450D01*
X44350Y10000D02*
X44300Y9950D01*
X45550Y10000D02*
X44350Y10000D01*
X45600Y10050D02*
X45550Y10000D01*
X45600Y10550D02*
X45600Y10050D01*
X45650Y10600D02*
X45600Y10550D01*
X46750Y10600D02*
X45650Y10600D01*
X46800Y10550D02*
X46750Y10600D01*
X46800Y9600D02*
X46800Y10550D01*
X26360Y26060D02*
X26360Y25750D01*
X26500Y26200D02*
X26360Y26060D01*
X26500Y26250D02*
X26500Y26200D01*
X26550Y26300D02*
X26500Y26250D01*
X26950Y26300D02*
X26550Y26300D01*
X27000Y26350D02*
X26950Y26300D01*
X27000Y27050D02*
X27000Y26350D01*
X27050Y27100D02*
X27000Y27050D01*
X29350Y27100D02*
X27050Y27100D01*
X29400Y27050D02*
X29350Y27100D01*
X29400Y26250D02*
X29400Y27050D01*
X29450Y26200D02*
X29400Y26250D01*
X29650Y26200D02*
X29450Y26200D01*
X29700Y26150D02*
X29650Y26200D01*
X29700Y25950D02*
X29700Y26150D01*
X29750Y25900D02*
X29700Y25950D01*
X39050Y25900D02*
X29750Y25900D01*
X39100Y25950D02*
X39050Y25900D01*
X39100Y26350D02*
X39100Y25950D01*
X39150Y26400D02*
X39100Y26350D01*
X40350Y26400D02*
X39150Y26400D01*
X40400Y26350D02*
X40350Y26400D01*
X40400Y25950D02*
X40400Y26350D01*
X40450Y25900D02*
X40400Y25950D01*
X41650Y25900D02*
X40450Y25900D01*
X41700Y25950D02*
X41650Y25900D01*
X41700Y26350D02*
X41700Y25950D01*
X41750Y26400D02*
X41700Y26350D01*
X42950Y26400D02*
X41750Y26400D01*
X43000Y26350D02*
X42950Y26400D01*
X43000Y25950D02*
X43000Y26350D01*
X43050Y25900D02*
X43000Y25950D01*
X44500Y25900D02*
X43050Y25900D01*
X44650Y25750D02*
X44500Y25900D01*
X44900Y25750D02*
X44650Y25750D01*
X50200Y20100D02*
X50200Y21100D01*
X48400Y25100D02*
X46950Y25100D01*
X48500Y25000D02*
X48400Y25100D01*
X48800Y25000D02*
X48500Y25000D01*
X46950Y25100D02*
X46900Y25150D01*
X46900Y25550D01*
X46850Y25600D01*
X45650Y25600D01*
X45600Y25550D01*
X45600Y25150D01*
X45550Y25100D01*
X44350Y25100D01*
X44300Y25150D01*
X44300Y25550D01*
X44250Y25600D01*
X43050Y25600D01*
X43000Y25550D01*
X43000Y25150D01*
X42950Y25100D01*
X41750Y25100D01*
X41700Y25150D01*
X41700Y25550D01*
X41650Y25600D01*
X40450Y25600D01*
X40400Y25550D01*
X40400Y25150D01*
X40379Y25129D02*
X30729Y25129D01*
X40400Y25150D02*
X40379Y25129D01*
X30729Y25129D02*
X30600Y25000D01*
X30260Y25000D01*
X48800Y22000D02*
X48500Y22000D01*
X48350Y22150D01*
X46912Y22150D01*
X46900Y22162D01*
X46900Y22550D01*
X46850Y22600D01*
X45650Y22600D01*
X45600Y22550D01*
X45600Y22150D01*
X45550Y22100D01*
X44350Y22100D01*
X44300Y22050D01*
X44300Y21750D01*
X43950Y21400D01*
X43050Y21400D01*
X43000Y21450D01*
X43000Y21850D01*
X42950Y21900D01*
X41750Y21900D01*
X41700Y21850D01*
X41700Y21450D01*
X41650Y21400D01*
X40450Y21400D01*
X40400Y21450D01*
X40400Y21850D01*
X40350Y21900D01*
X32100Y21900D01*
X32000Y22000D01*
X30260Y22000D01*
X48400Y18900D02*
X46950Y18900D01*
X48500Y19000D02*
X48400Y18900D01*
X48800Y19000D02*
X48500Y19000D01*
X46950Y18900D02*
X46900Y18850D01*
X46900Y18450D01*
X46850Y18400D01*
X45750Y18400D01*
X45700Y18450D01*
X45700Y18550D01*
X45650Y18600D01*
X43350Y18600D01*
X43300Y18550D01*
X43300Y18450D01*
X43250Y18400D01*
X40750Y18400D01*
X40400Y18750D01*
X40400Y18850D01*
X40389Y18861D01*
X38889Y18861D01*
X38489Y19261D01*
X35611Y19261D01*
X35550Y19200D01*
X30460Y19200D02*
X30260Y19000D01*
X48400Y14400D02*
X46950Y14400D01*
X48800Y14500D02*
X48500Y14500D01*
X48400Y14400D01*
X46950Y14400D02*
X46900Y14350D01*
X46900Y14050D01*
X46850Y14000D01*
X43050Y14000D01*
X43000Y14050D01*
X43000Y14350D01*
X42950Y14400D01*
X42350Y14400D01*
X42300Y14450D01*
X42300Y15050D01*
X42250Y15100D01*
X40450Y15100D01*
X40400Y15050D01*
X40400Y14650D01*
X40350Y14600D01*
X30700Y14600D01*
X30600Y14500D01*
X30260Y14500D01*
X10929Y21829D02*
X10700Y21600D01*
X10929Y21829D02*
X10929Y30421D01*
X10500Y30850D01*
X10500Y33600D01*
X48400Y13100D02*
X46950Y13100D01*
X48800Y13000D02*
X48500Y13000D01*
X49100Y13000D02*
X48800Y13000D01*
X48500Y13000D02*
X48400Y13100D01*
X51400Y13100D02*
X49200Y13100D01*
X49100Y13000D01*
X46950Y13100D02*
X46900Y13150D01*
X46900Y13750D01*
X46850Y13800D01*
X44350Y13800D01*
X44300Y13750D01*
X44300Y12450D01*
X44250Y12400D01*
X43050Y12400D01*
X43000Y12450D01*
X43000Y12838D01*
X42988Y12850D02*
X41712Y12850D01*
X42988Y12850D02*
X43000Y12838D01*
X41712Y12850D02*
X41700Y12838D01*
X41700Y12450D01*
X41650Y12400D01*
X40450Y12400D01*
X40400Y12450D01*
X40400Y12950D01*
X40350Y13000D01*
X39150Y13000D01*
X39100Y12950D01*
X39100Y12850D01*
X39050Y12800D01*
X30460Y12800D01*
X30260Y13000D01*
X23300Y9300D02*
X21850Y9300D01*
X23760Y9250D02*
X23350Y9250D01*
X23300Y9300D01*
X21850Y9300D02*
X21800Y9350D01*
X21800Y9850D01*
X21750Y9900D01*
X19350Y9900D01*
X19300Y9950D01*
X19300Y18450D01*
X19200Y18550D01*
X17612Y18550D01*
X17600Y18562D02*
X17600Y22200D01*
X17612Y18550D02*
X17600Y18562D01*
X39050Y9300D02*
X31900Y9300D01*
X39100Y9350D02*
X39050Y9300D01*
X39100Y9850D02*
X39100Y9350D01*
X39150Y9900D02*
X39100Y9850D01*
X40350Y9900D02*
X39150Y9900D01*
X40400Y9850D02*
X40350Y9900D01*
X40400Y9450D02*
X40400Y9850D01*
X40450Y9400D02*
X40400Y9450D01*
X41900Y9400D02*
X40450Y9400D01*
X42050Y9250D02*
X41900Y9400D01*
X42300Y9250D02*
X42050Y9250D01*
X23300Y7800D02*
X21850Y7800D01*
X23350Y7750D02*
X23300Y7800D01*
X23760Y7750D02*
X23350Y7750D01*
X21850Y7800D02*
X21800Y7850D01*
X21800Y8350D01*
X21750Y8400D01*
X19150Y8400D01*
X19100Y8450D01*
X19100Y18050D01*
X19050Y18100D01*
X17450Y18100D01*
X17400Y18150D01*
X17400Y22350D01*
X17450Y22400D01*
X17750Y22400D01*
X17800Y22350D01*
X17800Y22000D01*
X29600Y7950D02*
X29600Y8200D01*
X29650Y7900D02*
X29600Y7950D01*
X39050Y7900D02*
X29650Y7900D01*
X39100Y7950D02*
X39050Y7900D01*
X39100Y8350D02*
X39100Y7950D01*
X39150Y8400D02*
X39100Y8350D01*
X40350Y8400D02*
X39150Y8400D01*
X40400Y8350D02*
X40350Y8400D01*
X40400Y7950D02*
X40400Y8350D01*
X40450Y7900D02*
X40400Y7950D01*
X41900Y7900D02*
X40450Y7900D01*
X42050Y7750D02*
X41900Y7900D01*
X42300Y7750D02*
X42050Y7750D01*
X34250Y27200D02*
X30500Y27200D01*
X34300Y27150D02*
X34250Y27200D01*
X34300Y26950D02*
X34300Y27150D01*
X34350Y26900D02*
X34300Y26950D01*
X37250Y26900D02*
X34350Y26900D01*
X37350Y27000D02*
X37250Y26900D01*
X40450Y27000D02*
X37350Y27000D01*
X40950Y26500D02*
X40450Y27000D01*
X40950Y26500D02*
X41000Y26500D01*
X62575Y19204D02*
X62575Y23788D01*
X62587Y23800D02*
X62600Y23800D01*
X62587Y23800D02*
X62575Y23788D01*
X62450Y19204D02*
X62575Y19204D01*
X62450Y19200D02*
X62450Y19204D01*
X62400Y19150D02*
X62450Y19200D01*
X62400Y16850D02*
X62400Y19150D01*
X62450Y16800D02*
X62400Y16850D01*
X63050Y16800D02*
X62450Y16800D01*
X63100Y16750D02*
X63050Y16800D01*
X63100Y14000D02*
X63100Y16750D01*
X40950Y25050D02*
X37400Y25050D01*
X40950Y25050D02*
X41000Y25000D01*
X31250Y19900D02*
X29900Y19900D01*
X31300Y19950D02*
X31250Y19900D01*
X31300Y20350D02*
X31300Y19950D01*
X31350Y20400D02*
X31300Y20350D01*
X40350Y20400D02*
X31350Y20400D01*
X40400Y20450D02*
X40350Y20400D01*
X40400Y21050D02*
X40400Y20450D01*
X40450Y21100D02*
X40400Y21050D01*
X40600Y21100D02*
X40450Y21100D01*
X22800Y19000D02*
X22460Y19000D01*
X26600Y19000D02*
X22800Y19000D01*
X26600Y19000D02*
X26700Y18900D01*
X22000Y17600D02*
X20450Y17600D01*
X22100Y17500D02*
X22000Y17600D01*
X22460Y17500D02*
X22100Y17500D01*
X20450Y17600D02*
X20400Y17650D01*
X20400Y17900D01*
X22160Y16300D02*
X21850Y16300D01*
X22460Y16000D02*
X22160Y16300D01*
X21850Y16300D02*
X21800Y16350D01*
X21800Y17350D01*
X21750Y17400D01*
X20250Y17400D01*
X20200Y17450D01*
X20200Y17700D01*
X39050Y15400D02*
X33400Y15400D01*
X39100Y15450D02*
X39050Y15400D01*
X39100Y15850D02*
X39100Y15450D01*
X39150Y15900D02*
X39100Y15850D01*
X40600Y15900D02*
X39150Y15900D01*
X40700Y16000D02*
X40600Y15900D01*
X41000Y16000D02*
X40700Y16000D01*
X22000Y8600D02*
X19250Y8600D01*
X22100Y8500D02*
X22000Y8600D01*
X22460Y8500D02*
X22100Y8500D01*
X19250Y8600D02*
X19200Y8650D01*
X19200Y18250D01*
X19150Y18300D01*
X18100Y18300D01*
X39100Y8650D02*
X39100Y8850D01*
X39150Y8600D02*
X39100Y8650D01*
X40600Y8600D02*
X39150Y8600D01*
X40700Y8500D02*
X40600Y8600D01*
X41000Y8500D02*
X40700Y8500D01*
X41000Y7000D02*
X31900Y7000D01*
X29550Y24900D02*
X29300Y24900D01*
X29600Y24850D02*
X29550Y24900D01*
X29600Y24350D02*
X29600Y24850D01*
X29650Y24300D02*
X29600Y24350D01*
X39300Y24300D02*
X29650Y24300D01*
X39350Y24250D02*
X39300Y24300D01*
X39700Y24250D02*
X39350Y24250D01*
X28300Y23662D02*
X28300Y23850D01*
X28312Y23650D02*
X28300Y23662D01*
X29500Y23650D02*
X28312Y23650D01*
X29600Y23750D02*
X29500Y23650D01*
X29600Y24050D02*
X29600Y23750D01*
X29650Y24100D02*
X29600Y24050D01*
X39050Y24100D02*
X29650Y24100D01*
X39100Y24050D02*
X39050Y24100D01*
X39100Y23050D02*
X39100Y24050D01*
X39150Y23000D02*
X39100Y23050D01*
X39450Y23000D02*
X39150Y23000D01*
X39700Y22750D02*
X39450Y23000D01*
X21450Y21250D02*
X21160Y21250D01*
X21600Y21100D02*
X21450Y21250D01*
X23050Y21100D02*
X21600Y21100D01*
X23100Y21050D02*
X23050Y21100D01*
X23100Y20650D02*
X23100Y21050D01*
X23150Y20600D02*
X23100Y20650D01*
X24350Y20600D02*
X23150Y20600D01*
X24400Y20650D02*
X24350Y20600D01*
X24400Y21050D02*
X24400Y20650D01*
X24450Y21100D02*
X24400Y21050D01*
X25650Y21100D02*
X24450Y21100D01*
X25700Y21050D02*
X25650Y21100D01*
X25700Y20650D02*
X25700Y21050D01*
X25750Y20600D02*
X25700Y20650D01*
X26700Y20600D02*
X25750Y20600D01*
X30900Y20450D02*
X30900Y20100D01*
X31000Y20550D02*
X30900Y20450D01*
X39388Y20550D02*
X31000Y20550D01*
X39400Y20950D02*
X39400Y20562D01*
X39388Y20550D02*
X39400Y20562D01*
X39700Y21250D02*
X39400Y20950D01*
X21450Y19750D02*
X21160Y19750D01*
X21600Y19600D02*
X21450Y19750D01*
X23050Y19600D02*
X21600Y19600D01*
X23100Y19550D02*
X23050Y19600D01*
X23100Y19150D02*
X23100Y19550D01*
X23150Y19100D02*
X23100Y19150D01*
X25200Y19100D02*
X23150Y19100D01*
X25200Y19200D02*
X25200Y19100D01*
X31000Y19500D02*
X30900Y19400D01*
X21450Y18250D02*
X21160Y18250D01*
X24000Y18400D02*
X21600Y18400D01*
X21450Y18250D01*
X39400Y17900D02*
X36100Y17900D01*
X39400Y17950D02*
X39400Y17900D01*
X39700Y18250D02*
X39400Y17950D01*
X21160Y16440D02*
X21160Y16750D01*
X21300Y16300D02*
X21160Y16440D01*
X21300Y16250D02*
X21300Y16300D01*
X21350Y16200D02*
X21300Y16250D01*
X21750Y16200D02*
X21350Y16200D01*
X21800Y16150D02*
X21750Y16200D01*
X21800Y15150D02*
X21800Y16150D01*
X21850Y15100D02*
X21800Y15150D01*
X23750Y15100D02*
X21850Y15100D01*
X23800Y15050D02*
X23750Y15100D01*
X23800Y14450D02*
X23800Y15050D01*
X23850Y14400D02*
X23800Y14450D01*
X24450Y14400D02*
X23850Y14400D01*
X24500Y14350D02*
X24450Y14400D01*
X24500Y14200D02*
X24500Y14350D01*
X24600Y14200D02*
X24500Y14200D01*
X29550Y16100D02*
X29300Y16100D01*
X29600Y16150D02*
X29550Y16100D01*
X29600Y16550D02*
X29600Y16150D01*
X29650Y16600D02*
X29600Y16550D01*
X39300Y16600D02*
X29650Y16600D01*
X39450Y16750D02*
X39300Y16600D01*
X39700Y16750D02*
X39450Y16750D01*
X15694Y35279D02*
X15400Y35279D01*
X15400Y35050D01*
X15350Y35000D01*
X12650Y35000D01*
X12600Y34950D01*
X12600Y34900D01*
X12479Y34779D01*
X12292Y34779D01*
X21100Y13300D02*
X20000Y13300D01*
X21160Y13360D02*
X21100Y13300D01*
X21160Y13750D02*
X21160Y13360D01*
X28300Y13150D02*
X28300Y13500D01*
X28350Y13100D02*
X28300Y13150D01*
X29550Y13100D02*
X28350Y13100D01*
X29600Y13150D02*
X29550Y13100D01*
X29600Y13550D02*
X29600Y13150D01*
X29650Y13600D02*
X29600Y13550D01*
X31050Y13600D02*
X29650Y13600D01*
X31100Y13550D02*
X31050Y13600D01*
X31100Y13350D02*
X31100Y13550D01*
X31150Y13300D02*
X31100Y13350D01*
X38050Y13300D02*
X31150Y13300D01*
X38100Y13350D02*
X38050Y13300D01*
X38100Y13450D02*
X38100Y13350D01*
X38150Y13500D02*
X38100Y13450D01*
X39450Y13500D02*
X38150Y13500D01*
X39700Y13750D02*
X39450Y13500D01*
X46750Y13600D02*
X45200Y13600D01*
X46800Y13550D02*
X46750Y13600D01*
X46800Y11450D02*
X46800Y13550D01*
X46850Y11400D02*
X46800Y11450D01*
X48150Y11400D02*
X46850Y11400D01*
X48200Y11350D02*
X48150Y11400D01*
X48200Y7750D02*
X48200Y11350D01*
X48250Y7700D02*
X48200Y7750D01*
X51250Y7700D02*
X48250Y7700D01*
X51300Y7650D02*
X51250Y7700D01*
X51300Y6800D02*
X51300Y7650D01*
X20910Y12000D02*
X19600Y12000D01*
X21160Y12250D02*
X20910Y12000D01*
X38200Y11950D02*
X38200Y11362D01*
X38250Y12000D02*
X38200Y11950D01*
X39450Y12000D02*
X38250Y12000D01*
X39700Y12250D02*
X39450Y12000D01*
X40100Y12100D02*
X39950Y12250D01*
X41550Y12100D02*
X40100Y12100D01*
X39950Y12250D02*
X39700Y12250D01*
X41600Y12050D02*
X41550Y12100D01*
X41600Y11450D02*
X41600Y12050D01*
X41650Y11400D02*
X41600Y11450D01*
X42850Y11400D02*
X41650Y11400D01*
X42900Y11350D02*
X42850Y11400D01*
X42900Y10650D02*
X42900Y11350D01*
X42950Y10600D02*
X42900Y10650D01*
X44250Y10600D02*
X42950Y10600D01*
X44300Y10550D02*
X44250Y10600D01*
X44300Y10150D02*
X44300Y10550D01*
X44350Y10100D02*
X44300Y10150D01*
X45450Y10100D02*
X44350Y10100D01*
X45500Y10150D02*
X45450Y10100D01*
X45500Y10650D02*
X45500Y10150D01*
X45550Y10700D02*
X45500Y10650D01*
X46850Y10700D02*
X45550Y10700D01*
X46900Y10650D02*
X46850Y10700D01*
X46900Y9950D02*
X46900Y10650D01*
X46950Y9900D02*
X46900Y9950D01*
X48050Y9900D02*
X46950Y9900D01*
X48100Y9850D02*
X48050Y9900D01*
X48100Y7650D02*
X48100Y9850D01*
X48150Y7600D02*
X48100Y7650D01*
X51050Y7600D02*
X48150Y7600D01*
X51100Y7550D02*
X51050Y7600D01*
X51100Y7400D02*
X51100Y7550D01*
X20910Y11000D02*
X19600Y11000D01*
X21160Y10750D02*
X20910Y11000D01*
X29600Y10550D02*
X29600Y10400D01*
X29700Y10650D02*
X29600Y10550D01*
X39350Y10650D02*
X29700Y10650D01*
X39450Y10750D02*
X39350Y10650D01*
X39700Y10750D02*
X39450Y10750D01*
X20910Y9500D02*
X19500Y9500D01*
X21160Y9250D02*
X20910Y9500D01*
X39300Y9100D02*
X31700Y9100D01*
X39450Y9250D02*
X39300Y9100D01*
X39700Y9250D02*
X39450Y9250D01*
X66700Y13000D02*
X66700Y18250D01*
X66650Y18300D01*
X64950Y18300D01*
X64900Y18350D01*
X64900Y18950D01*
X64850Y19000D01*
X64100Y19000D01*
X63675Y25825D02*
X63300Y25825D01*
X63300Y25800D01*
X63675Y28850D02*
X63675Y25825D01*
X63750Y28900D02*
X63700Y28850D01*
X63675Y28850D01*
X64800Y28900D02*
X63750Y28900D01*
X64800Y28900D02*
X64800Y32200D01*
X65492Y28900D02*
X64800Y28900D01*
X64800Y32200D02*
X64800Y33150D01*
X65492Y28779D02*
X65492Y28900D01*
X64800Y33150D02*
X64732Y33218D01*
X57232Y33218D01*
X57200Y33250D01*
X57200Y35550D01*
X56850Y35900D01*
X45412Y35900D01*
X45400Y35912D02*
X45400Y37250D01*
X45412Y35900D02*
X45400Y35912D01*
X45400Y37250D02*
X45300Y37350D01*
X45300Y37500D01*
X45140Y37660D01*
X53500Y10400D02*
X53330Y10400D01*
X53500Y10350D02*
X53500Y10400D01*
X53330Y10400D02*
X53150Y10579D01*
X53550Y10300D02*
X53500Y10350D01*
X54800Y10300D02*
X53550Y10300D01*
X63512Y14950D02*
X63400Y15062D01*
X63400Y18112D01*
X63500Y21850D02*
X63500Y18112D01*
X63550Y21900D02*
X63500Y21850D01*
X63550Y22700D02*
X63550Y21900D01*
X63300Y22950D02*
X63550Y22700D01*
X63300Y25288D02*
X63300Y22950D01*
X63888Y25300D02*
X63312Y25300D01*
X63300Y25288D01*
X63888Y25300D02*
X63900Y25312D01*
X63900Y25600D02*
X63900Y25312D01*
X63900Y28550D02*
X63900Y25600D01*
X63950Y28600D02*
X63900Y28550D01*
X64750Y28600D02*
X63950Y28600D01*
X64800Y28550D02*
X64750Y28600D01*
X64800Y28350D02*
X64800Y28550D01*
X64850Y28300D02*
X64800Y28350D01*
X66350Y28300D02*
X64850Y28300D01*
X66400Y28350D02*
X66350Y28300D01*
X66400Y29600D02*
X66400Y28350D01*
X66579Y29779D02*
X66400Y29600D01*
X66400Y29900D02*
X66400Y30300D01*
X66791Y29900D02*
X66400Y29900D01*
X66791Y29779D02*
X66791Y29900D01*
X66791Y29779D02*
X66579Y29779D01*
X56900Y27200D02*
X56900Y28450D01*
X56800Y28550D01*
X56800Y28779D01*
X56492Y28779D01*
X54629Y9400D02*
X54450Y9579D01*
X54800Y9400D02*
X54629Y9400D01*
X54800Y9350D02*
X54800Y9400D01*
X54900Y9250D02*
X54800Y9350D01*
X54900Y9000D02*
X54900Y9250D01*
X66000Y13000D02*
X63350Y13000D01*
X63300Y13050D01*
X63300Y17150D01*
X63250Y17200D01*
X62650Y17200D01*
X62600Y17250D01*
X62600Y19000D01*
X62600Y19125D01*
X62775Y19125D01*
X62775Y25488D01*
X62787Y25500D01*
X62800Y25500D01*
X62800Y25600D02*
X62800Y25500D01*
X63438Y25600D02*
X62800Y25600D01*
X63563Y25725D02*
X63438Y25600D01*
X63775Y25725D02*
X63563Y25725D01*
X63775Y28650D02*
X63775Y25725D01*
X63800Y28650D02*
X63775Y28650D01*
X63850Y28700D02*
X63800Y28650D01*
X64850Y28700D02*
X63850Y28700D01*
X64900Y28650D02*
X64850Y28700D01*
X64900Y28450D02*
X64900Y28650D01*
X64950Y28400D02*
X64900Y28450D01*
X66150Y28400D02*
X64950Y28400D01*
X66200Y28450D02*
X66150Y28400D01*
X66200Y31350D02*
X66200Y28450D01*
X66250Y31400D02*
X66200Y31350D01*
X67250Y31400D02*
X66250Y31400D01*
X67400Y31550D02*
X67250Y31400D01*
X67400Y35450D02*
X67400Y31550D01*
X67250Y35600D02*
X67400Y35450D01*
X67100Y35600D02*
X67250Y35600D01*
X67100Y35779D02*
X67100Y35600D01*
X66791Y35779D02*
X67100Y35779D01*
X66400Y35900D02*
X66400Y38950D01*
X66791Y35900D02*
X66400Y35900D01*
X66791Y35779D02*
X66791Y35900D01*
X66400Y38950D02*
X66350Y39000D01*
X51950Y39000D01*
X51900Y38950D01*
X51900Y38250D01*
X51850Y38200D01*
X46850Y38200D01*
X46800Y38150D01*
X46800Y38050D01*
X46750Y38000D01*
X46350Y38000D01*
X46300Y37950D01*
X46300Y37820D01*
X46140Y37660D01*
X57400Y27900D02*
X57400Y28200D01*
X57791Y27900D02*
X57400Y27900D01*
X58100Y27550D02*
X58100Y27779D01*
X57791Y27779D02*
X57791Y27900D01*
X58100Y27779D02*
X57791Y27779D01*
X58200Y27450D02*
X58100Y27550D01*
X58200Y26150D02*
X58200Y27450D01*
X58250Y26100D02*
X58200Y26150D01*
X58650Y26100D02*
X58250Y26100D01*
X58700Y26050D02*
X58650Y26100D01*
X58700Y23000D02*
X58700Y26050D01*
X41300Y37820D02*
X41140Y37660D01*
X41300Y37950D02*
X41300Y37820D01*
X41350Y38000D02*
X41300Y37950D01*
X41750Y38000D02*
X41350Y38000D01*
X41850Y38100D02*
X41750Y38000D01*
X44650Y38100D02*
X41850Y38100D01*
X44700Y38050D02*
X44650Y38100D01*
X55900Y33100D02*
X55900Y35550D01*
X55900Y33100D02*
X55900Y28450D01*
X63111Y33139D02*
X55900Y33139D01*
X55900Y28450D02*
X56000Y28350D01*
X63200Y33050D02*
X63111Y33139D01*
X56000Y28350D02*
X56000Y27050D01*
X63200Y31900D02*
X63200Y33050D01*
X56000Y27050D02*
X56100Y26950D01*
X56100Y26900D01*
X56492Y26900D02*
X56492Y26779D01*
X56100Y26900D02*
X56492Y26900D01*
X16600Y34100D02*
X16550Y34100D01*
X16779Y34279D02*
X16600Y34100D01*
X16993Y34279D02*
X16779Y34279D01*
X16550Y34100D02*
X16500Y34050D01*
X16500Y32350D01*
X16450Y32300D01*
X14050Y32300D01*
X14000Y32250D01*
X14000Y32050D01*
X13900Y31950D01*
X13900Y31900D01*
X13779Y31779D01*
X13591Y31779D01*
X65492Y22779D02*
X65679Y22779D01*
X65800Y22900D01*
X65850Y22900D01*
X40300Y38820D02*
X40140Y38660D01*
X40300Y38950D02*
X40300Y38820D01*
X40350Y39000D02*
X40300Y38950D01*
X40750Y39000D02*
X40350Y39000D01*
X40800Y39050D02*
X40750Y39000D01*
X40800Y39250D02*
X40800Y39050D01*
X40850Y39300D02*
X40800Y39250D01*
X67550Y39300D02*
X40850Y39300D01*
X67636Y39214D02*
X67550Y39300D01*
X67636Y19986D02*
X67636Y39214D01*
X67550Y19900D02*
X67636Y19986D01*
X67100Y19900D02*
X67550Y19900D01*
X66979Y19779D02*
X67100Y19900D01*
X66791Y19779D02*
X66979Y19779D01*
X52400Y1400D02*
X52400Y1600D01*
X53050Y1200D02*
X52550Y1200D01*
X52500Y1300D02*
X52400Y1400D01*
X52500Y1250D02*
X52500Y1300D01*
X52550Y1200D02*
X52500Y1250D01*
X53150Y1100D02*
X53050Y1200D01*
X56050Y1100D02*
X53150Y1100D01*
X56100Y1150D02*
X56050Y1100D01*
X56100Y2650D02*
X56100Y1150D01*
X56150Y2700D02*
X56100Y2650D01*
X57950Y2700D02*
X56150Y2700D01*
X58000Y2750D02*
X57950Y2700D01*
X58000Y9500D02*
X58000Y2750D01*
X53400Y1800D02*
X53400Y1600D01*
X53500Y1900D02*
X53400Y1800D01*
X53500Y1950D02*
X53500Y1900D01*
X53600Y2050D02*
X53500Y1950D01*
X53600Y2750D02*
X53600Y2050D01*
X53650Y2800D02*
X53600Y2750D01*
X57750Y2800D02*
X53650Y2800D01*
X57800Y2850D02*
X57750Y2800D01*
X57800Y9300D02*
X57800Y2850D01*
X53500Y3900D02*
X53400Y3800D01*
X53500Y3950D02*
X53500Y3900D01*
X53600Y4050D02*
X53500Y3950D01*
X53400Y3800D02*
X53400Y3584D01*
X53600Y7850D02*
X53600Y4050D01*
X53650Y7900D02*
X53600Y7850D01*
X56150Y7900D02*
X53650Y7900D01*
X56200Y7950D02*
X56150Y7900D01*
X56200Y9700D02*
X56200Y7950D01*
X56100Y9700D02*
X56200Y9700D01*
X54400Y1800D02*
X54400Y1600D01*
X54500Y1900D02*
X54400Y1800D01*
X54500Y1950D02*
X54500Y1900D01*
X54600Y2050D02*
X54500Y1950D01*
X54600Y2550D02*
X54600Y2050D01*
X54650Y2600D02*
X54600Y2550D01*
X55700Y2600D02*
X54650Y2600D01*
X54400Y3800D02*
X54400Y3584D01*
X54500Y3900D02*
X54400Y3800D01*
X54500Y3950D02*
X54500Y3900D01*
X54600Y4050D02*
X54500Y3950D01*
X54600Y6950D02*
X54600Y4050D01*
X54750Y7100D02*
X54600Y6950D01*
X55350Y7100D02*
X54750Y7100D01*
X55500Y7250D02*
X55350Y7100D01*
X55500Y7750D02*
X55500Y7250D01*
X55550Y7800D02*
X55500Y7750D01*
X56250Y7800D02*
X55550Y7800D01*
X56300Y7850D02*
X56250Y7800D01*
X56300Y9900D02*
X56300Y7850D01*
X55400Y1800D02*
X55400Y1600D01*
X55500Y2400D02*
X55500Y1900D01*
X55400Y1800D01*
X55500Y3900D02*
X55400Y3800D01*
X55500Y3950D02*
X55500Y3900D01*
X55600Y4050D02*
X55500Y3950D01*
X55400Y3800D02*
X55400Y3584D01*
X55600Y7650D02*
X55600Y4050D01*
X55650Y7700D02*
X55600Y7650D01*
X56450Y7700D02*
X55650Y7700D01*
X56500Y7750D02*
X56450Y7700D01*
X56500Y10200D02*
X56500Y7750D01*
X56400Y10200D02*
X56500Y10200D01*
X56400Y1800D02*
X56400Y1600D01*
X56600Y2050D02*
X56500Y1950D01*
X56500Y1900D02*
X56400Y1800D01*
X56500Y1950D02*
X56500Y1900D01*
X56600Y2550D02*
X56600Y2050D01*
X56650Y2600D02*
X56600Y2550D01*
X58125Y2600D02*
X56650Y2600D01*
X58125Y9375D02*
X58125Y2600D01*
X60350Y9375D02*
X58125Y9375D01*
X60350Y9400D02*
X60350Y9375D01*
X60400Y9450D02*
X60350Y9400D01*
X60400Y10200D02*
X60400Y9450D01*
X56500Y3900D02*
X56400Y3800D01*
X56500Y3950D02*
X56500Y3900D01*
X56600Y4050D02*
X56500Y3950D01*
X56400Y3800D02*
X56400Y3584D01*
X56600Y10400D02*
X56600Y4050D01*
X57400Y3800D02*
X57400Y3584D01*
X57500Y3900D02*
X57400Y3800D01*
X57550Y3900D02*
X57500Y3900D01*
X57650Y4000D02*
X57550Y3900D01*
X57675Y4000D02*
X57650Y4000D01*
X57675Y9175D02*
X57675Y4000D01*
X57650Y9175D02*
X57675Y9175D01*
X57650Y9200D02*
X57650Y9175D01*
X57639Y9211D02*
X57650Y9200D01*
X57639Y9842D02*
X57639Y9211D01*
X58197Y10400D02*
X57639Y9842D01*
X61000Y10400D02*
X58197Y10400D01*
X58400Y1400D02*
X58400Y1600D01*
X59050Y1200D02*
X58550Y1200D01*
X58500Y1300D02*
X58400Y1400D01*
X58500Y1250D02*
X58500Y1300D01*
X58550Y1200D02*
X58500Y1250D01*
X59150Y1100D02*
X59050Y1200D01*
X60038Y1100D02*
X59150Y1100D01*
X60050Y8600D02*
X60050Y1100D01*
X60150Y8700D02*
X60050Y8600D01*
X62350Y8700D02*
X60150Y8700D01*
X62400Y8750D02*
X62350Y8700D01*
X62400Y9450D02*
X62400Y8750D01*
X62350Y9500D02*
X62400Y9450D01*
X62000Y9500D02*
X62350Y9500D01*
X58300Y8650D02*
X58300Y3684D01*
X58400Y3584D01*
X58650Y9000D02*
X58300Y8650D01*
X61800Y9000D02*
X58650Y9000D01*
X61800Y9100D02*
X61800Y9000D01*
G54D12*
X41800Y26900D02*
X41800Y26800D01*
X60800Y24900D02*
X60900Y24800D01*
X61800Y24800D01*
X61800Y24815D02*
X61800Y30500D01*
X61800Y30400D01*
X61000Y31400D02*
X60300Y32100D01*
X60300Y32600D01*
X16877Y37223D02*
X17300Y36800D01*
X17300Y38800D02*
X17000Y38500D01*
X18200Y38800D02*
X18200Y38448D01*
X53900Y14615D02*
X53900Y15500D01*
X55400Y15500D02*
X55800Y15500D01*
X60800Y17400D02*
X60200Y17400D01*
X60800Y12800D02*
X60800Y18600D01*
X17000Y38500D02*
X17000Y38300D01*
X53900Y14615D02*
X53785Y14500D01*
X55377Y15523D02*
X55377Y19353D01*
X55377Y15523D02*
X55400Y15500D01*
X60900Y12700D02*
X60800Y12800D01*
X63200Y8748D02*
X63200Y9800D01*
X53230Y14500D02*
X53785Y14500D01*
X55550Y19526D02*
X55377Y19353D01*
X2200Y18749D02*
X2200Y19800D01*
X3100Y18971D02*
X3100Y19500D01*
X6600Y26900D02*
X6600Y25900D01*
X17000Y7486D02*
X17000Y6800D01*
X17700Y10200D02*
X17000Y10200D01*
X63140Y8688D02*
X63200Y8748D01*
X55579Y19526D02*
X55550Y19526D01*
X55600Y19548D02*
X55579Y19526D01*
X3292Y18779D02*
X3100Y18971D01*
X16906Y7579D02*
X17000Y7486D01*
X18400Y9500D02*
X17700Y10200D01*
X52400Y14748D02*
X52952Y14748D01*
X53100Y14600D01*
X53150Y14579D02*
X53171Y14600D01*
X7328Y8700D02*
X6400Y8700D01*
X18400Y7627D02*
X18400Y9500D01*
X7340Y8688D02*
X7328Y8700D01*
X17734Y7566D02*
X17200Y8100D01*
X17200Y8600D01*
X16900Y9573D02*
X16900Y9200D01*
X2200Y18451D02*
X2200Y18200D01*
X12300Y30787D02*
X12300Y31100D01*
X12300Y36787D02*
X12300Y37100D01*
X17968Y7332D02*
X17734Y7566D01*
X18400Y7332D02*
X17968Y7332D01*
X18400Y7332D02*
X18468Y7400D01*
X18800Y7400D01*
X15500Y37473D02*
X15500Y37643D01*
X18200Y37800D02*
X18200Y38152D01*
X15694Y37279D02*
X15500Y37473D01*
X17616Y3600D02*
X17958Y3600D01*
X17600Y3584D02*
X17616Y3600D01*
X61500Y3684D02*
X61500Y4300D01*
X52000Y8100D02*
X52000Y7100D01*
X61400Y3584D02*
X61500Y3684D01*
X52458Y8558D02*
X52000Y8100D01*
X52458Y11887D02*
X52458Y8558D01*
X52458Y11887D02*
X53700Y13129D01*
X52700Y14152D02*
X52700Y13850D01*
X53664Y13800D02*
X53400Y13800D01*
X55600Y18900D02*
X55600Y19252D01*
X64100Y29500D02*
X64100Y31300D01*
X65513Y36800D02*
X66100Y36800D01*
X53700Y13129D02*
X53700Y13764D01*
X52400Y14452D02*
X52700Y14152D01*
X53700Y13764D02*
X53664Y13800D01*
X65492Y36779D02*
X65513Y36800D01*
X65800Y30471D02*
X65800Y30300D01*
X65492Y30779D02*
X65800Y30471D01*
X57912Y23900D02*
X58500Y23900D01*
X57791Y23779D02*
X57912Y23900D01*
X51448Y34152D02*
X51300Y34300D01*
X54000Y35233D02*
X54000Y34600D01*
X51798Y34152D02*
X51448Y34152D01*
X54046Y35279D02*
X54000Y35233D01*
X51798Y34152D02*
X51798Y29823D01*
X51200Y29224D01*
X51200Y26600D01*
X47800Y26700D02*
X47084Y27416D01*
X45716Y27416D01*
X45100Y26800D01*
X28800Y27400D02*
X26100Y27400D01*
X25800Y27100D01*
X23600Y26600D02*
X23600Y26900D01*
X22900Y25900D02*
X23600Y26600D01*
X22802Y25900D02*
X22900Y25900D01*
X21234Y25898D02*
X22830Y25898D01*
X21160Y25824D02*
X21234Y25898D01*
X21160Y25750D02*
X21160Y25824D01*
X16993Y38209D02*
X16877Y38093D01*
X16877Y37223D01*
X16993Y38279D02*
X16993Y38209D01*
X56252Y19548D02*
X56492Y19308D01*
X56492Y17808D01*
X55600Y19548D02*
X56252Y19548D01*
X-100Y-100D02*
X-100Y3920D01*
X-100Y-100D02*
X6920Y-100D01*
X70100Y-100D02*
X63080Y-100D01*
X70100Y-100D02*
X70100Y3920D01*
X70100Y40100D02*
X70100Y36080D01*
X70100Y40100D02*
X63080Y40100D01*
X-100Y40100D02*
X6920Y40100D01*
X-100Y40100D02*
X-100Y36080D01*
X-2069Y-100D02*
X-6006Y-100D01*
X-4037Y-2069D02*
X-4037Y1869D01*
X-5513Y-100D02*
G75*
D01*
G02X-5513Y-100I1476J0*
G01*
X72069Y-100D02*
X76006Y-100D01*
X74037Y-2069D02*
X74037Y1869D01*
X72561Y-100D02*
G75*
D01*
G02X72561Y-100I1476J0*
G01*
X73545Y-100D02*
G75*
D01*
G02X73545Y-100I492J0*
G01*
X-2069Y40100D02*
X-6006Y40100D01*
X-4037Y38131D02*
X-4037Y42069D01*
X-5513Y40100D02*
G75*
D01*
G02X-5513Y40100I1476J0*
G01*
X-5021Y40100D02*
G75*
D01*
G02X-5021Y40100I984J0*
G01*
X-4529Y40100D02*
G75*
D01*
G02X-4529Y40100I492J0*
G01*
G54D13*
X52627Y34400D02*
X51823Y34400D01*
X52747Y34279D02*
X52627Y34400D01*
X4571Y23800D02*
X4000Y23800D01*
G54D14*
X52400Y1600D03*
X53400Y1600D03*
X54400Y1600D03*
X55400Y1600D03*
X56400Y1600D03*
X57400Y1600D03*
X58400Y1600D03*
X59400Y1600D03*
X60400Y1600D03*
X61400Y1600D03*
X52400Y3584D03*
X53400Y3584D03*
X54400Y3584D03*
X55400Y3584D03*
X56400Y3584D03*
X57400Y3584D03*
X58400Y3584D03*
X59400Y3584D03*
X60400Y3584D03*
X61400Y3584D03*
X8600Y1600D03*
X9600Y1600D03*
X10600Y1600D03*
X11600Y1600D03*
X12600Y1600D03*
X13600Y1600D03*
X14600Y1600D03*
X15600Y1600D03*
X16600Y1600D03*
X17600Y1600D03*
X8600Y3584D03*
X9600Y3584D03*
X10600Y3584D03*
X11600Y3584D03*
X12600Y3584D03*
X13600Y3584D03*
X14600Y3584D03*
X15600Y3584D03*
X16600Y3584D03*
X17600Y3584D03*
G54D15*
X40190Y29250D03*
X48310Y29250D03*
X40190Y4250D03*
X48310Y4250D03*
X21650Y29250D03*
X29770Y29250D03*
X21650Y4250D03*
X29770Y4250D03*
G54D16*
X44250Y16325D03*
X25710Y16325D03*
G54D17*
X48800Y14500D03*
X47500Y13750D03*
X47500Y7750D03*
X48750Y7000D03*
X47500Y9250D03*
X46200Y13000D03*
X48800Y13000D03*
X48800Y19000D03*
X48800Y25000D03*
X44900Y7750D03*
X45550Y5250D03*
X45550Y3750D03*
X44900Y10750D03*
X44900Y9250D03*
X44900Y12250D03*
X44250Y29000D03*
X45550Y29750D03*
X45550Y28250D03*
X43600Y13000D03*
X43600Y11500D03*
X44250Y4500D03*
X42950Y29750D03*
X42950Y28250D03*
X39700Y7750D03*
X42950Y3750D03*
X39700Y13750D03*
X39700Y10750D03*
X39700Y9250D03*
X39700Y12250D03*
X39700Y16750D03*
X39700Y15250D03*
X39700Y18250D03*
X39700Y19750D03*
X44900Y19750D03*
X47500Y19750D03*
X41000Y20500D03*
X43600Y20500D03*
X39700Y21250D03*
X44900Y21250D03*
X47500Y21250D03*
X41000Y22000D03*
X43600Y22000D03*
X46200Y22000D03*
X39700Y22750D03*
X42300Y22750D03*
X44900Y22750D03*
X41000Y23500D03*
X43600Y23500D03*
X39700Y24250D03*
X42300Y24250D03*
X44900Y24250D03*
X41000Y25000D03*
X43600Y25000D03*
X39700Y25750D03*
X42300Y25750D03*
X44900Y25750D03*
X47500Y25750D03*
X43600Y26500D03*
X41000Y26500D03*
X41000Y14500D03*
X42300Y13750D03*
X41000Y13000D03*
X41000Y11500D03*
X42300Y12250D03*
X41000Y17500D03*
X41000Y16000D03*
X48800Y20500D03*
X47500Y15250D03*
X47500Y16750D03*
X48800Y17500D03*
X48800Y16000D03*
X48800Y23500D03*
X48800Y22000D03*
X41000Y19000D03*
X42300Y19750D03*
X46200Y19000D03*
X47500Y18250D03*
X46200Y20500D03*
X42300Y21250D03*
X47500Y22750D03*
X46200Y23500D03*
X47500Y24250D03*
X46200Y25000D03*
X46200Y26500D03*
X43600Y10000D03*
X43600Y8500D03*
X43600Y7000D03*
X42300Y7750D03*
X41000Y8500D03*
X41000Y7000D03*
X41000Y10000D03*
X42300Y10750D03*
X42300Y9250D03*
X48800Y8500D03*
X46200Y8500D03*
X46200Y7000D03*
X47500Y10750D03*
X47500Y12250D03*
X46200Y11500D03*
X46200Y10000D03*
X48800Y11500D03*
X48800Y10000D03*
X42950Y5250D03*
X30260Y13000D03*
X30260Y14500D03*
X28960Y13750D03*
X28960Y7750D03*
X30210Y7000D03*
X28960Y9250D03*
X27660Y13000D03*
X30260Y19000D03*
X30260Y25000D03*
X26360Y7750D03*
X27010Y5250D03*
X27010Y3750D03*
X26360Y10750D03*
X26360Y9250D03*
X26360Y12250D03*
X25710Y29000D03*
X27010Y29750D03*
X27010Y28250D03*
X25060Y13000D03*
X25060Y11500D03*
X25710Y4500D03*
X24410Y29750D03*
X24410Y28250D03*
X21160Y7750D03*
X24410Y3750D03*
X21160Y13750D03*
X21160Y10750D03*
X21160Y9250D03*
X21160Y12250D03*
X21160Y16750D03*
X21160Y15250D03*
X21160Y18250D03*
X21160Y19750D03*
X26360Y19750D03*
X28960Y19750D03*
X22460Y20500D03*
X25060Y20500D03*
X21160Y21250D03*
X26360Y21250D03*
X28960Y21250D03*
X22460Y22000D03*
X25060Y22000D03*
X27660Y22000D03*
X21160Y22750D03*
X23760Y22750D03*
X26360Y22750D03*
X22460Y23500D03*
X25060Y23500D03*
X21160Y24250D03*
X23760Y24250D03*
X26360Y24250D03*
X22460Y25000D03*
X25060Y25000D03*
X21160Y25750D03*
X23760Y25750D03*
X26360Y25750D03*
X28960Y25750D03*
X25060Y26500D03*
X22460Y26500D03*
X22460Y14500D03*
X23760Y13750D03*
X22460Y13000D03*
X22460Y11500D03*
X23760Y12250D03*
X22460Y17500D03*
X22460Y16000D03*
X30260Y20500D03*
X28960Y15250D03*
X28960Y16750D03*
X30260Y17500D03*
X30260Y16000D03*
X30260Y23500D03*
X30260Y22000D03*
X22460Y19000D03*
X23760Y19750D03*
X27660Y19000D03*
X28960Y18250D03*
X27660Y20500D03*
X23760Y21250D03*
X28960Y22750D03*
X27660Y23500D03*
X28960Y24250D03*
X27660Y25000D03*
X27660Y26500D03*
X25060Y10000D03*
X25060Y8500D03*
X25060Y7000D03*
X23760Y7750D03*
X22460Y8500D03*
X22460Y7000D03*
X22460Y10000D03*
X23760Y10750D03*
X23760Y9250D03*
X30260Y8500D03*
X27660Y8500D03*
X27660Y7000D03*
X28960Y10750D03*
X28960Y12250D03*
X27660Y11500D03*
X27660Y10000D03*
X30260Y11500D03*
X30260Y10000D03*
X24410Y5250D03*
G54D18*
X48800Y26500D03*
X30260Y26500D03*
G54D19*
X45140Y37660D03*
X45140Y38660D03*
X39140Y38660D03*
X42140Y37660D03*
X42140Y38660D03*
X41140Y37660D03*
X40140Y37660D03*
X40140Y38660D03*
X41140Y38660D03*
X43140Y37660D03*
X44140Y37660D03*
X43140Y38660D03*
X44140Y38660D03*
X48140Y37660D03*
X48140Y38660D03*
X46140Y37660D03*
X47140Y37660D03*
X47140Y38660D03*
X46140Y38660D03*
X49140Y37660D03*
X50140Y37660D03*
X50140Y38660D03*
X49140Y38660D03*
X25860Y37660D03*
X25860Y38660D03*
X19860Y38660D03*
X22860Y37660D03*
X22860Y38660D03*
X21860Y37660D03*
X20860Y37660D03*
X20860Y38660D03*
X21860Y38660D03*
X23860Y37660D03*
X24860Y37660D03*
X23860Y38660D03*
X24860Y38660D03*
X28860Y37660D03*
X28860Y38660D03*
X26860Y37660D03*
X27860Y37660D03*
X27860Y38660D03*
X26860Y38660D03*
X29860Y37660D03*
X30860Y37660D03*
X30860Y38660D03*
X29860Y38660D03*
X5140Y3540D03*
X4540Y5940D03*
X7340Y5940D03*
X1740Y5940D03*
X64740Y3540D03*
X68340Y3540D03*
X63140Y5940D03*
X65940Y5940D03*
X68540Y5940D03*
G54D20*
X39140Y37660D03*
X19860Y37660D03*
X4140Y3540D03*
X4540Y6940D03*
X7340Y6940D03*
X1740Y6940D03*
X63740Y3540D03*
X67340Y3540D03*
X63140Y6940D03*
X65940Y6940D03*
X68540Y6940D03*
G54D21*
X39036Y37556D02*
X39244Y37556D01*
X39244Y37764D01*
X39036Y37764D01*
X39036Y37556D01*D02*
X19756Y37556D02*
X19964Y37556D01*
X19964Y37764D01*
X19756Y37764D01*
X19756Y37556D01*D02*
X4036Y3436D02*
X4244Y3436D01*
X4244Y3644D01*
X4036Y3644D01*
X4036Y3436D01*D02*
X4436Y6836D02*
X4644Y6836D01*
X4644Y7044D01*
X4436Y7044D01*
X4436Y6836D01*D02*
X7236Y6836D02*
X7444Y6836D01*
X7444Y7044D01*
X7236Y7044D01*
X7236Y6836D01*D02*
X1636Y6836D02*
X1844Y6836D01*
X1844Y7044D01*
X1636Y7044D01*
X1636Y6836D01*D02*
X63636Y3436D02*
X63844Y3436D01*
X63844Y3644D01*
X63636Y3644D01*
X63636Y3436D01*D02*
X67236Y3436D02*
X67444Y3436D01*
X67444Y3644D01*
X67236Y3644D01*
X67236Y3436D01*D02*
X63036Y6836D02*
X63244Y6836D01*
X63244Y7044D01*
X63036Y7044D01*
X63036Y6836D01*D02*
X65836Y6836D02*
X66044Y6836D01*
X66044Y7044D01*
X65836Y7044D01*
X65836Y6836D01*D02*
X68436Y6836D02*
X68644Y6836D01*
X68644Y7044D01*
X68436Y7044D01*
X68436Y6836D01*D02*
G54D22*
X30300Y33800D03*
X33800Y32600D03*
X33182Y33818D03*
X33800Y8500D03*
X11300Y14300D03*
X12300Y14500D03*
X8800Y14100D03*
X8700Y14500D03*
X19800Y14500D03*
X18400Y15800D03*
X17800Y16100D03*
X19900Y16500D03*
X24200Y21900D03*
X5100Y15700D03*
X5500Y16100D03*
X22100Y5700D03*
X5100Y16400D03*
X21500Y5700D03*
X17900Y21600D03*
X18700Y21600D03*
X19900Y21600D03*
X10100Y28000D03*
X9700Y28500D03*
X62000Y8400D03*
X64200Y35100D03*
X66100Y35000D03*
X66000Y35500D03*
X43700Y5700D03*
X59200Y11100D03*
X66100Y34200D03*
X62700Y35400D03*
X42600Y35000D03*
X39800Y34900D03*
X38700Y34900D03*
X38500Y11700D03*
X39300Y11500D03*
X52600Y26900D03*
X64500Y20800D03*
X49300Y21000D03*
X59000Y19400D03*
X49800Y19400D03*
X12300Y32000D03*
X27400Y30400D03*
X11300Y6000D03*
X11500Y5700D03*
X11900Y5400D03*
X17600Y800D03*
X12200Y2400D03*
X16580Y920D03*
X12300Y5800D03*
X14100Y3300D03*
X13000Y2950D03*
X14100Y4700D03*
X13600Y4500D03*
X20500Y2600D03*
X19900Y2500D03*
X20500Y800D03*
X16488Y7000D03*
X13100Y10300D03*
X10600Y2400D03*
X12800Y10600D03*
X8600Y4700D03*
X19200Y2600D03*
X19200Y1000D03*
X12600Y800D03*
X28600Y31400D03*
X30800Y21200D03*
X32400Y20800D03*
X31600Y19800D03*
X32300Y21200D03*
X32300Y22600D03*
X7500Y400D03*
X20200Y2100D03*
X25100Y2100D03*
X32175Y2100D03*
X19800Y20700D03*
X10600Y20800D03*
X10100Y24100D03*
X11606Y800D03*
X17100Y2200D03*
X17900Y800D03*
X14000Y2100D03*
X31600Y35200D03*
X59000Y18600D03*
X9800Y23900D03*
X19700Y16800D03*
X16200Y16800D03*
X26300Y26900D03*
X21000Y27000D03*
X20800Y28300D03*
X17000Y28400D03*
X12500Y29400D03*
X18800Y28900D03*
X52100Y10600D03*
X61700Y11400D03*
X63200Y11400D03*
X66800Y26700D03*
X64400Y26700D03*
X52400Y22800D03*
X52400Y26400D03*
X50200Y20100D03*
X49400Y20100D03*
X63100Y35200D03*
X55800Y18600D03*
X26100Y1000D03*
X1300Y24099D03*
X2900Y24100D03*
X5300Y24100D03*
X45900Y1400D03*
X8700Y24100D03*
X46300Y5600D03*
X63800Y35500D03*
X64200Y38400D03*
X69400Y11100D03*
X69500Y14700D03*
X68600Y12100D03*
X68600Y14800D03*
X69200Y35500D03*
X45800Y2600D03*
X44100Y3600D03*
X63100Y29600D03*
X54100Y30300D03*
X50600Y23400D03*
X50600Y22500D03*
X58900Y19900D03*
X55000Y24800D03*
X50700Y24800D03*
X64600Y27000D03*
X66800Y27200D03*
X69000Y27000D03*
X49400Y1600D03*
X50800Y1600D03*
X16196Y8100D03*
X6700Y900D03*
X34700Y17500D03*
X37400Y19700D03*
X55000Y30600D03*
X29800Y21200D03*
X38800Y24800D03*
X38800Y23100D03*
X17700Y16500D03*
X57500Y22300D03*
X48300Y19800D03*
X45500Y20300D03*
X60100Y20700D03*
X57482Y17400D03*
X50739Y17361D03*
X32100Y30300D03*
X32400Y23100D03*
X33300Y12100D03*
X64400Y28300D03*
X28400Y30100D03*
X37300Y17500D03*
X37300Y20800D03*
X43400Y19400D03*
X24700Y19700D03*
X18300Y14500D03*
X52200Y11500D03*
X36100Y19700D03*
X36100Y21000D03*
X10199Y28499D03*
X6900Y27900D03*
X23200Y24700D03*
X23200Y29300D03*
X34700Y19900D03*
X64200Y24700D03*
X9500Y30300D03*
X31800Y29600D03*
X30800Y32600D03*
X66800Y37900D03*
X64400Y19700D03*
X66000Y19800D03*
X33600Y18500D03*
X33600Y21300D03*
X29700Y27400D03*
X29300Y31900D03*
X25200Y31800D03*
X60500Y22400D03*
X27500Y3200D03*
X28800Y6100D03*
X13000Y26500D03*
X51191Y21600D03*
X52700Y19900D03*
X50600Y20100D03*
X14600Y900D03*
X60800Y21100D03*
X60400Y20400D03*
X57600Y20700D03*
X57400Y19200D03*
X45700Y21300D03*
X50499Y22099D03*
X27900Y18000D03*
X55013Y27400D03*
X29500Y22100D03*
X41600Y19800D03*
X3300Y12400D03*
X3300Y11612D03*
X50100Y19100D03*
X64100Y23300D03*
X4000Y22400D03*
X6200Y22200D03*
X13600Y30500D03*
X3600Y27500D03*
X6700Y11500D03*
X13400Y26700D03*
X34000Y37100D03*
X51000Y20200D03*
X59300Y20700D03*
X46400Y14500D03*
X14268Y37000D03*
X42300Y18100D03*
X50200Y21100D03*
X7700Y29200D03*
X6200Y27300D03*
X18800Y37700D03*
X7600Y25700D03*
X10500Y36800D03*
X21600Y35800D03*
X6300Y18900D03*
X6100Y11700D03*
X31900Y3000D03*
X49100Y3400D03*
X30800Y3400D03*
X6400Y14700D03*
X37900Y33400D03*
X64000Y34700D03*
X23200Y33600D03*
X27900Y33600D03*
X9200Y29400D03*
X50200Y8700D03*
X42800Y700D03*
X20600Y7200D03*
X25200Y2700D03*
X39000Y2800D03*
X18500Y18900D03*
X44300Y2900D03*
X66400Y16100D03*
X58600Y30900D03*
X61900Y36800D03*
X18400Y1700D03*
X59200Y32400D03*
X29400Y34100D03*
X19700Y28800D03*
X11600Y38600D03*
X15500Y28000D03*
X17600Y29600D03*
X23300Y2400D03*
X30500Y34800D03*
X40800Y34100D03*
X31200Y6600D03*
X8300Y15200D03*
X46300Y32000D03*
X19300Y27800D03*
X64400Y34100D03*
X46500Y33100D03*
X56800Y26000D03*
X7700Y28900D03*
X17600Y27400D03*
X45200Y1500D03*
X3300Y3000D03*
X51700Y23400D03*
X56400Y31400D03*
X37200Y1800D03*
X2400Y24800D03*
X7700Y29600D03*
X11300Y38000D03*
X53400Y27000D03*
X50200Y23500D03*
X18800Y29500D03*
X36200Y36700D03*
X36200Y31100D03*
X33000Y300D03*
X15900Y28900D03*
X35400Y31200D03*
X35200Y33000D03*
X28400Y5400D03*
X42500Y35600D03*
X27600Y34900D03*
X4900Y29300D03*
X53800Y17800D03*
X53700Y34000D03*
X27000Y35100D03*
X30800Y34200D03*
X32200Y34200D03*
X43900Y32900D03*
X2500Y12500D03*
X19600Y23800D03*
X57100Y26100D03*
X7000Y27300D03*
X22500Y34700D03*
X11000Y39300D03*
X38200Y6200D03*
X47400Y6000D03*
X18700Y7000D03*
X25500Y2400D03*
X43400Y3200D03*
X16600Y27700D03*
X13400Y9700D03*
X32800Y1400D03*
X13800Y27200D03*
X26700Y39700D03*
X47200Y30800D03*
X65500Y24000D03*
X63300Y30600D03*
X51300Y32000D03*
X34700Y31600D03*
X32300Y31100D03*
X55900Y9000D03*
X57400Y4200D03*
X49500Y8400D03*
X49800Y4100D03*
X23100Y15400D03*
X28050Y24100D03*
X6600Y23600D03*
X51000Y29900D03*
X53000Y28800D03*
X53000Y15600D03*
X51100Y11200D03*
X30600Y32900D03*
X5700Y32800D03*
X12200Y36200D03*
X7000Y32600D03*
X5400Y24800D03*
X7300Y25900D03*
X6000Y19500D03*
X7100Y19300D03*
X54400Y12400D03*
X44800Y5800D03*
X44900Y1400D03*
X64500Y20200D03*
X5900Y34600D03*
X31900Y11800D03*
X30300Y11500D03*
X52800Y28400D03*
X8800Y34400D03*
X54200Y12800D03*
X54200Y26900D03*
X47800Y30800D03*
X12200Y33200D03*
X37500Y11600D03*
X36600Y29300D03*
X32300Y30600D03*
X30200Y31000D03*
X32500Y700D03*
X21100Y2700D03*
X14400Y9700D03*
X11200Y11800D03*
X5200Y11000D03*
X1500Y27300D03*
X1600Y29000D03*
X37800Y5000D03*
X34800Y30300D03*
X30300Y30400D03*
X41000Y28200D03*
X33600Y10400D03*
X36000Y18600D03*
X33200Y17500D03*
X28000Y500D03*
X19800Y6100D03*
X11900Y30300D03*
X10500Y28200D03*
X16300Y14600D03*
X18700Y8600D03*
X28500Y26600D03*
X54500Y32000D03*
X54200Y27400D03*
X64700Y27500D03*
X53600Y16000D03*
X34400Y9600D03*
X34300Y9900D03*
X18100Y24700D03*
X19900Y10400D03*
X22800Y4300D03*
X31800Y18600D03*
X65550Y21300D03*
X13000Y29200D03*
X34400Y500D03*
X34200Y5600D03*
X34600Y5600D03*
X33600Y17900D03*
X1400Y11300D03*
X1400Y24600D03*
X1400Y23700D03*
X1400Y25800D03*
X1700Y26600D03*
X10500Y27500D03*
X10100Y30300D03*
X28100Y2300D03*
X26300Y1400D03*
X22800Y1600D03*
X34000Y11900D03*
X25900Y6300D03*
X38300Y13100D03*
X38300Y34500D03*
X39300Y34500D03*
X14900Y6700D03*
X14882Y7360D03*
X42700Y34700D03*
X4900Y15300D03*
X31700Y9700D03*
X32700Y10100D03*
X34200Y8700D03*
X10700Y22100D03*
X13300Y5100D03*
X16100Y2400D03*
X32900Y11600D03*
X17700Y12500D03*
X6900Y28950D03*
X9000Y21500D03*
X14100Y26200D03*
X46700Y2700D03*
X61800Y22700D03*
X3300Y26000D03*
X26700Y1800D03*
X26500Y3200D03*
X6875Y31600D03*
X7500Y30400D03*
X7100Y30300D03*
X66000Y33200D03*
X64900Y23500D03*
X53500Y36900D03*
X37000Y28400D03*
X32700Y28600D03*
X31900Y31600D03*
X31900Y33600D03*
X33100Y35200D03*
X34600Y34900D03*
X30300Y31500D03*
X33500Y30900D03*
X35800Y30900D03*
X33600Y22400D03*
X35800Y18900D03*
X33400Y19700D03*
X64700Y27900D03*
X33200Y17100D03*
X65900Y27700D03*
X68100Y27300D03*
X67100Y17300D03*
X64500Y17300D03*
X62500Y15000D03*
X62500Y16400D03*
X58600Y16400D03*
X51700Y29300D03*
X49500Y26900D03*
X41800Y26800D03*
X33500Y31300D03*
X7600Y35500D03*
X18100Y15900D03*
X20000Y16100D03*
X9400Y14300D03*
X38700Y36300D03*
X20100Y29600D03*
X10500Y14100D03*
X18400Y14100D03*
X19800Y14100D03*
X20600Y26200D03*
X18700Y25400D03*
X24100Y26800D03*
X21300Y26700D03*
X22700Y28600D03*
X13900Y25300D03*
X29700Y34200D03*
X29000Y32000D03*
X50909Y22091D03*
X63300Y22150D03*
X44900Y24200D03*
X7700Y11200D03*
X31500Y11100D03*
X38200Y8500D03*
X36400Y11000D03*
X38200Y11000D03*
X31500Y13700D03*
X66100Y33700D03*
X30400Y36400D03*
X31500Y3100D03*
X32000Y36100D03*
X66200Y18075D03*
X46600Y19900D03*
X33400Y15400D03*
X63800Y16600D03*
X66000Y23400D03*
X66000Y19300D03*
X63900Y19300D03*
X61800Y24800D03*
X60800Y24900D03*
X61800Y30500D03*
X34000Y35100D03*
X34000Y14200D03*
X13000Y27100D03*
X60800Y21700D03*
X52100Y34000D03*
X14850Y36800D03*
X52200Y20000D03*
X14500Y27800D03*
X58400Y20200D03*
X52400Y12800D03*
X50500Y12600D03*
X15200Y36161D03*
X14400Y26700D03*
X28200Y36300D03*
X32900Y36100D03*
X32500Y33700D03*
X33200Y8200D03*
X33200Y6200D03*
X31100Y8200D03*
X36600Y6200D03*
X56300Y10600D03*
X56300Y21800D03*
X59700Y22400D03*
X18500Y36000D03*
X6800Y31200D03*
X7500Y32200D03*
X3600Y30300D03*
X15800Y6800D03*
X51823Y34400D03*
X60500Y25300D03*
X61400Y25100D03*
X61000Y31400D03*
X61825Y31200D03*
X60300Y32600D03*
X17300Y36800D03*
X57358Y36642D03*
X17300Y38800D03*
X18200Y38800D03*
X65900Y12200D03*
X53900Y15500D03*
X60200Y17400D03*
X56500Y17800D03*
X60205Y18700D03*
X63000Y25200D03*
X13500Y36500D03*
X59500Y6000D03*
X60300Y5900D03*
X58600Y7000D03*
X63200Y9800D03*
X63300Y12130D03*
X64800Y12200D03*
X4900Y12000D03*
X5100Y11500D03*
X3900Y12200D03*
X2200Y19800D03*
X3100Y19500D03*
X5700Y19800D03*
X6300Y20000D03*
X6600Y26900D03*
X7700Y27600D03*
X7300Y31300D03*
X7800Y32800D03*
X7600Y33600D03*
X13500Y37000D03*
X13600Y800D03*
X17000Y6800D03*
X9000Y10100D03*
X17000Y10200D03*
X6600Y25900D03*
X15200Y2100D03*
X6400Y8700D03*
X9800Y8800D03*
X55800Y15500D03*
X60800Y18600D03*
X60900Y12700D03*
X13700Y5500D03*
X14400Y6100D03*
X15200Y3200D03*
X64100Y15300D03*
X65200Y18000D03*
X42700Y5900D03*
X65200Y21800D03*
X25700Y5400D03*
X64900Y25100D03*
X20800Y5700D03*
X19700Y5700D03*
X14600Y10200D03*
X5200Y10600D03*
X2100Y10900D03*
X14400Y37700D03*
X15500Y37643D03*
X17100Y37600D03*
X10000Y38600D03*
X64100Y31300D03*
X58500Y23900D03*
X29100Y26700D03*
X28800Y27400D03*
X22200Y35800D03*
X19300Y30000D03*
X14500Y29000D03*
X27200Y34500D03*
X27200Y31900D03*
X26700Y31900D03*
X34700Y28500D03*
X34700Y32200D03*
X34600Y34500D03*
X34700Y24600D03*
X52100Y24400D03*
X52200Y26900D03*
X27600Y32200D03*
X27600Y34500D03*
X37500Y26500D03*
X30100Y34500D03*
X37400Y34500D03*
X32800Y34500D03*
X35300Y27200D03*
X34300Y34000D03*
X34800Y27700D03*
X34296Y10904D03*
X49600Y25300D03*
X58000Y25200D03*
X52400Y21600D03*
X63500Y23100D03*
X27200Y21400D03*
X19800Y22200D03*
X61700Y34800D03*
X20000Y24800D03*
X62200Y8900D03*
X58100Y36600D03*
X58100Y30200D03*
X63500Y30300D03*
X59400Y5000D03*
X62100Y8000D03*
X22000Y13800D03*
X18100Y17500D03*
X10500Y30500D03*
X59700Y7100D03*
X55000Y12100D03*
X61900Y7800D03*
X57700Y25000D03*
X58000Y27050D03*
X67000Y19300D03*
X66000Y12700D03*
X60800Y10200D03*
X57400Y24600D03*
X66800Y33200D03*
X66200Y24800D03*
X67100Y22500D03*
X28600Y22100D03*
X61500Y34600D03*
X18900Y11800D03*
X8800Y23400D03*
X30900Y25300D03*
X6300Y20900D03*
X3800Y20300D03*
X42300Y26600D03*
X8000Y31000D03*
X11900Y29600D03*
X7600Y24900D03*
X7600Y18700D03*
X7200Y12200D03*
X10800Y6900D03*
X7600Y30800D03*
X13097Y30797D03*
X7500Y25400D03*
X7400Y18900D03*
X7000Y12000D03*
X10600Y8000D03*
X18400Y23200D03*
X64800Y20600D03*
X5300Y12000D03*
X10400Y8400D03*
X16900Y17500D03*
X10000Y23200D03*
X65000Y19800D03*
X19600Y22400D03*
X55400Y31300D03*
X55400Y33900D03*
X5600Y18500D03*
X5600Y23600D03*
X10700Y38300D03*
X12100Y10000D03*
X20700Y24900D03*
X61300Y33800D03*
X10300Y8100D03*
X4700Y9200D03*
X2600Y30700D03*
X3200Y30300D03*
X6000Y36400D03*
X38000Y36600D03*
X19100Y29700D03*
X63400Y31000D03*
X63200Y22600D03*
X58900Y25400D03*
X25600Y34500D03*
X26700Y34500D03*
X56000Y24000D03*
X26900Y34300D03*
X55900Y23100D03*
X29900Y33000D03*
X13000Y33300D03*
X8800Y35000D03*
X55700Y20700D03*
X25800Y34300D03*
X54800Y19000D03*
X34600Y19200D03*
X28000Y34300D03*
X54700Y16500D03*
X54500Y14700D03*
X10700Y21600D03*
X10500Y33600D03*
X51400Y13100D03*
X62400Y12800D03*
X17600Y22200D03*
X31900Y9300D03*
X62700Y12800D03*
X17800Y22000D03*
X29600Y8200D03*
X62400Y14000D03*
X16900Y22000D03*
X30500Y27200D03*
X62600Y23800D03*
X63100Y14000D03*
X20200Y22200D03*
X30900Y24600D03*
X61600Y24000D03*
X65600Y17738D03*
X27200Y22900D03*
X30900Y23900D03*
X62800Y17600D03*
X23100Y17900D03*
X29900Y19900D03*
X40600Y21100D03*
X54800Y18700D03*
X62900Y17000D03*
X63600Y15700D03*
X26700Y18900D03*
X63100Y17600D03*
X20400Y17900D03*
X23800Y18600D03*
X46400Y18100D03*
X63600Y17400D03*
X20200Y17700D03*
X19000Y19400D03*
X63900Y16300D03*
X16900Y19300D03*
X50000Y14100D03*
X65500Y16400D03*
X16900Y19600D03*
X66100Y16100D03*
X18100Y18300D03*
X31200Y8900D03*
X62100Y7400D03*
X67200Y15900D03*
X14800Y18400D03*
X31900Y7000D03*
X63400Y10800D03*
X67100Y15600D03*
X19200Y19700D03*
X29300Y24900D03*
X61400Y24200D03*
X19400Y19500D03*
X67600Y18800D03*
X19600Y19700D03*
X26700Y20600D03*
X30900Y20100D03*
X67100Y17700D03*
X67700Y14600D03*
X25200Y19200D03*
X30900Y19400D03*
X67700Y18500D03*
X24000Y18400D03*
X36100Y17900D03*
X52300Y14000D03*
X67800Y14200D03*
X24600Y14200D03*
X29300Y16100D03*
X67500Y14100D03*
X20000Y13300D03*
X28300Y13500D03*
X45200Y13600D03*
X51300Y6800D03*
X19600Y12000D03*
X31000Y11300D03*
X51100Y7400D03*
X19600Y11000D03*
X29600Y10400D03*
X19500Y9500D03*
X31700Y9100D03*
X56800Y8300D03*
X66700Y13000D03*
X61300Y7000D03*
X64100Y19000D03*
X63300Y25800D03*
X64800Y32200D03*
X54800Y10300D03*
X60800Y7200D03*
X66400Y13000D03*
X63500Y18100D03*
X63900Y25600D03*
X66400Y30300D03*
X66100Y36200D03*
X56900Y27200D03*
X62900Y25800D03*
X54900Y9000D03*
X60300Y7200D03*
X66000Y13000D03*
X62600Y18900D03*
X62800Y25500D03*
X62900Y32000D03*
X57400Y28200D03*
X58700Y23000D03*
X62900Y19000D03*
X63200Y31900D03*
X58000Y9500D03*
X57800Y9300D03*
X56100Y9700D03*
X55700Y2600D03*
X59200Y9900D03*
X56300Y9900D03*
X55500Y2400D03*
X60000Y10200D03*
X56400Y10200D03*
X60400Y10200D03*
X56600Y10400D03*
X61000Y10400D03*
X62000Y9500D03*
X61800Y9100D03*
X23600Y26900D03*
X26075Y6925D03*
X28800Y6800D03*
X9300Y32500D03*
X7100Y25100D03*
X7100Y32000D03*
X6000Y10039D03*
X9183Y26017D03*
X4900Y13200D03*
X7100Y33400D03*
X7300Y26800D03*
X3900Y11600D03*
X8677Y19900D03*
X9077Y19500D03*
X10300Y9500D03*
X6400Y18500D03*
X10100Y5800D03*
X47800Y26700D03*
X45100Y26800D03*
X50700Y7100D03*
X50800Y4800D03*
X37200Y7200D03*
X63300Y27200D03*
X61300Y25400D03*
X61449Y18600D03*
X61800Y31600D03*
X62800Y34000D03*
X63249Y20000D03*
X64100Y29500D03*
X64800Y12800D03*
X60912Y8300D03*
X65900Y14500D03*
X66300Y12100D03*
X61500Y5900D03*
X52000Y7100D03*
X53400Y13800D03*
X61500Y4300D03*
X54000Y34600D03*
X54200Y2500D03*
X52100Y2600D03*
X56300Y2400D03*
X66100Y36800D03*
X65800Y30300D03*
X55600Y18900D03*
X18800Y7400D03*
X17200Y8600D03*
X18200Y37800D03*
X17958Y3600D03*
X16000Y3300D03*
X13800Y2500D03*
X15400Y2422D03*
X18400Y2700D03*
X65900Y5900D03*
X64800Y5900D03*
X4000Y23800D03*
X12300Y37100D03*
X12300Y31100D03*
X2200Y18200D03*
X52700Y13850D03*
X51300Y34300D03*
X51200Y26600D03*
X58500Y38452D03*
X60700Y38400D03*
X63700Y38400D03*
X64300Y37400D03*
X13493Y37700D03*
X10500Y37900D03*
X7600Y38000D03*
X39300Y26700D03*
X28400Y28600D03*
X25800Y27100D03*
X16400Y5700D03*
X16900Y9200D03*
X54200Y5800D03*
G54D23*
X55600Y19252D03*
X55600Y19548D03*
X52400Y14452D03*
X52400Y14748D03*
X4540Y8392D03*
X4540Y8688D03*
X7340Y8392D03*
X7340Y8688D03*
X1740Y8392D03*
X1740Y8688D03*
X63140Y8392D03*
X63140Y8688D03*
X65940Y8392D03*
X65940Y8688D03*
X68540Y8392D03*
X68540Y8688D03*
X2198Y18452D03*
X2198Y18748D03*
X18200Y38152D03*
X18200Y38448D03*
X51798Y34152D03*
X51798Y34448D03*
X18400Y7332D03*
X18400Y7627D03*
G54D24*
X3292Y18779D03*
X4591Y19779D03*
X3292Y20779D03*
X4591Y21779D03*
X3292Y22779D03*
X4591Y23779D03*
X3292Y24779D03*
X4591Y25779D03*
X3292Y26779D03*
X4591Y27779D03*
X3292Y28779D03*
X4591Y29779D03*
X3292Y30779D03*
X4591Y31779D03*
X3292Y32779D03*
X4591Y33779D03*
X3292Y34779D03*
X4591Y35779D03*
X3292Y36779D03*
X12292Y18779D03*
X13591Y19779D03*
X12292Y20779D03*
X13591Y21779D03*
X12292Y22779D03*
X13591Y23779D03*
X12292Y24779D03*
X13591Y25779D03*
X12292Y26779D03*
X13591Y27779D03*
X12292Y28779D03*
X13591Y29779D03*
X12292Y30779D03*
X13591Y31779D03*
X12292Y32779D03*
X13591Y33779D03*
X12292Y34779D03*
X13591Y35779D03*
X12292Y36779D03*
X16993Y34279D03*
X15694Y35279D03*
X16993Y36279D03*
X15694Y37279D03*
X16993Y38279D03*
X52747Y34279D03*
X54046Y35279D03*
X52747Y36279D03*
X54046Y37279D03*
X52747Y38279D03*
X56492Y18779D03*
X57791Y19779D03*
X56492Y20779D03*
X57791Y21779D03*
X56492Y22779D03*
X57791Y23779D03*
X56492Y24779D03*
X57791Y25779D03*
X56492Y26779D03*
X57791Y27779D03*
X56492Y28779D03*
X57791Y29779D03*
X56492Y30779D03*
X57791Y31779D03*
X56492Y32779D03*
X57791Y33779D03*
X56492Y34779D03*
X57791Y35779D03*
X56492Y36779D03*
X65492Y18779D03*
X66791Y19779D03*
X65492Y20779D03*
X66791Y21779D03*
X65492Y22779D03*
X66791Y23779D03*
X65492Y24779D03*
X66791Y25779D03*
X65492Y26779D03*
X66791Y27779D03*
X65492Y28779D03*
X66791Y29779D03*
X65492Y30779D03*
X66791Y31779D03*
X65492Y32779D03*
X66791Y33779D03*
X65492Y34779D03*
X66791Y35779D03*
X65492Y36779D03*
X54450Y7579D03*
X54450Y9579D03*
X54450Y11579D03*
X54450Y13579D03*
X53150Y8579D03*
X53150Y10579D03*
X53150Y12579D03*
X53150Y14579D03*
X16906Y7579D03*
X15607Y8579D03*
X16906Y9579D03*
X15607Y10579D03*
X16906Y11579D03*
X15607Y12579D03*
X16906Y13579D03*
X15607Y14579D03*

M02*
