G04 Generated by Ultiboard 14.1 *
%FSLAX24Y24*%
%MOIN*%

%ADD10C,0.0001*%
%ADD11C,0.0001*%
%ADD12C,0.0050*%


G04 ColorRGB 00FFFF for the following layer *
%LNBoard Outline*%
%LPD*%
G54D10*
G54D11*
X0Y0D02*
X70000Y0D01*
X70000Y40000D01*
X0Y40000D01*
X0Y0D01*
G54D12*
X-100Y-100D02*
X-100Y3920D01*
X-100Y-100D02*
X6920Y-100D01*
X70100Y-100D02*
X63080Y-100D01*
X70100Y-100D02*
X70100Y3920D01*
X70100Y40100D02*
X70100Y36080D01*
X70100Y40100D02*
X63080Y40100D01*
X-100Y40100D02*
X6920Y40100D01*
X-100Y40100D02*
X-100Y36080D01*
X-2069Y-100D02*
X-6006Y-100D01*
X-4037Y-2069D02*
X-4037Y1869D01*
X-5513Y-100D02*
G75*
D01*
G02X-5513Y-100I1476J0*
G01*
X72069Y-100D02*
X76006Y-100D01*
X74037Y-2069D02*
X74037Y1869D01*
X72561Y-100D02*
G75*
D01*
G02X72561Y-100I1476J0*
G01*
X73545Y-100D02*
G75*
D01*
G02X73545Y-100I492J0*
G01*
X-2069Y40100D02*
X-6006Y40100D01*
X-4037Y38131D02*
X-4037Y42069D01*
X-5513Y40100D02*
G75*
D01*
G02X-5513Y40100I1476J0*
G01*
X-5021Y40100D02*
G75*
D01*
G02X-5021Y40100I984J0*
G01*
X-4529Y40100D02*
G75*
D01*
G02X-4529Y40100I492J0*
G01*

M02*
